SplineFontDB: 3.0
FontName: PinyonScript
FullName: Pinyon Script
FamilyName: Pinyon Script
Weight: Book
Copyright: Copyright (c) 2010 by Sorkin Type Co with Reserved Font Name Pinyon Script.\n\nThis Font Software is licensed under the SIL Open Font License, Version 1.1. This license is copied below, and is also available with a FAQ at: http://scripts.sil.org/OFL
Version: 1.005
ItalicAngle: 0
UnderlinePosition: -83
UnderlineWidth: 44
Ascent: 1638
Descent: 410
LayerCount: 2
Layer: 0 1 "Back"  1
Layer: 1 1 "Fore"  0
NeedsXUIDChange: 1
XUID: [1021 631 1661839179 12709793]
FSType: 0
OS2Version: 3
OS2_WeightWidthSlopeOnly: 0
OS2_UseTypoMetrics: 1
CreationTime: 1315272840
ModificationTime: 1317793192
PfmFamily: 17
TTFWeight: 400
TTFWidth: 5
LineGap: 0
VLineGap: 0
Panose: 2 1 5 1 8 1 1 13 0 2
OS2TypoAscent: 130
OS2TypoAOffset: 1
OS2TypoDescent: -377
OS2TypoDOffset: 1
OS2TypoLinegap: 0
OS2WinAscent: 0
OS2WinAOffset: 1
OS2WinDescent: 0
OS2WinDOffset: 1
HheadAscent: 0
HheadAOffset: 1
HheadDescent: 0
HheadDOffset: 1
OS2SubXSize: 1434
OS2SubYSize: 1331
OS2SubXOff: 0
OS2SubYOff: 287
OS2SupXSize: 1434
OS2SupYSize: 1331
OS2SupXOff: 0
OS2SupYOff: 977
OS2StrikeYSize: 57
OS2StrikeYPos: 458
OS2Vendor: 'STC '
OS2CodePages: 20000111.40000000
OS2UnicodeRanges: 800000af.00000002.00000000.00000000
DEI: 91125
TtTable: prep
PUSHW_1
 511
SCANCTRL
PUSHB_1
 4
SCANTYPE
EndTTInstrs
ShortTable: maxp 16
  1
  0
  264
  309
  6
  0
  0
  1
  0
  0
  0
  0
  0
  0
  0
  0
EndShort

StartChar: a
Encoding: 97 97 5
Width: 899
Flags: HW
LayerCount: 2
Fore
SplineSet
399 -2 m 256,0,1
 299 -2 299 -2 299 60 c 0,2,3
 299 110.667 299 110.667 357 188 c 1,4,-1
 420 268 l 1,5,-1
 410 272 l 1,6,7
 241.717 65.0952 241.717 65.0952 93 12.5 c 0,8,9
 52 -2 52 -2 22 -2 c 0,10,11
 -101 -2 -101 -2 -101 129 c 0,12,13
 -101 283.227 -101 283.227 22 423 c 1,14,15
 204.154 635.059 204.154 635.059 388 673.5 c 0,16,17
 443 685 443 685 482 685 c 128,-1,18
 521 685 521 685 543.5 679.5 c 128,-1,19
 566 674 566 674 583 663.5 c 0,20,21
 619 641.265 619 641.265 619 607.632 c 128,-1,22
 619 574 619 574 607 544 c 1,23,-1
 705 665 l 1,24,25
 731.667 657 731.667 657 755.333 657 c 0,26,27
 814 657 814 657 840 661 c 1,28,-1
 503 255 l 1,29,30
 383 114.692 383 114.692 383 58 c 0,31,32
 383 26 383 26 421 26 c 128,-1,33
 459 26 459 26 508.5 49 c 128,-1,34
 558 72 558 72 607 108 c 128,-1,35
 656 144 656 144 702.5 188 c 128,-1,36
 749 232 749 232 788.5 274 c 128,-1,37
 828 316 828 316 858.5 351.5 c 2,38,-1
 906 406 l 1,39,-1
 927 389 l 1,40,-1
 876 331 l 1,41,42
 588 -2 588 -2 399 -2 c 256,0,1
122 358 m 0,43,44
 -19 186.92 -19 186.92 -19 78 c 0,45,46
 -19 28 -19 28 26 28 c 0,47,48
 172.264 28 172.264 28 447 351 c 1,49,-1
 531 452 l 1,50,51
 591 543.304 591 543.304 591 584.152 c 0,52,53
 591 654 591 654 521 654 c 0,54,55
 426.411 654 426.411 654 248.5 492 c 0,56,57
 187 436 187 436 122 358 c 0,43,44
EndSplineSet
EndChar

StartChar: b
Encoding: 98 98 6
Width: 797
Flags: HW
LayerCount: 2
Fore
SplineSet
473 256 m 1,0,1
 447 222 447 222 409 185 c 1,2,3
 276.564 36.3476 276.564 36.3476 113 0 c 0,4,5
 68 -10 68 -10 33.5 -10 c 128,-1,6
 -1 -10 -1 -10 -25 0.5 c 128,-1,7
 -49 11 -49 11 -65 28.5 c 0,8,9
 -96 62.4062 -96 62.4062 -96 114.703 c 128,-1,10
 -96 167 -96 167 -79 220.5 c 128,-1,11
 -62 274 -62 274 -30 336.5 c 128,-1,12
 2 399 2 399 47.5 471 c 2,13,-1
 149 628 l 1,14,-1
 242.5 759.5 l 1,15,16
 296 832 296 832 359.5 909.5 c 1,17,-1
 493 1067 l 1,18,19
 825.182 1446.64 825.182 1446.64 1039.5 1551 c 0,20,21
 1097 1579 1097 1579 1142 1579 c 0,22,23
 1215 1579 1215 1579 1215 1524.5 c 128,-1,24
 1215 1470 1215 1470 1187.5 1405 c 128,-1,25
 1160 1340 1160 1340 1108.5 1268.5 c 128,-1,26
 1057 1197 1057 1197 982 1122.5 c 128,-1,27
 907 1048 907 1048 812 977 c 0,28,29
 609.521 825.674 609.521 825.674 358 727 c 1,30,31
 135.241 454.312 135.241 454.312 66.1203 342.656 c 128,-1,32
 -3 231 -3 231 -22 182 c 128,-1,33
 -41 133 -41 133 -41 100 c 0,34,35
 -41 15 -41 15 34 15 c 0,36,37
 195.959 15 195.959 15 334.5 159.5 c 0,38,39
 381 208 381 208 418 274 c 1,40,41
 469.161 337.342 469.161 337.342 484 461 c 0,42,43
 487 486 487 486 487 492 c 2,44,-1
 475 579 l 1,45,46
 481.333 655 481.333 655 537 655 c 0,47,48
 606.231 655 606.231 655 592.5 536 c 0,49,50
 586.349 482.689 586.349 482.689 558.174 410.845 c 128,-1,51
 530 339 530 339 501 294 c 1,52,53
 499 287 499 287 499.5 279.5 c 128,-1,54
 500 272 500 272 500 264 c 256,55,56
 500 213.947 500 213.947 556 211 c 1,57,58
 611.477 211 611.477 211 700.5 292.5 c 0,59,60
 759.135 346.18 759.135 346.18 804 406 c 1,61,-1
 825 389 l 1,62,63
 808 371 808 371 778.5 337 c 128,-1,64
 749 303 749 303 712.5 269.5 c 0,65,66
 621.522 186 621.522 186 550.542 186 c 128,-1,67
 479.562 186 479.562 186 473 256 c 1,0,1
1181 1520 m 0,68,69
 1181 1558 1181 1558 1142 1558 c 0,70,71
 1058.56 1558 1058.56 1558 868.5 1341.5 c 1,72,-1
 748 1200 l 1,73,-1
 391 767 l 1,74,75
 587.326 842.938 587.326 842.938 784 1000.5 c 0,76,77
 955.174 1137.63 955.174 1137.63 1070.5 1292.5 c 0,78,79
 1181 1440.89 1181 1440.89 1181 1520 c 0,68,69
EndSplineSet
EndChar

StartChar: c
Encoding: 99 99 7
Width: 665
Flags: HW
LayerCount: 2
Fore
SplineSet
516 601 m 1,0,1
 513.769 659 513.769 659 442.885 659 c 0,2,3
 297.91 659 297.91 659 68 357 c 0,4,5
 -27 230.909 -27 230.909 -27 129 c 0,6,7
 -27 84.9032 -27 84.9032 -3 62.4516 c 0,8,9
 39.1724 23 39.1724 23 104.586 23 c 128,-1,10
 170 23 170 23 243.5 50 c 128,-1,11
 317 77 317 77 380 118 c 128,-1,12
 443 159 443 159 495 207.5 c 128,-1,13
 547 256 547 256 585 298.5 c 128,-1,14
 623 341 623 341 645 371 c 128,-1,15
 667 401 667 401 671 406 c 1,16,-1
 693 389 l 1,17,-1
 665.5 353 l 1,18,19
 478.355 106.128 478.355 106.128 245.5 22 c 0,20,21
 168 -6 168 -6 99 -6 c 128,-1,22
 30 -6 30 -6 -9 8 c 128,-1,23
 -48 22 -48 22 -73.5 46.5 c 0,24,25
 -124 95.0196 -124 95.0196 -124 167.51 c 0,26,27
 -124 311.381 -124 311.381 0 459 c 0,28,29
 97.4892 574.543 97.4892 574.543 230.5 637 c 0,30,31
 337.675 687.326 337.675 687.326 440 685 c 0,32,33
 529.825 682.278 529.825 682.278 553.5 624 c 0,34,35
 577.622 564.622 577.622 564.622 528.5 515.5 c 0,36,37
 495 482 495 482 463.5 482 c 0,38,39
 392.034 482 392.034 482 390 541 c 0,40,41
 389 569 389 569 411.5 587.5 c 128,-1,42
 434 606 434 606 456 607.5 c 0,43,44
 488.087 609.688 488.087 609.688 516 597 c 1,45,-1
 516 601 l 1,0,1
EndSplineSet
EndChar

StartChar: d
Encoding: 100 100 8
Width: 872
Flags: HW
LayerCount: 2
Fore
SplineSet
382 272 m 1,0,1
 136.842 -2 136.842 -2 -8 -2 c 0,2,3
 -135 -2 -135 -2 -135 129 c 0,4,5
 -135 280.955 -135 280.955 -10 423 c 1,6,7
 215.051 685 215.051 685 465 685 c 0,8,9
 540.233 685 540.233 685 575.5 639 c 0,10,11
 587 624 587 624 587 611 c 128,-1,12
 587 598 587 598 586.5 594.5 c 128,-1,13
 586 591 586 591 586 586 c 1,14,-1
 1081.5 1297.5 l 1,15,-1
 1292 1595 l 1,16,17
 1329.33 1579 1329.33 1579 1361.17 1579 c 128,-1,18
 1393 1579 1393 1579 1419 1582 c 1,19,-1
 469 250 l 1,20,21
 411 172 411 172 381.5 126.5 c 128,-1,22
 352 81 352 81 352 54.5 c 128,-1,23
 352 28 352 28 377 28 c 0,24,25
 473.792 28 473.792 28 597 117.5 c 0,26,27
 709.993 199.58 709.993 199.58 843.5 364.5 c 0,28,29
 869 396 869 396 879 406 c 1,30,-1
 901 389 l 1,31,32
 890 378 890 378 862.5 345 c 128,-1,33
 835 312 835 312 794.5 269 c 128,-1,34
 754 226 754 226 703.5 178 c 128,-1,35
 653 130 653 130 596.5 90 c 0,36,37
 466.55 -2.00001 466.55 -2.00001 368.275 -2 c 128,-1,38
 270 -2 270 -2 270.89 62.2621 c 128,-1,39
 271.78 126.524 271.78 126.524 390 268 c 1,40,-1
 382 272 l 1,0,1
92 356 m 1,41,42
 -51 182.493 -51 182.493 -51 78 c 0,43,44
 -51 28 -51 28 -1 28 c 0,45,46
 88.1905 28 88.1905 28 247 173 c 1,47,-1
 329 252.5 l 2,48,49
 399.802 322.479 399.802 322.479 444.901 386.239 c 2,50,-1
 534 513 l 1,51,52
 557 559 557 559 557 592 c 128,-1,53
 557 625 557 625 533 639.5 c 128,-1,54
 509 654 509 654 483 654 c 128,-1,55
 457 654 457 654 417.5 636.5 c 128,-1,56
 378 619 378 619 327.5 582.5 c 0,57,58
 218.803 503.937 218.803 503.937 92 356 c 1,41,42
EndSplineSet
EndChar

StartChar: e
Encoding: 101 101 9
Width: 674
Flags: HW
LayerCount: 2
Fore
SplineSet
249.5 20 m 128,-1,1
 176 -6 176 -6 110 -6 c 128,-1,2
 44 -6 44 -6 9.5 7.5 c 128,-1,3
 -25 21 -25 21 -47 45 c 0,4,5
 -140.569 147.075 -140.569 147.075 -46.5 346.5 c 0,6,7
 -5.45475 433.516 -5.45475 433.516 77.7726 506.258 c 128,-1,8
 161 579 161 579 224 615 c 0,9,10
 346.5 685 346.5 685 453 685 c 0,11,12
 558.923 685 558.923 685 564 619 c 0,13,14
 571.347 512.473 571.347 512.473 304.5 386.5 c 0,15,16
 206 340 206 340 57 291 c 1,17,18
 -2 194.914 -2 194.914 -2 134.457 c 128,-1,19
 -2 74 -2 74 29.5 48.5 c 128,-1,20
 61 23 61 23 121.5 23 c 128,-1,21
 182 23 182 23 252.5 49 c 128,-1,22
 323 75 323 75 384.5 115 c 128,-1,23
 446 155 446 155 496 202 c 128,-1,24
 546 249 546 249 584.5 292 c 128,-1,25
 623 335 623 335 647.5 366.5 c 128,-1,26
 672 398 672 398 681 406 c 1,27,-1
 702 389 l 1,28,29
 689 378 689 378 662.5 344 c 128,-1,30
 636 310 636 310 595.5 266.5 c 128,-1,31
 555 223 555 223 502.5 175 c 128,-1,32
 450 127 450 127 386.5 86.5 c 128,-1,0
 323 46 323 46 249.5 20 c 128,-1,1
80 326 m 1,33,34
 381.831 431.797 381.831 431.797 469 537 c 0,35,36
 498 572 498 572 498 605 c 0,37,38
 498 661 498 661 446 661 c 0,39,40
 353.571 661 353.571 661 216 500.5 c 0,41,42
 120 388.5 120 388.5 80 326 c 1,33,34
EndSplineSet
EndChar

StartChar: f
Encoding: 102 102 10
Width: 554
Flags: HW
LayerCount: 2
Fore
SplineSet
-45 144 m 1,0,1
 -72.7197 -216.357 -72.7197 -216.357 -212 -496.5 c 0,2,3
 -302.22 -677.965 -302.22 -677.965 -414.5 -750.5 c 0,4,5
 -471 -787 -471 -787 -521 -787 c 128,-1,6
 -571 -787 -571 -787 -598.5 -759.5 c 128,-1,7
 -626 -732 -626 -732 -627 -697.5 c 128,-1,8
 -628 -663 -628 -663 -622.5 -632 c 128,-1,9
 -617 -601 -617 -601 -598.5 -558.5 c 128,-1,10
 -580 -516 -580 -516 -547.5 -456.5 c 128,-1,11
 -515 -397 -515 -397 -463 -313 c 1,12,-1
 -338 -116.5 l 1,13,-1
 -74 284 l 1,14,15
 -104 331 -104 331 -115 378 c 128,-1,16
 -126 425 -126 425 -121.5 455 c 128,-1,17
 -117 485 -117 485 -100 505.5 c 128,-1,18
 -83 526 -83 526 -58.5 526 c 128,-1,19
 -34 526 -34 526 -18.5 510 c 128,-1,20
 -3 494 -3 494 -3 474 c 128,-1,21
 -3 454 -3 454 -8.5 439.5 c 128,-1,22
 -14 425 -14 425 -23 411.5 c 0,23,24
 -44 380 -44 380 -68 368 c 1,25,26
 -64 346 -64 346 -51 319 c 1,27,-1
 440.5 1080.5 l 2,28,29
 503.916 1178.51 503.916 1178.51 589.458 1285.75 c 128,-1,30
 675 1393 675 1393 735 1453 c 0,31,32
 861 1579 861 1579 935 1579 c 0,33,34
 978 1579 978 1579 999 1554 c 128,-1,35
 1020 1529 1020 1529 1022 1475.5 c 128,-1,36
 1024 1422 1024 1422 984 1327.5 c 128,-1,37
 944 1233 944 1233 874 1126.5 c 128,-1,38
 804 1020 804 1020 710.5 908.5 c 128,-1,39
 617 797 617 797 511.5 692.5 c 0,40,41
 290.452 473.548 290.452 473.548 82 342 c 1,42,-1
 11 232 l 1,43,44
 58.8007 190.718 58.8007 190.718 136.4 185.859 c 128,-1,45
 214 181 214 181 284 202.5 c 128,-1,46
 354 224 354 224 407 258.5 c 0,47,48
 479.104 305.436 479.104 305.436 560 405 c 1,49,-1
 583 389 l 1,50,51
 572 379 572 379 553 356 c 128,-1,52
 534 333 534 333 505.5 305.5 c 128,-1,53
 477 278 477 278 439.5 249.5 c 128,-1,54
 402 221 402 221 354.5 199 c 0,55,56
 247.012 149.216 247.012 149.216 121 162 c 0,57,58
 49.4247 169.534 49.4247 169.534 -4 208 c 1,59,-1
 -45 144 l 1,0,1
118 398 m 1,60,61
 407.12 594.937 407.12 594.937 688.5 945 c 0,62,63
 894.382 1201.14 894.382 1201.14 957 1387.5 c 0,64,65
 996.001 1503.58 996.001 1503.58 962 1541.5 c 0,66,67
 949 1556 949 1556 931.5 1556 c 128,-1,68
 914 1556 914 1556 892 1542.5 c 128,-1,69
 870 1529 870 1529 838.5 1494.5 c 0,70,71
 774.545 1424.45 774.545 1424.45 682.773 1279.73 c 2,72,-1
 118 398 l 1,60,61
-78 94 m 1,73,-1
 -415 -421.5 l 1,74,-1
 -495 -554 l 1,75,76
 -567 -678.941 -567 -678.941 -567 -720 c 0,77,78
 -567 -737 -567 -737 -554.5 -749.5 c 128,-1,79
 -542 -762 -542 -762 -517.5 -762 c 128,-1,80
 -493 -762 -493 -762 -452.5 -734 c 128,-1,81
 -412 -706 -412 -706 -366.5 -654 c 128,-1,82
 -321 -602 -321 -602 -274.5 -526.5 c 128,-1,83
 -228 -451 -228 -451 -188.5 -356 c 0,84,85
 -100.301 -143.875 -100.301 -143.875 -78 94 c 1,73,-1
EndSplineSet
EndChar

StartChar: g
Encoding: 103 103 11
Width: 918
Flags: HW
LayerCount: 2
Fore
SplineSet
204 -168 m 1,0,1
 623.946 43.9726 623.946 43.9726 925 406 c 1,2,-1
 945 389 l 1,3,4
 625.562 3.47124 625.562 3.47124 166 -214 c 1,5,-1
 -12 -427 l 1,6,7
 -236.785 -683.084 -236.785 -683.084 -378.5 -747.5 c 0,8,9
 -465.4 -787 -465.4 -787 -579 -787 c 0,10,11
 -642.13 -787 -642.13 -787 -670.5 -743.5 c 0,12,13
 -689.015 -715.111 -689.015 -715.111 -671.007 -673.555 c 128,-1,14
 -653 -632 -653 -632 -621.5 -598 c 128,-1,15
 -590 -564 -590 -564 -537 -525 c 128,-1,16
 -484 -486 -484 -486 -405 -441 c 0,17,18
 -243.361 -348.927 -243.361 -348.927 31 -233 c 1,19,-1
 434 268 l 1,20,-1
 426 272 l 1,21,22
 243.392 64.4915 243.392 64.4915 97.5 13 c 0,23,24
 55 -2 55 -2 24 -2 c 0,25,26
 -96.7742 -2 -96.7742 -2 -101 129 c 1,27,28
 -101 283.547 -101 283.547 18 423 c 1,29,30
 232.974 685 232.974 685 486 685 c 0,31,32
 552 685 552 685 590.5 663 c 0,33,34
 651.628 628.07 651.628 628.07 618 544 c 1,35,-1
 712 665 l 1,36,37
 741.333 657 741.333 657 764.667 657 c 0,38,39
 823 657 823 657 849 661 c 1,40,-1
 204 -168 l 1,0,1
602 594 m 1,41,42
 600.065 654 600.065 654 512 654 c 0,43,44
 417.735 654 417.735 654 244.5 489.5 c 0,45,46
 185 433 185 433 117 348.5 c 0,47,48
 -20.0458 178.2 -20.0458 178.2 -18 80 c 1,49,50
 -16 51 -16 51 -5 39.5 c 128,-1,51
 6 28 6 28 32.5 28 c 128,-1,52
 59 28 59 28 101 44.5 c 128,-1,53
 143 61 143 61 197 99.5 c 0,54,55
 322.193 188.758 322.193 188.758 461 351 c 1,56,-1
 539 446 l 1,57,58
 602 537.875 602 537.875 602 594 c 1,41,42
-4 -276 m 1,59,60
 -515.383 -499.73 -515.383 -499.73 -611 -630.5 c 0,61,62
 -645 -677 -645 -677 -645 -720 c 0,63,64
 -645 -731 -645 -731 -626.5 -745.5 c 128,-1,65
 -608 -760 -608 -760 -575 -760 c 128,-1,66
 -542 -760 -542 -760 -509 -751.5 c 128,-1,67
 -476 -743 -476 -743 -440 -722.5 c 128,-1,68
 -404 -702 -404 -702 -362 -666.5 c 128,-1,69
 -320 -631 -320 -631 -267.5 -577.5 c 128,-1,70
 -215 -524 -215 -524 -150.5 -449.5 c 1,71,-1
 -4 -276 l 1,59,60
EndSplineSet
EndChar

StartChar: h
Encoding: 104 104 12
Width: 907
Flags: HW
LayerCount: 2
Fore
SplineSet
-114 19 m 1,0,1
 -140.667 24 -140.667 24 -174.333 24 c 0,2,3
 -231.333 24 -231.333 24 -268 14 c 1,4,-1
 839 1595 l 1,5,6
 905.926 1584.7 905.926 1584.7 978 1595 c 1,7,-1
 -14 218 l 1,8,-1
 -9 207 l 1,9,10
 67 295 67 295 132 363 c 1,11,-1
 251 483 l 1,12,13
 353.375 581.583 353.375 581.583 416.188 622.792 c 0,14,15
 511.01 685 511.01 685 596 685 c 256,16,17
 685.389 685 685.389 685 708.5 621 c 0,18,19
 753.386 496.699 753.386 496.699 427 147 c 1,20,-1
 387.5 103.5 l 2,21,22
 356 67.6552 356 67.6552 356 49 c 0,23,24
 356 39 356 39 378 32.5 c 128,-1,25
 400 26 400 26 440 26 c 128,-1,26
 480 26 480 26 534 51.5 c 128,-1,27
 588 77 588 77 639 116 c 128,-1,28
 690 155 690 155 736 202 c 128,-1,29
 782 249 782 249 818.5 291 c 128,-1,30
 855 333 855 333 880 365 c 128,-1,31
 905 397 905 397 914 406 c 1,32,-1
 936 389 l 1,33,34
 926 378 926 378 899.5 345 c 128,-1,35
 873 312 873 312 834.5 268.5 c 128,-1,36
 796 225 796 225 747.5 177 c 128,-1,37
 699 129 699 129 644.5 89.5 c 0,38,39
 518.253 -1.99999 518.253 -1.99999 415 -2 c 0,40,41
 332.571 -2 332.571 -2 294 43 c 0,42,43
 282 57 282 57 282 76 c 128,-1,44
 282 95 282 95 287.5 119.5 c 128,-1,45
 293 144 293 144 315 181.5 c 0,46,47
 365.792 268.078 365.792 268.078 449.896 362.539 c 128,-1,48
 534 457 534 457 561 491 c 128,-1,49
 588 525 588 525 604 550.5 c 0,50,51
 634 598.312 634 598.312 634 624 c 0,52,53
 634 660 634 660 587 660 c 0,54,55
 524.419 660 524.419 660 441.71 604.5 c 0,56,57
 243.459 471.47 243.459 471.47 -22 141 c 1,58,-1
 -114 19 l 1,0,1
EndSplineSet
EndChar

StartChar: i
Encoding: 105 105 13
Width: 453
Flags: HW
LayerCount: 2
Fore
SplineSet
497 883.5 m 128,-1,1
 479 876 479 876 456 876 c 128,-1,2
 433 876 433 876 416.5 893.5 c 128,-1,3
 400 911 400 911 400 933 c 128,-1,4
 400 955 400 955 408 972 c 128,-1,5
 416 989 416 989 429.5 1002.5 c 0,6,7
 459 1032 459 1032 493.5 1032 c 128,-1,8
 528 1032 528 1032 544.5 1013.5 c 128,-1,9
 561 995 561 995 561 973 c 128,-1,10
 561 951 561 951 552.5 934 c 128,-1,11
 544 917 544 917 529.5 904 c 128,-1,0
 515 891 515 891 497 883.5 c 128,-1,1
-47 26 m 128,-1,13
 12 26 12 26 64.5 53 c 128,-1,14
 117 80 117 80 170.5 120.5 c 128,-1,15
 224 161 224 161 274 209 c 1,16,-1
 364 299 l 1,17,18
 404 341 404 341 430 371.5 c 128,-1,19
 456 402 456 402 461 407 c 1,20,-1
 481 389 l 1,21,22
 471 379 471 379 443.5 346.5 c 128,-1,23
 416 314 416 314 375 270.5 c 128,-1,24
 334 227 334 227 283 179 c 128,-1,25
 232 131 232 131 176.5 91 c 0,26,27
 47.4625 -2 47.4625 -2 -50 -2 c 0,28,29
 -112 -2 -112 -2 -149 20.5 c 128,-1,30
 -186 43 -186 43 -186 72 c 128,-1,31
 -186 101 -186 101 -180 124 c 128,-1,32
 -174 147 -174 147 -158 179 c 128,-1,33
 -142 211 -142 211 -113.5 254 c 128,-1,34
 -85 297 -85 297 -39.5 357 c 128,-1,35
 6 417 6 417 71 495.5 c 2,36,-1
 225 678 l 1,37,38
 237 675 237 675 274.5 675 c 2,39,-1
 321 675 l 2,40,41
 347 675 347 675 363 677 c 1,42,43
 32.2424 282.333 32.2424 282.333 -9.37879 227.667 c 128,-1,44
 -51 173 -51 173 -71 142.5 c 0,45,46
 -106 89.125 -106 89.125 -106 57.5625 c 128,-1,12
 -106 26 -106 26 -47 26 c 128,-1,13
EndSplineSet
EndChar

StartChar: j
Encoding: 106 106 14
Width: 382
Flags: HW
LayerCount: 2
Fore
SplineSet
442 883.5 m 128,-1,1
 424 876 424 876 401.5 876 c 128,-1,2
 379 876 379 876 362 893.5 c 128,-1,3
 345 911 345 911 345 933 c 128,-1,4
 345 955 345 955 353 972 c 128,-1,5
 361 989 361 989 375 1002.5 c 0,6,7
 405.593 1032 405.593 1032 439.796 1032 c 128,-1,8
 474 1032 474 1032 490 1013.5 c 128,-1,9
 506 995 506 995 506 973 c 128,-1,10
 506 951 506 951 497.5 934 c 128,-1,11
 489 917 489 917 474.5 904 c 128,-1,0
 460 891 460 891 442 883.5 c 128,-1,1
171 677 m 1,12,13
 181 675 181 675 209 675 c 0,14,15
 243.5 675 243.5 675 269.25 675 c 0,16,17
 313 675 313 675 327 677 c 1,18,-1
 -179 24.5 l 1,19,-1
 -328 -160 l 1,20,21
 -71.1131 -36.1991 -71.1131 -36.1991 68 72 c 0,22,23
 175.062 155.271 175.062 155.271 253.031 243.635 c 128,-1,24
 331 332 331 332 390 406 c 1,25,-1
 410 389 l 1,26,27
 228.473 161.371 228.473 161.371 63.5 38 c 0,28,29
 -50.576 -47.309 -50.576 -47.309 -162.288 -104.655 c 1,30,-1
 -365 -205 l 1,31,32
 -573.358 -455.03 -573.358 -455.03 -677.179 -550.015 c 128,-1,33
 -781 -645 -781 -645 -840.5 -685.5 c 128,-1,34
 -900 -726 -900 -726 -954.5 -748.5 c 0,35,36
 -1047.76 -787 -1047.76 -787 -1170 -787 c 0,37,38
 -1232.7 -787 -1232.7 -787 -1253.5 -743.5 c 0,39,40
 -1259 -732 -1259 -732 -1259 -705.5 c 128,-1,41
 -1259 -679 -1259 -679 -1225 -631.5 c 128,-1,42
 -1191 -584 -1191 -584 -1107 -526 c 0,43,44
 -936.565 -408.319 -936.565 -408.319 -523 -236 c 1,45,-1
 -137.5 250 l 1,46,47
 99.9414 562.756 99.9414 562.756 134.971 614.378 c 128,-1,48
 170 666 170 666 171 677 c 1,12,13
-557 -277 m 1,49,50
 -924.189 -434.075 -924.189 -434.075 -1072 -532 c 0,51,52
 -1226 -634.025 -1226 -634.025 -1226 -720 c 0,53,54
 -1226 -731 -1226 -731 -1212.5 -745.5 c 128,-1,55
 -1199 -760 -1199 -760 -1165 -760 c 128,-1,56
 -1131 -760 -1131 -760 -1096 -753 c 128,-1,57
 -1061 -746 -1061 -746 -1022.5 -727.5 c 128,-1,58
 -984 -709 -984 -709 -939 -675.5 c 128,-1,59
 -894 -642 -894 -642 -838 -588.5 c 128,-1,60
 -782 -535 -782 -535 -713 -458.5 c 1,61,-1
 -557 -277 l 1,49,50
EndSplineSet
EndChar

StartChar: k
Encoding: 107 107 15
Width: 861
Flags: HW
LayerCount: 2
Fore
SplineSet
839 1595 m 1,0,1
 905.24 1583.96 905.24 1583.96 977 1595 c 1,2,-1
 154.5 449.5 l 1,3,4
 -80.4533 109.747 -80.4533 109.747 -139 19 c 1,5,6
 -166.5 24 -166.5 24 -184.75 24 c 128,-1,7
 -203 24 -203 24 -213 23 c 128,-1,8
 -223 22 -223 22 -233.5 20.5 c 128,-1,9
 -244 19 -244 19 -253 17 c 128,-1,10
 -262 15 -262 15 -268 14 c 1,11,-1
 839 1595 l 1,0,1
323 57 m 0,12,13
 323 26 323 26 372 26 c 128,-1,14
 421 26 421 26 477 53.5 c 128,-1,15
 533 81 533 81 587.5 122 c 128,-1,16
 642 163 642 163 691.5 211.5 c 128,-1,17
 741 260 741 260 779.5 302 c 0,18,19
 838.625 366.5 838.625 366.5 869 407 c 1,20,-1
 889 389 l 1,21,22
 885 385 885 385 859.5 355 c 128,-1,23
 834 325 834 325 793.5 281.5 c 128,-1,24
 753 238 753 238 700.5 188.5 c 128,-1,25
 648 139 648 139 590.5 96.5 c 0,26,27
 457.235 -2 457.235 -2 359 -2 c 0,28,29
 259 -2 259 -2 259 105 c 0,30,31
 259 194.389 259 194.389 381 313 c 1,32,33
 430 363.69 430 363.69 430 382.345 c 0,34,35
 430 421.577 430 421.577 371 442 c 1,36,37
 312.174 409 312.174 409 266.587 409 c 0,38,39
 192 409 192 409 192 440 c 0,40,41
 192 458 192 458 220.5 472 c 128,-1,42
 249 486 249 486 290.5 486 c 128,-1,43
 332 486 332 486 370 475 c 1,44,45
 401.727 490.864 401.727 490.864 420.364 510.432 c 0,46,47
 463.739 556.375 463.739 556.375 500.87 601.187 c 128,-1,48
 538 646 538 646 571.5 675.5 c 0,49,50
 649.288 744 649.288 744 727 744 c 0,51,52
 775 744 775 744 804.5 719 c 128,-1,53
 834 694 834 694 833 659 c 128,-1,54
 832 624 832 624 811 608 c 128,-1,55
 790 592 790 592 765 592 c 128,-1,56
 740 592 740 592 721.5 609 c 128,-1,57
 703 626 703 626 704.5 648.5 c 0,58,59
 707.281 690.212 707.281 690.212 745 702 c 1,60,61
 730 714 730 714 706.5 714 c 128,-1,62
 683 714 683 714 660.5 705.5 c 128,-1,63
 638 697 638 697 611.5 676 c 0,64,65
 559.423 634.731 559.423 634.731 480 534 c 1,66,67
 443.057 491.516 443.057 491.516 403 462 c 1,68,69
 498 417.667 498 417.667 498 332 c 0,70,71
 498 261.852 498 261.852 434 186 c 0,72,73
 407 154 407 154 375.5 125 c 0,74,75
 323 76.6667 323 76.6667 323 57 c 0,12,13
EndSplineSet
EndChar

StartChar: l
Encoding: 108 108 16
Width: 456
Flags: HW
LayerCount: 2
Fore
SplineSet
-97 59 m 0,0,1
 -97 26 -97 26 -49 26 c 128,-1,2
 -1 26 -1 26 53.5 51.5 c 128,-1,3
 108 77 108 77 161.5 116 c 128,-1,4
 215 155 215 155 265 201.5 c 128,-1,5
 315 248 315 248 356 290.5 c 1,6,-1
 425 364.5 l 1,7,8
 453 396 453 396 463 406 c 1,9,-1
 483 389 l 1,10,11
 472 378 472 378 442.5 345 c 128,-1,12
 413 312 413 312 370.5 269 c 128,-1,13
 328 226 328 226 275.5 178 c 128,-1,14
 223 130 223 130 165.5 90 c 0,15,16
 33.25 -2 33.25 -2 -67 -2 c 0,17,18
 -109 -2 -109 -2 -136.5 21 c 128,-1,19
 -164 44 -164 44 -164 70.5 c 128,-1,20
 -164 97 -164 97 -161.5 113 c 128,-1,21
 -159 129 -159 129 -151 149.5 c 128,-1,22
 -143 170 -143 170 -128 197.5 c 128,-1,23
 -113 225 -113 225 -87.5 264.5 c 1,24,-1
 65 490 l 1,25,-1
 838 1595 l 1,26,27
 910.074 1584.7 910.074 1584.7 977 1595 c 1,28,29
 23.1059 268.943 23.1059 268.943 -10.9471 218.471 c 128,-1,30
 -45 168 -45 168 -61 142.5 c 128,-1,31
 -77 117 -77 117 -85 101 c 0,32,33
 -97 77 -97 77 -97 59 c 0,0,1
EndSplineSet
EndChar

StartChar: m
Encoding: 109 109 17
Width: 1435
Flags: HW
LayerCount: 2
Fore
SplineSet
35 19 m 1,0,1
 11.6667 24 11.6667 24 -23.1667 24 c 0,2,3
 -83.6667 24 -83.6667 24 -117 14 c 1,4,-1
 230 509.5 l 2,5,6
 295.035 601.246 295.035 601.246 297.018 617.623 c 0,7,8
 301.058 651 301.058 651 276 651 c 0,9,10
 238.703 651 238.703 651 91.5 467.5 c 2,11,-1
 28 389 l 1,12,13
 20 385 20 385 11.5 393.5 c 128,-1,14
 3 402 3 402 7 406 c 0,15,16
 36 437 36 437 72.5 484.5 c 128,-1,17
 109 532 109 532 149 576.5 c 0,18,19
 246.528 685 246.528 685 312 685 c 0,20,21
 421.531 685 421.531 685 382.5 572.5 c 0,22,23
 374 548 374 548 347 510 c 2,24,-1
 137 218 l 1,25,-1
 142 207 l 1,26,27
 410.641 517.855 410.641 517.855 537 609 c 1,28,29
 637.182 685 637.182 685 722 685 c 0,30,31
 780.357 685 780.357 685 813.5 653 c 0,32,33
 841.223 626.233 841.223 626.233 839.611 596.117 c 128,-1,34
 838 566 838 566 835.5 550.5 c 128,-1,35
 833 535 833 535 827.5 519 c 0,36,37
 816.245 486.257 816.245 486.257 786 439 c 1,38,39
 999.528 657.273 999.528 657.273 1110.5 680.5 c 0,40,41
 1132 685 1132 685 1158.5 685 c 128,-1,42
 1185 685 1185 685 1207.5 676 c 128,-1,43
 1230 667 1230 667 1244 653 c 0,44,45
 1270 627 1270 627 1269.5 590.5 c 128,-1,46
 1269 554 1269 554 1255.5 516 c 128,-1,47
 1242 478 1242 478 1209.5 426 c 0,48,49
 1142.63 319.009 1142.63 319.009 984 147 c 1,50,51
 917.818 78.2727 917.818 78.2727 914.909 66.6364 c 128,-1,52
 912 55 912 55 912 49 c 1,53,-1
 905 48 l 1,54,55
 905 24 905 24 962 24 c 128,-1,56
 1019 24 1019 24 1066.5 49.5 c 128,-1,57
 1114 75 1114 75 1163 114.5 c 128,-1,58
 1212 154 1212 154 1258.5 201 c 128,-1,59
 1305 248 1305 248 1343 290.5 c 2,60,-1
 1407 364.5 l 2,61,62
 1433 396 1433 396 1442 406 c 1,63,-1
 1463 389 l 1,64,65
 1453 379 1453 379 1425.5 345.5 c 128,-1,66
 1398 312 1398 312 1358.5 268 c 128,-1,67
 1319 224 1319 224 1270 176 c 128,-1,68
 1221 128 1221 128 1169 88 c 0,69,70
 1048.1 -5.00002 1048.1 -5.00002 966 -5 c 0,71,72
 879.143 -5 879.143 -5 843 41 c 0,73,74
 832 55 832 55 832 74 c 128,-1,75
 832 93 832 93 838.5 118 c 128,-1,76
 845 143 845 143 867.5 181 c 0,77,78
 913.655 258.951 913.655 258.951 1001.83 357.976 c 128,-1,79
 1090 457 1090 457 1116.5 491 c 128,-1,80
 1143 525 1143 525 1159.5 550.5 c 0,81,82
 1191 599.182 1191 599.182 1191 624 c 0,83,84
 1191 660 1191 660 1140 660 c 0,85,86
 1039.99 660 1039.99 660 794 410.5 c 0,87,88
 689 304 689 304 560 141 c 1,89,-1
 467 19 l 1,90,91
 443.667 24 443.667 24 409.333 24 c 0,92,93
 351.667 24 351.667 24 315 14 c 1,94,95
 463.19 194.93 463.19 194.93 477.595 213.965 c 0,96,97
 703.237 510.986 703.237 510.986 726.618 550.493 c 0,98,99
 760 606.897 760 606.897 760 629 c 0,100,101
 760 660 760 660 711 660 c 0,102,103
 646.286 660 646.286 660 558.643 590 c 0,104,105
 376.03 444.148 376.03 444.148 128 141 c 1,106,-1
 35 19 l 1,0,1
EndSplineSet
EndChar

StartChar: n
Encoding: 110 110 18
Width: 1042
Flags: HW
LayerCount: 2
Fore
SplineSet
36 19 m 1,0,1
 9.33333 24 9.33333 24 -24.3333 24 c 0,2,3
 -77 24 -77 24 -117 14 c 1,4,-1
 230 509.5 l 2,5,6
 295.035 601.246 295.035 601.246 297.018 617.623 c 0,7,8
 301.058 651 301.058 651 276 651 c 0,9,10
 238.703 651 238.703 651 91.5 467.5 c 2,11,-1
 28 389 l 1,12,13
 20 385 20 385 11.5 393.5 c 128,-1,14
 3 402 3 402 7 406 c 0,15,16
 36 437 36 437 72.5 484.5 c 128,-1,17
 109 532 109 532 149 576.5 c 0,18,19
 246.528 685 246.528 685 312 685 c 0,20,21
 421.531 685 421.531 685 382.5 572.5 c 0,22,23
 374 548 374 548 347 510 c 2,24,-1
 137 218 l 1,25,-1
 142 207 l 1,26,27
 394.404 483.316 394.404 483.316 499.5 571.5 c 0,28,29
 600.735 656.444 600.735 656.444 650.367 670.722 c 128,-1,30
 700 685 700 685 731.5 685 c 128,-1,31
 763 685 763 685 785.5 676 c 128,-1,32
 808 667 808 667 822 653 c 0,33,34
 848 627 848 627 847.5 590.5 c 128,-1,35
 847 554 847 554 833.5 516 c 128,-1,36
 820 478 820 478 787.5 426 c 0,37,38
 720.631 319.009 720.631 319.009 562 147 c 1,39,40
 495.818 78.2727 495.818 78.2727 492.909 66.6364 c 128,-1,41
 490 55 490 55 490 49 c 0,42,43
 490 26 490 26 551.5 26 c 128,-1,44
 613 26 613 26 666.5 51.5 c 128,-1,45
 720 77 720 77 771.5 116 c 128,-1,46
 823 155 823 155 869.5 201.5 c 128,-1,47
 916 248 916 248 953 290.5 c 128,-1,48
 990 333 990 333 1015 364.5 c 128,-1,49
 1040 396 1040 396 1049 406 c 1,50,-1
 1070 389 l 1,51,52
 1060 378 1060 378 1034 345 c 128,-1,53
 1008 312 1008 312 969.5 269 c 128,-1,54
 931 226 931 226 882.5 178 c 128,-1,55
 834 130 834 130 779.5 90 c 0,56,57
 654.15 -1.99998 654.15 -1.99998 552 -2 c 0,58,59
 462.357 -2 462.357 -2 427 43 c 0,60,61
 416 57 416 57 416 76 c 128,-1,62
 416 95 416 95 421.5 119.5 c 128,-1,63
 427 144 427 144 448.5 181.5 c 0,64,65
 495.158 262.879 495.158 262.879 581.579 359.94 c 128,-1,66
 668 457 668 457 695 491 c 128,-1,67
 722 525 722 525 738 550.5 c 0,68,69
 768 598.312 768 598.312 768 624 c 0,70,71
 768 660 768 660 720 660 c 0,72,73
 621.467 660 621.467 660 393 436.5 c 0,74,75
 278 324 278 324 129 141 c 1,76,-1
 36 19 l 1,0,1
EndSplineSet
EndChar

StartChar: o
Encoding: 111 111 19
Width: 734
Flags: HW
LayerCount: 2
Fore
SplineSet
449.938 161 m 0,0,1
 412.875 161 412.875 161 396 191 c 1,2,3
 277.099 56.0312 277.099 56.0312 139 12.5 c 0,4,5
 93 -2 93 -2 49.5 -2 c 128,-1,6
 6 -2 6 -2 -25 8 c 128,-1,7
 -56 18 -56 18 -76.5 36 c 0,8,9
 -156.583 106.317 -156.583 106.317 -92 277 c 0,10,11
 -66.625 344.062 -66.625 344.062 -27.3125 402.031 c 128,-1,12
 12 460 12 460 61.5 509.5 c 128,-1,13
 111 559 111 559 168.5 598 c 0,14,15
 296.769 685 296.769 685 420 685 c 0,16,17
 473 685 473 685 511.5 657.5 c 128,-1,18
 550 630 550 630 553 578.5 c 128,-1,19
 556 527 556 527 547 482 c 128,-1,20
 538 437 538 437 520 391.5 c 0,21,22
 484 300.5 484 300.5 418 218 c 1,23,24
 424.692 189 424.692 189 456.346 189 c 128,-1,25
 488 189 488 189 516.5 203.5 c 128,-1,26
 545 218 545 218 573.5 239.5 c 128,-1,27
 602 261 602 261 629.5 287.5 c 128,-1,28
 657 314 657 314 679.5 338 c 2,29,-1
 718 380.5 l 2,30,31
 734 399 734 399 741 406 c 1,32,-1
 763 389 l 1,33,34
 750 377 750 377 730 355 c 128,-1,35
 710 333 710 333 685 308 c 2,36,37
 631.5 256.5 l 1,38,39
 528.792 161 528.792 161 449.938 161 c 0,0,1
35 36.5 m 0,40,41
 51 28 51 28 80 28 c 0,42,43
 145.242 28 145.242 28 247 101 c 0,44,45
 325.415 157.298 325.415 157.298 386 230 c 1,46,-1
 386 234 l 2,47,48
 386 319.206 386 319.206 450 362.5 c 0,49,50
 467 374 467 374 482 379 c 1,51,52
 530.139 481.295 530.139 481.295 526.569 546.147 c 0,53,54
 520.909 649 520.909 649 451 649 c 0,55,56
 332.8 649 332.8 649 120 383 c 0,57,58
 -17.1403 210.648 -17.1403 210.648 -9 115 c 1,59,60
 -9 59.875 -9 59.875 35 36.5 c 0,40,41
EndSplineSet
EndChar

StartChar: p
Encoding: 112 112 20
Width: 858
Flags: HW
LayerCount: 2
Fore
SplineSet
367 -2 m 0,0,1
 251 -2 251 -2 251 97 c 0,2,3
 251 246.733 251 246.733 580 488 c 0,4,5
 693.607 570.624 693.607 570.624 705.5 608 c 0,6,7
 709 619 709 619 709 629.5 c 128,-1,8
 709 640 709 640 698.5 650 c 128,-1,9
 688 660 688 660 654 660 c 0,10,11
 497.17 660 497.17 660 167 353 c 1,12,13
 13.1742 204.619 13.1742 204.619 -46.9129 138.81 c 1,14,-1
 -153 19 l 1,15,16
 -195 -36 -195 -36 -245.5 -109 c 1,17,-1
 -449.5 -414 l 1,18,-1
 -602.5 -653.5 l 2,19,20
 -628 -694 -628 -694 -632 -701 c 1,21,22
 -661.333 -709 -661.333 -709 -696.667 -709 c 128,-1,23
 -732 -709 -732 -709 -741.5 -708.5 c 128,-1,24
 -751 -708 -751 -708 -761.5 -707 c 0,25,26
 -781 -705.143 -781 -705.143 -799 -700 c 1,27,-1
 -288.5 -5.5 l 1,28,-1
 36.5 450.5 l 1,29,-1
 430 977 l 1,30,31
 484 971 484 971 511 971 c 0,32,33
 561.4 971 561.4 971 581 978 c 1,34,-1
 259 584.5 l 1,35,-1
 21 266 l 1,36,-1
 28 258 l 1,37,38
 339.005 557.12 339.005 557.12 487 634 c 0,39,40
 563.476 673.901 563.476 673.901 600.738 679.45 c 128,-1,41
 638 685 638 685 668 685 c 0,42,43
 763 685 763 685 763 602 c 0,44,45
 763 438.417 763 438.417 462 227 c 1,46,47
 326.77 129.634 326.77 129.634 308.5 94.5 c 0,48,49
 302 82 302 82 302 71 c 0,50,51
 302 26 302 26 373 26 c 0,52,53
 544.96 26 544.96 26 812.5 344.5 c 1,54,-1
 865 406 l 1,55,-1
 887 389 l 1,56,-1
 835 329 l 1,57,58
 556.263 -1.99998 556.263 -1.99998 367 -2 c 0,0,1
EndSplineSet
EndChar

StartChar: q
Encoding: 113 113 21
Width: 876
Flags: HW
LayerCount: 2
Fore
SplineSet
-277 -787 m 0,0,1
 -344 -787 -344 -787 -344 -715 c 0,2,3
 -344 -540.446 -344 -540.446 -17.5 -146.5 c 0,4,5
 89 -18 89 -18 229 126 c 1,6,7
 143 58 143 58 71.5 28 c 128,-1,8
 0 -2 0 -2 -41 -2 c 0,9,10
 -163 -2 -163 -2 -163 127 c 0,11,12
 -163 275.108 -163 275.108 -41 414 c 1,13,14
 138.377 620.556 138.377 620.556 321.5 658.5 c 0,15,16
 377 670 377 670 431 670 c 0,17,18
 554 670 554 670 554 571 c 0,19,20
 554 535 554 535 543 502 c 1,21,22
 583 551 583 551 608.5 585 c 2,23,-1
 658 650 l 1,24,25
 673.75 643 673.75 643 701.875 643 c 0,26,27
 764 643 764 643 790 645 c 1,28,29
 525.108 315.909 525.108 315.909 469 251 c 2,30,-1
 350 115 l 1,31,32
 357 97 357 97 359 69 c 1,33,34
 364 49 364 49 385.5 36.5 c 128,-1,35
 407 24 407 24 440.5 24 c 128,-1,36
 474 24 474 24 520 49.5 c 128,-1,37
 566 75 566 75 613.5 114.5 c 128,-1,38
 661 154 661 154 706 201 c 128,-1,39
 751 248 751 248 787.5 290.5 c 1,40,-1
 882 406 l 1,41,-1
 904 389 l 1,42,-1
 869.5 345 l 1,43,44
 682.907 103.527 682.907 103.527 531.5 24 c 0,45,46
 482 -2 482 -2 431.9 -2 c 128,-1,47
 381.8 -2 381.8 -2 351 31 c 1,48,49
 280.567 -285.948 280.567 -285.948 80 -540 c 0,50,51
 -42.276 -694.883 -42.276 -694.883 -164.5 -756.5 c 0,52,53
 -225 -787 -225 -787 -277 -787 c 0,0,1
59 347 m 1,54,55
 -81 176.315 -81 176.315 -81 77 c 0,56,57
 -81 28 -81 28 -36 28 c 0,58,59
 88.3884 28 88.3884 28 272.5 195.5 c 0,60,61
 339 256 339 256 385 311 c 0,62,63
 465.793 407.305 465.793 407.305 481.896 429.152 c 0,64,65
 529 493.057 529 493.057 529 580 c 0,66,67
 529 622.926 529 622.926 481.5 637 c 0,68,69
 468 641 468 641 449.5 641 c 128,-1,70
 431 641 431 641 390.5 623.5 c 128,-1,71
 350 606 350 606 297.5 570 c 0,72,73
 177.491 487.708 177.491 487.708 59 347 c 1,54,55
-312 -732 m 0,74,75
 -312 -765 -312 -765 -276.5 -765 c 128,-1,76
 -241 -765 -241 -765 -187.5 -731.5 c 128,-1,77
 -134 -698 -134 -698 -74 -640 c 128,-1,78
 -14 -582 -14 -582 48.5 -503 c 128,-1,79
 111 -424 111 -424 166.5 -332.5 c 0,80,81
 289.336 -129.986 289.336 -129.986 329 57 c 0,82,83
 333 79 333 79 329 91 c 1,84,-1
 58.5 -226.5 l 1,85,86
 -218.552 -564.784 -218.552 -564.784 -265.276 -639.392 c 128,-1,87
 -312 -714 -312 -714 -312 -732 c 0,74,75
EndSplineSet
EndChar

StartChar: r
Encoding: 114 114 22
Width: 684
Flags: HW
LayerCount: 2
Fore
SplineSet
212.5 32 m 128,-1,1
 252 32 252 32 299.5 56 c 128,-1,2
 347 80 347 80 396.5 117 c 128,-1,3
 446 154 446 154 493.5 199 c 1,4,-1
 581 285.5 l 1,5,6
 621 327 621 327 650 360 c 2,7,-1
 691 406 l 1,8,-1
 711 389 l 1,9,10
 692 372 692 372 660.5 336 c 2,11,-1
 588 256.5 l 1,12,13
 344.356 -2.00001 344.356 -2.00001 168 -2 c 256,14,15
 111 -2 111 -2 76.5 26 c 128,-1,16
 42 54 42 54 42 101 c 0,17,18
 42 250.22 42 250.22 476 541 c 1,19,20
 264.035 575.985 264.035 575.985 183 612 c 1,21,22
 116.527 475.73 116.527 475.73 -20.5 335 c 0,23,24
 -52.3677 302.271 -52.3677 302.271 -59.6839 299.135 c 128,-1,25
 -67 296 -67 296 -69 294.5 c 128,-1,26
 -71 293 -71 293 -72 300 c 128,-1,27
 -73 307 -73 307 -72 310.5 c 128,-1,28
 -71 314 -71 314 -68 317.5 c 0,29,30
 -20.75 371.312 -20.75 371.312 18.625 420.156 c 0,31,32
 112.1 536.11 112.1 536.11 156 626 c 1,33,34
 120 649 120 649 115 675 c 128,-1,35
 110 701 110 701 115.5 723.5 c 128,-1,36
 121 746 121 746 133 764 c 0,37,38
 159 803 159 803 193 803 c 0,39,40
 256 803 256 803 256 757 c 0,41,42
 256 734 256 734 247 718 c 2,43,-1
 229 687 l 1,44,45
 211 664.5 211 664.5 211 634 c 0,46,47
 211 615.97 211 615.97 287.5 599.985 c 128,-1,48
 364 584 364 584 396.5 578 c 0,49,50
 466.086 565.153 466.086 565.153 507 563 c 256,51,52
 535 561.526 535 561.526 535 548 c 0,53,54
 535 538.562 535 538.562 502.5 512.781 c 128,-1,55
 470 487 470 487 431 450 c 128,-1,56
 392 413 392 413 355 372.5 c 128,-1,57
 318 332 318 332 285 290 c 128,-1,58
 252 248 252 248 227 209 c 0,59,60
 173 124.76 173 124.76 173 78.38 c 128,-1,0
 173 32 173 32 212.5 32 c 128,-1,1
EndSplineSet
EndChar

StartChar: s
Encoding: 115 115 23
Width: 596
Flags: HW
LayerCount: 2
Fore
SplineSet
308 184 m 1,0,1
 320 182 320 182 338.5 182 c 128,-1,2
 357 182 357 182 383 196 c 128,-1,3
 409 210 409 210 436.5 232 c 128,-1,4
 464 254 464 254 491 280.5 c 128,-1,5
 518 307 518 307 540.5 331.5 c 128,-1,6
 563 356 563 356 579.5 376.5 c 2,7,-1
 603 406 l 1,8,-1
 625 389 l 1,9,10
 613 377 613 377 594 355.5 c 2,11,-1
 551.5 308.5 l 1,12,13
 412.804 158 412.804 158 332 158 c 2,14,-1
 315 158 l 2,15,16
 307 158 307 158 299 160 c 1,17,18
 214.538 -23 214.538 -23 -58 -23 c 0,19,20
 -177.02 -23 -177.02 -23 -231 34.5 c 0,21,22
 -254 59 -254 59 -254 98 c 128,-1,23
 -254 137 -254 137 -235.5 164.5 c 128,-1,24
 -217 192 -217 192 -191.5 210.5 c 0,25,26
 -141.189 247 -141.189 247 -100.595 247 c 128,-1,27
 -60 247 -60 247 -60 209 c 1,28,29
 -63.224 183.208 -63.224 183.208 -104.5 170 c 0,30,31
 -117 166 -117 166 -129.5 166 c 128,-1,32
 -142 166 -142 166 -153.5 174.5 c 128,-1,33
 -165 183 -165 183 -172 187 c 1,34,35
 -178 181 -178 181 -187.5 173 c 128,-1,36
 -197 165 -197 165 -206 154 c 0,37,38
 -228 127.111 -228 127.111 -228 98.5556 c 128,-1,39
 -228 70 -228 70 -209 53 c 128,-1,40
 -190 36 -190 36 -164.5 27 c 0,41,42
 -124.833 13 -124.833 13 -82.4167 13 c 128,-1,43
 -40 13 -40 13 5.5 31 c 128,-1,44
 51 49 51 49 95 91 c 0,45,46
 215.66 206.175 215.66 206.175 225.5 432.5 c 0,47,48
 232.081 583.869 232.081 583.869 263 670 c 0,49,50
 264 673 264 673 264 679 c 1,51,-1
 28 389 l 2,52,53
 8 365 8 365 -1.5 358 c 128,-1,54
 -11 351 -11 351 -11 351 c 1,55,56
 -23 350 -23 350 -27 357 c 0,57,58
 -29 362 -29 362 -18 375.5 c 0,59,60
 239.87 683.898 239.87 683.898 272 726 c 1,61,62
 287.6 804 287.6 804 324 804 c 0,63,64
 341 804 341 804 352.5 795 c 128,-1,65
 364 786 364 786 363.5 772.5 c 0,66,67
 362.761 752.546 362.761 752.546 333.38 718.273 c 128,-1,68
 304 684 304 684 297.5 674.5 c 128,-1,69
 291 665 291 665 289 658.5 c 128,-1,70
 287 652 287 652 287 646.5 c 2,71,-1
 287 634 l 1,72,73
 286 607 286 607 291.5 569.5 c 2,74,-1
 317 404 l 2,75,76
 338.568 268.427 338.568 268.427 308 184 c 1,0,1
EndSplineSet
EndChar

StartChar: t
Encoding: 116 116 24
Width: 433
Flags: HW
LayerCount: 2
Fore
SplineSet
-100 58 m 0,0,1
 -100 28.1739 -100 28.1739 -52 27.087 c 128,-1,2
 -4 26 -4 26 44.5 48 c 128,-1,3
 93 70 93 70 141 104 c 128,-1,4
 189 138 189 138 234 180.5 c 128,-1,5
 279 223 279 223 318 265 c 128,-1,6
 357 307 357 307 388.5 344.5 c 2,7,-1
 440 406 l 1,8,-1
 462 389 l 1,9,-1
 410 329 l 1,10,11
 131.263 -2 131.263 -2 -59 -2 c 0,12,13
 -114 -2 -114 -2 -141.5 20 c 128,-1,14
 -169 42 -169 42 -169 68 c 128,-1,15
 -169 94 -169 94 -166.5 111 c 128,-1,16
 -164 128 -164 128 -156 148.5 c 128,-1,17
 -148 169 -148 169 -132.5 197 c 128,-1,18
 -117 225 -117 225 -91 265 c 1,19,-1
 65 490 l 1,20,-1
 323 853 l 1,21,-1
 244 853 l 2,22,23
 214 853 214 853 214 867.5 c 128,-1,24
 214 882 214 882 252 882 c 2,25,-1
 343 882 l 1,26,-1
 528 1142 l 1,27,28
 597.5 1131.31 597.5 1131.31 667 1142 c 1,29,-1
 474 882 l 1,30,-1
 732 882 l 2,31,32
 760 882 760 882 760 867.5 c 128,-1,33
 760 853 760 853 735 853 c 2,34,-1
 452 853 l 1,35,-1
 37.5 290.5 l 1,36,37
 -68.9866 138.78 -68.9866 138.78 -84.4933 103.89 c 128,-1,38
 -100 69 -100 69 -100 58 c 0,0,1
EndSplineSet
EndChar

StartChar: u
Encoding: 117 117 25
Width: 887
Flags: HW
LayerCount: 2
Fore
SplineSet
-81 59 m 1,0,1
 -81 23 -81 23 -33 23 c 0,2,3
 34.5 23 34.5 23 110.75 74 c 0,4,5
 277.334 185.42 277.334 185.42 457 406 c 1,6,7
 684 679 l 1,8,9
 732 673 732 673 771 673 c 128,-1,10
 810 673 810 673 836 676 c 1,11,-1
 737.5 563 l 1,12,-1
 383.5 132 l 2,13,14
 349 89.1724 349 89.1724 349 62 c 0,15,16
 349 26 349 26 397 26 c 128,-1,17
 445 26 445 26 496.5 51.5 c 128,-1,18
 548 77 548 77 599.5 116 c 128,-1,19
 651 155 651 155 700 201.5 c 128,-1,20
 749 248 749 248 789 290.5 c 1,21,-1
 894 406 l 1,22,-1
 914 389 l 1,23,-1
 875 345 l 2,24,25
 846 312 846 312 804 269 c 1,26,-1
 711 178 l 1,27,28
 519.75 -2 519.75 -2 394 -2 c 0,29,30
 353 -2 353 -2 326.5 20.5 c 128,-1,31
 300 43 300 43 298.5 81 c 0,32,33
 295.62 153.966 295.62 153.966 349 246 c 1,34,35
 118.714 -2 118.714 -2 -41 -2 c 0,36,37
 -131.111 -2 -131.111 -2 -156 62 c 0,38,39
 -163 80 -163 80 -164 108 c 128,-1,40
 -165 136 -165 136 -150.5 175 c 128,-1,41
 -136 214 -136 214 -107 259.5 c 128,-1,42
 -78 305 -78 305 -35.5 358.5 c 1,43,-1
 144 575.5 l 1,44,45
 186 628 186 628 233 679 c 1,46,47
 272 673 272 673 296 673 c 2,48,-1
 330.5 673 l 2,49,50
 373 673 373 673 385 676 c 1,51,52
 268.282 547.678 268.282 547.678 221.141 491.339 c 2,53,-1
 21.5 251.5 l 1,54,55
 -83.2092 129.695 -83.2092 129.695 -81 59 c 1,0,1
EndSplineSet
EndChar

StartChar: v
Encoding: 118 118 26
Width: 796
Flags: HW
LayerCount: 2
Fore
SplineSet
249 679 m 1,0,1
 297 673 297 673 338 673 c 128,-1,2
 379 673 379 673 406 676 c 1,3,4
 317.108 595.655 317.108 595.655 272.554 546.328 c 2,5,-1
 139 398 l 2,6,7
 123 380 123 380 97 354 c 2,8,-1
 -16.5 234.5 l 1,9,10
 -123 117.169 -123 117.169 -123 77.0847 c 128,-1,11
 -123 37 -123 37 -108 30.5 c 128,-1,12
 -93 24 -93 24 -52.5 24 c 128,-1,13
 -12 24 -12 24 51 47.5 c 128,-1,14
 114 71 114 71 179 109 c 0,15,16
 296.772 177.851 296.772 177.851 390.386 260.426 c 128,-1,17
 484 343 484 343 517 385 c 128,-1,18
 550 427 550 427 567 466 c 0,19,20
 595 530.235 595 530.235 595 625 c 0,21,22
 595 662 595 662 618 685.5 c 128,-1,23
 641 709 641 709 674 709 c 0,24,25
 730 709 730 709 730 654 c 0,26,27
 730 539.683 730 539.683 531 347 c 1,28,-1
 504 322 l 1,29,30
 441.913 238 441.913 238 472.5 204.5 c 0,31,32
 483 193 483 193 513.5 193 c 128,-1,33
 544 193 544 193 587 218 c 128,-1,34
 630 243 630 243 671.5 277.5 c 128,-1,35
 713 312 713 312 748 348 c 2,36,-1
 803 406 l 1,37,-1
 824 389 l 1,38,39
 619.37 168 619.37 168 502 168 c 0,40,41
 453 168 453 168 440.5 197 c 128,-1,42
 428 226 428 226 450 274 c 1,43,44
 233.112 91.9693 233.112 91.9693 46.5 23.5 c 0,45,46
 -23 -2 -23 -2 -80 -2 c 128,-1,47
 -137 -2 -137 -2 -165 20.5 c 128,-1,48
 -193 43 -193 43 -193 75.5 c 128,-1,49
 -193 108 -193 108 -186 134.5 c 128,-1,50
 -179 161 -179 161 -158.5 197.5 c 0,51,52
 -120.15 265.781 -120.15 265.781 -37.5752 368.89 c 128,-1,53
 45 472 45 472 109 537.5 c 2,54,-1
 249 679 l 1,0,1
EndSplineSet
EndChar

StartChar: w
Encoding: 119 119 27
Width: 1162
Flags: HW
LayerCount: 2
Fore
SplineSet
47.5 288.5 m 1,0,1
 -132 91.5728 -132 91.5728 -132 46 c 0,2,3
 -132 26 -132 26 -109.5 26 c 128,-1,4
 -87 26 -87 26 -59 34 c 128,-1,5
 -31 42 -31 42 6.5 60.5 c 0,6,7
 84.1834 98.8238 84.1834 98.8238 176.092 166.412 c 0,8,9
 336.478 284.358 336.478 284.358 438 401 c 1,10,-1
 465 434 l 1,11,-1
 465 433 l 1,12,13
 561.078 545.787 561.078 545.787 700 679 c 1,14,15
 748 673 748 673 776 673 c 0,16,17
 832 673 832 673 853 676 c 1,18,-1
 497 295.5 l 1,19,-1
 392 178 l 1,20,21
 311 81.4894 311 81.4894 311 49 c 256,22,23
 311 26 311 26 340.5 26 c 128,-1,24
 370 26 370 26 427.5 48.5 c 128,-1,25
 485 71 485 71 552.5 110 c 0,26,27
 749.828 224.012 749.828 224.012 904 409.5 c 0,28,29
 967.781 486.236 967.781 486.236 977.89 534.618 c 128,-1,30
 988 583 988 583 988 622.5 c 128,-1,31
 988 662 988 662 1007 690.5 c 128,-1,32
 1026 719 1026 719 1058 719 c 0,33,34
 1124 719 1124 719 1124 654 c 0,35,36
 1124 546 1124 546 925 347 c 0,37,38
 908 330 908 330 887 311 c 2,39,-1
 843 273 l 1,40,41
 811.485 193 811.485 193 883 193 c 0,42,43
 984.045 193 984.045 193 1168 406 c 1,44,-1
 1190 389 l 1,45,-1
 1127 324 l 2,46,47
 975.105 168 975.105 168 874 168 c 0,48,49
 834 168 834 168 817 188.5 c 128,-1,50
 800 209 800 209 808 244 c 1,51,52
 604.372 85.2394 604.372 85.2394 425.5 19.5 c 0,53,54
 367 -2 367 -2 325 -2 c 0,55,56
 262 -2 262 -2 262 63 c 0,57,58
 262 140.892 262 140.892 330 253 c 1,59,-1
 266 197.5 l 1,60,61
 25.0943 -2 25.0943 -2 -112 -2 c 0,62,63
 -177 -2 -177 -2 -177 62 c 0,64,65
 -177 207.765 -177 207.765 76 492 c 0,66,67
 157 583 157 583 261 679 c 1,68,69
 300 673 300 673 324.5 673 c 2,70,-1
 359 673 l 2,71,72
 399 673 399 673 414 676 c 1,73,-1
 160 410.5 l 1,74,-1
 47.5 288.5 l 1,0,1
EndSplineSet
EndChar

StartChar: x
Encoding: 120 120 28
Width: 905
Flags: HW
LayerCount: 2
Fore
SplineSet
-108 -2 m 0,0,1
 -193 -2 -193 -2 -193 51 c 0,2,3
 -193 68 -193 68 -175 83 c 128,-1,4
 -157 98 -157 98 -138.5 98 c 0,5,6
 -111.625 98 -111.625 98 -95.3125 86 c 0,7,8
 -68.125 66 -68.125 66 -35.5625 66 c 128,-1,9
 -3 66 -3 66 49 92.5 c 128,-1,10
 101 119 101 119 153.5 167.5 c 0,11,12
 260.684 266.518 260.684 266.518 350 435 c 1,13,14
 417 532.455 417 532.455 417 593.227 c 128,-1,15
 417 654 417 654 370 654 c 0,16,17
 312.375 654 312.375 654 262.188 617.5 c 0,18,19
 172.516 552.284 172.516 552.284 28 389 c 1,20,21
 20 387 20 387 12.5 394 c 128,-1,22
 5 401 5 401 7 406 c 1,23,24
 166.954 583.51 166.954 583.51 225.977 624.755 c 128,-1,25
 285 666 285 666 317 675.5 c 128,-1,26
 349 685 349 685 393.5 685 c 128,-1,27
 438 685 438 685 471 649 c 128,-1,28
 504 613 504 613 504 563 c 128,-1,29
 504 513 504 513 486 452 c 1,30,31
 600.367 606.732 600.367 606.732 739 665.5 c 0,32,33
 785 685 785 685 820 685 c 128,-1,34
 855 685 855 685 873 678 c 128,-1,35
 891 671 891 671 902 660.5 c 0,36,37
 922 641.409 922 641.409 922 611.705 c 128,-1,38
 922 582 922 582 903 567.5 c 128,-1,39
 884 553 884 553 857.5 553 c 128,-1,40
 831 553 831 553 812.5 575 c 128,-1,41
 794 597 794 597 792 635 c 1,42,43
 787 636 787 636 782.5 636 c 2,44,-1
 775 636 l 2,45,46
 712.143 636 712.143 636 612.5 546 c 0,47,48
 513.157 456.271 513.157 456.271 433 318 c 1,49,-1
 399 254 l 1,50,51
 349 145.379 349 145.379 349 82 c 0,52,53
 349 26 349 26 407.5 26 c 128,-1,54
 466 26 466 26 521.5 53.5 c 128,-1,55
 577 81 577 81 631.5 122 c 128,-1,56
 686 163 686 163 735.5 211.5 c 128,-1,57
 785 260 785 260 823.5 302 c 0,58,59
 882.625 366.5 882.625 366.5 913 407 c 1,60,-1
 934 389 l 1,61,62
 930 385 930 385 904.5 355 c 128,-1,63
 879 325 879 325 838 281.5 c 128,-1,64
 797 238 797 238 744.5 188.5 c 128,-1,65
 692 139 692 139 634 96.5 c 0,66,67
 499.576 -2 499.576 -2 402 -2 c 0,68,69
 303.517 -2 303.517 -2 270 79 c 0,70,71
 258 108 258 108 258 149.5 c 128,-1,72
 258 191 258 191 282 268 c 1,73,74
 142.664 75.7165 142.664 75.7165 -28 14.5 c 0,75,76
 -74 -2 -74 -2 -108 -2 c 0,0,1
EndSplineSet
EndChar

StartChar: y
Encoding: 121 121 29
Width: 909
Flags: HW
LayerCount: 2
Fore
SplineSet
-91 70 m 0,0,1
 -91 24 -91 24 -32 24 c 128,-1,2
 27 24 27 24 98.5 54.5 c 128,-1,3
 170 85 170 85 239 133.5 c 0,4,5
 371.75 226.81 371.75 226.81 484 366 c 1,6,7
 660.182 567.042 660.182 567.042 694.591 609.021 c 2,8,9
 749 676 l 1,10,11
 787.5 669 787.5 669 805.75 669 c 0,12,13
 857 669 857 669 883 673 c 1,14,-1
 535 244 l 1,15,-1
 358 7 l 1,16,-1
 206 -191 l 1,17,18
 464.27 -67.4797 464.27 -67.4797 602.5 56.5 c 0,19,20
 691.603 136.417 691.603 136.417 771.302 232.209 c 2,21,-1
 915 406 l 1,22,-1
 936 389 l 1,23,-1
 810.5 240.5 l 2,24,25
 698.248 108.022 698.248 108.022 623.124 43.011 c 128,-1,26
 548 -22 548 -22 486 -63.5 c 0,27,28
 368.371 -142.236 368.371 -142.236 171 -235 c 1,29,30
 -14.6381 -468.035 -14.6381 -468.035 -109.319 -559.018 c 128,-1,31
 -204 -650 -204 -650 -259 -688.5 c 128,-1,32
 -314 -727 -314 -727 -365.5 -749 c 0,33,34
 -454.455 -787 -454.455 -787 -575 -787 c 0,35,36
 -635.696 -787 -635.696 -787 -656.5 -743.5 c 0,37,38
 -662 -732 -662 -732 -662 -706 c 128,-1,39
 -662 -680 -662 -680 -628.5 -633.5 c 128,-1,40
 -595 -587 -595 -587 -514 -530 c 0,41,42
 -352.311 -416.219 -352.311 -416.219 46 -248 c 1,43,-1
 453 268 l 1,44,-1
 442 272 l 1,45,46
 346.54 169.721 346.54 169.721 247.77 109.86 c 0,47,48
 63.2 -2 63.2 -2 -48 -2 c 0,49,50
 -104 -2 -104 -2 -132 20.5 c 128,-1,51
 -160 43 -160 43 -160 75.5 c 128,-1,52
 -160 108 -160 108 -154 134.5 c 128,-1,53
 -148 161 -148 161 -129.5 197.5 c 0,54,55
 -93.1981 269.123 -93.1981 269.123 11 415 c 1,56,57
 57 472 57 472 121.5 537.5 c 2,58,-1
 261 679 l 1,59,-1
 308 674.5 l 2,60,61
 324 673 324 673 357.5 673 c 128,-1,62
 391 673 391 673 418 676 c 1,63,64
 329.108 595.655 329.108 595.655 284.554 546.328 c 2,65,-1
 213.5 466 l 1,66,67
 -6.95982 220.802 -6.95982 220.802 -34.9799 180.401 c 0,68,69
 -91 99.6279 -91 99.6279 -91 70 c 0,0,1
11 -291 m 1,70,71
 -492.281 -505.851 -492.281 -505.851 -594 -633 c 0,72,73
 -630 -678 -630 -678 -630 -720 c 0,74,75
 -630 -731 -630 -731 -616.5 -745.5 c 128,-1,76
 -603 -760 -603 -760 -559 -760 c 128,-1,77
 -515 -760 -515 -760 -461.5 -740.5 c 128,-1,78
 -408 -721 -408 -721 -342.5 -669.5 c 0,79,80
 -220.656 -573.699 -220.656 -573.699 11 -291 c 1,70,71
EndSplineSet
EndChar

StartChar: z
Encoding: 122 122 30
Width: 697
Flags: HW
LayerCount: 2
Fore
SplineSet
76 8 m 1,0,1
 170.404 -2.48936 170.404 -2.48936 191 -83 c 1,2,3
 412.007 51.0941 412.007 51.0941 602.5 281.5 c 1,4,-1
 703 406 l 1,5,-1
 724 389 l 1,6,-1
 615 256.5 l 1,7,8
 488.885 106.739 488.885 106.739 386.443 24.3695 c 128,-1,9
 284 -58 284 -58 196 -109 c 1,10,11
 199 -126 199 -126 199 -169 c 128,-1,12
 199 -212 199 -212 166.5 -285 c 128,-1,13
 134 -358 134 -358 78.5 -429 c 128,-1,14
 23 -500 23 -500 -49 -565 c 128,-1,15
 -121 -630 -121 -630 -199.5 -679 c 0,16,17
 -372.52 -787 -372.52 -787 -510 -787 c 0,18,19
 -557 -787 -557 -787 -577 -762.5 c 128,-1,20
 -597 -738 -597 -738 -597 -695.5 c 128,-1,21
 -597 -653 -597 -653 -547.5 -589.5 c 128,-1,22
 -498 -526 -498 -526 -407.5 -453.5 c 0,23,24
 -240.068 -319.369 -240.068 -319.369 96 -131 c 1,25,26
 99 -110 99 -110 99 -78.5 c 128,-1,27
 99 -47 99 -47 83.5 -27 c 128,-1,28
 68 -7 68 -7 50 -7 c 2,29,-1
 48 -7 l 1,30,31
 17 -24 17 -24 -11 -37.5 c 128,-1,32
 -39 -51 -39 -51 -58 -62.5 c 128,-1,33
 -77 -74 -77 -74 -83 -78.5 c 128,-1,34
 -89 -83 -89 -83 -92 -86 c 0,35,36
 -98 -92 -98 -92 -104 -92 c 128,-1,37
 -110 -92 -110 -92 -121 -85.5 c 128,-1,38
 -132 -79 -132 -79 -132 -75 c 0,39,40
 -132 -61.8 -132 -61.8 -84 -41 c 256,41,42
 5.88166 -2.05128 5.88166 -2.05128 56 60 c 0,43,44
 98.6466 112.801 98.6466 112.801 143.323 191.9 c 2,45,-1
 228 345 l 2,46,47
 265.521 414.415 265.521 414.415 313 477 c 1,48,49
 203.519 497.412 203.519 497.412 150 571 c 1,50,51
 55.9767 397.799 55.9767 397.799 -44 316 c 0,52,53
 -62.3333 301 -62.3333 301 -68.6667 301 c 128,-1,54
 -75 301 -75 301 -75 306 c 1,55,-1
 7 406 l 1,56,57
 73.9731 484.52 73.9731 484.52 97.9865 530.26 c 2,58,-1
 133 597 l 1,59,60
 111 641 111 641 111 676.5 c 128,-1,61
 111 712 111 712 118 732.5 c 128,-1,62
 125 753 125 753 137.5 768.5 c 0,63,64
 165.323 803 165.323 803 198.161 803 c 0,65,66
 260 803 260 803 260 764 c 0,67,68
 260 740 260 740 248.5 726 c 128,-1,69
 237 712 237 712 223.5 699.5 c 0,70,71
 187 665.704 187 665.704 187 638.852 c 128,-1,72
 187 612 187 612 196.5 591.5 c 128,-1,73
 206 571 206 571 224 552.5 c 0,74,75
 265.421 509.928 265.421 509.928 327 495 c 1,76,77
 414 605 414 605 500.5 656.5 c 128,-1,78
 587 708 587 708 646 708 c 0,79,80
 750 708 750 708 750 650 c 256,81,82
 750 598.593 750 598.593 662.5 543.5 c 0,83,84
 568.446 484.281 568.446 484.281 450 473 c 1,85,86
 337.452 194.188 337.452 194.188 168 68 c 0,87,88
 121 33 121 33 76 8 c 1,0,1
458 493 m 1,89,90
 560.784 506.575 560.784 506.575 640 557.5 c 0,91,92
 716 606.357 716 606.357 716 651 c 0,93,94
 716 666 716 666 700.5 676.5 c 128,-1,95
 685 687 685 687 659.5 687 c 128,-1,96
 634 687 634 687 609 676.5 c 128,-1,97
 584 666 584 666 557.5 642.5 c 0,98,99
 499.483 591.051 499.483 591.051 458 493 c 1,89,90
90 -161 m 1,100,-1
 -170 -317 l 1,101,102
 -419.544 -472.965 -419.544 -472.965 -516.5 -592 c 0,103,104
 -567 -654 -567 -654 -567 -710 c 0,105,106
 -567 -730 -567 -730 -554.5 -746 c 128,-1,107
 -542 -762 -542 -762 -507 -762 c 128,-1,108
 -472 -762 -472 -762 -417 -736 c 128,-1,109
 -362 -710 -362 -710 -300.5 -665.5 c 128,-1,110
 -239 -621 -239 -621 -176.5 -562 c 128,-1,111
 -114 -503 -114 -503 -60 -436 c 0,112,113
 59.835 -287.316 59.835 -287.316 90 -161 c 1,100,-1
EndSplineSet
EndChar

StartChar: A
Encoding: 65 65 31
Width: 1516
Flags: HW
LayerCount: 2
Fore
SplineSet
750 199 m 0,0,1
 608.444 199 608.444 199 486 237 c 1,2,3
 346.235 120.529 346.235 120.529 275.618 76.2647 c 0,4,5
 145.972 -5 145.972 -5 11 -5 c 0,6,7
 -143 -5 -143 -5 -187.5 84 c 0,8,9
 -201 111 -201 111 -201 137 c 128,-1,10
 -201 163 -201 163 -192 179 c 128,-1,11
 -183 195 -183 195 -169.5 204.5 c 0,12,13
 -143.211 223 -143.211 223 -107 223 c 0,14,15
 -57 223 -57 223 -57 178 c 0,16,17
 -57 158 -57 158 -73.5 143.5 c 128,-1,18
 -90 129 -90 129 -118.357 129 c 128,-1,19
 -146.714 129 -146.714 129 -161 139 c 1,20,-1
 -161 132 l 2,21,22
 -161 22 -161 22 19 22 c 0,23,24
 144.264 22 144.264 22 302 132 c 1,25,-1
 451 249 l 1,26,27
 308.525 302.428 308.525 302.428 223.5 399 c 0,28,29
 142.268 491.263 142.268 491.263 136 602 c 0,30,31
 129.698 711.235 129.698 711.235 207.5 788 c 0,32,33
 289.595 869 289.595 869 430 869 c 0,34,35
 625.327 869 625.327 869 758 701.5 c 0,36,37
 798 651 798 651 826 593 c 1,38,39
 1147.4 901.091 1147.4 901.091 1246.2 989.045 c 1,40,-1
 1410.5 1131 l 1,41,42
 1741.64 1404 1741.64 1404 1899 1404 c 0,43,44
 1917 1404 1917 1404 1917 1398.5 c 0,45,46
 1917 1391.33 1917 1391.33 1900.5 1385.17 c 128,-1,47
 1884 1379 1884 1379 1864 1359 c 128,-1,48
 1844 1339 1844 1339 1806 1292.5 c 1,49,-1
 1708 1167 l 1,50,-1
 1031 267 l 1,51,52
 1310 349.78 1310 349.78 1466 563.5 c 0,53,54
 1516 632 1516 632 1533 677.5 c 0,55,56
 1555.98 739 1555.98 739 1561 739 c 256,57,58
 1564 739 1564 739 1570.5 730.5 c 128,-1,59
 1577 722 1577 722 1575.5 694.5 c 128,-1,60
 1574 667 1574 667 1561 629.5 c 128,-1,61
 1548 592 1548 592 1528 558 c 0,62,63
 1494.68 501.359 1494.68 501.359 1419.34 428.68 c 0,64,65
 1265.71 280.476 1265.71 280.476 999 225 c 1,66,-1
 828 -1 l 1,67,-1
 764.5 3 l 2,68,69
 732 5 732 5 713.5 5 c 128,-1,70
 695 5 695 5 681.5 3 c 2,71,-1
 654 -1 l 1,72,-1
 802 182 l 2,73,74
 805 187 805 187 808 191.5 c 128,-1,75
 811 196 811 196 813 201 c 1,76,77
 781 199 781 199 750 199 c 0,0,1
840 562 m 1,78,79
 881 457.45 881 457.45 881 382.225 c 128,-1,80
 881 307 881 307 869 264 c 1,81,-1
 1240.5 713 l 1,82,83
 1606.69 1140.11 1606.69 1140.11 1694.85 1233.56 c 128,-1,84
 1783 1327 1783 1327 1825 1366 c 1,85,-1
 1758.5 1338 l 1,86,87
 1622.92 1279.05 1622.92 1279.05 1372 1061.5 c 1,88,-1
 1162.5 871.5 l 1,89,-1
 840 562 l 1,78,79
475 269 m 1,90,91
 669.999 442.989 669.999 442.989 803 572 c 1,92,93
 719.84 760.71 719.84 760.71 549.5 819.5 c 0,94,95
 493 839 493 839 438.5 839 c 128,-1,96
 384 839 384 839 341.5 819.5 c 128,-1,97
 299 800 299 800 267 768 c 0,98,99
 198 699 198 699 198 604 c 0,100,101
 198 437 198 437 354 329 c 0,102,103
 406 293 406 293 475 269 c 1,90,91
510 258 m 1,104,105
 619.533 227 619.533 227 756 227 c 0,106,107
 791 227 791 227 826 230 c 1,108,109
 849 289.417 849 289.417 849 343.708 c 0,110,111
 849 446.188 849 446.188 816 539 c 1,112,113
 590.949 327.385 590.949 327.385 510 258 c 1,104,105
EndSplineSet
EndChar

StartChar: B
Encoding: 66 66 32
Width: 1599
Flags: HW
LayerCount: 2
Fore
SplineSet
1088.5 692.5 m 128,-1,1
 1118 698 1118 698 1168 698 c 128,-1,2
 1218 698 1218 698 1272 671 c 1,3,4
 1498.54 782.474 1498.54 782.474 1582.5 994.5 c 0,5,6
 1612 1069 1612 1069 1612 1146 c 128,-1,7
 1612 1223 1612 1223 1570 1277 c 1,8,9
 1547 1264 1547 1264 1524 1248 c 2,10,-1
 1476 1214 l 1,11,12
 1346.37 1115.73 1346.37 1115.73 1256.19 1019.87 c 0,13,14
 1104.47 858.593 1104.47 858.593 933.735 629.297 c 128,-1,15
 763 400 763 400 586.5 249 c 128,-1,16
 410 98 410 98 250 32 c 1,17,18
 163.455 -2 163.455 -2 30 -2 c 0,19,20
 -56.7949 -2 -56.7949 -2 -120 40.5 c 0,21,22
 -182 82.1897 -182 82.1897 -182 142 c 0,23,24
 -182 204.727 -182 204.727 -120.5 221.5 c 0,25,26
 -104 226 -104 226 -88 226 c 128,-1,27
 -72 226 -72 226 -55.5 215.5 c 128,-1,28
 -39 205 -39 205 -39 182.5 c 128,-1,29
 -39 160 -39 160 -55.5 145.5 c 128,-1,30
 -72 131 -72 131 -100.357 131 c 128,-1,31
 -128.714 131 -128.714 131 -143 141 c 1,32,-1
 -143 135 l 2,33,34
 -143 86 -143 86 -94.5 55 c 128,-1,35
 -46 24 -46 24 17 24 c 128,-1,36
 80 24 80 24 119.5 33.5 c 128,-1,37
 159 43 159 43 206 70 c 128,-1,38
 253 97 253 97 311.5 146 c 128,-1,39
 370 195 370 195 449.5 274.5 c 1,40,-1
 635 467.5 l 1,41,-1
 882 738 l 1,42,43
 1232.51 1135.98 1232.51 1135.98 1548 1303 c 1,44,45
 1433 1418 1433 1418 1168 1418 c 0,46,47
 859.065 1418 859.065 1418 558.5 1191 c 0,48,49
 413.063 1081.16 413.063 1081.16 318.5 957.5 c 0,50,51
 222 831.308 222 831.308 222 738 c 0,52,53
 222 652.857 222 652.857 305.5 629 c 0,54,55
 330 622 330 622 373 622 c 128,-1,56
 416 622 416 622 482.5 645 c 128,-1,57
 549 668 549 668 616.5 710 c 128,-1,58
 684 752 684 752 748 810.5 c 128,-1,59
 812 869 812 869 864.5 939.5 c 0,60,61
 979.001 1093.26 979.001 1093.26 1002 1260 c 1,62,63
 1008.4 1292 1008.4 1292 1017.7 1292 c 128,-1,64
 1027 1292 1027 1292 1027 1270 c 0,65,66
 1027 1085.66 1027 1085.66 921 924.5 c 0,67,68
 824.603 777.938 824.603 777.938 664 688 c 0,69,70
 506.857 600 506.857 600 349 600 c 0,71,72
 244.981 600 244.981 600 205.5 677.5 c 0,73,74
 192 704 192 704 192 763 c 128,-1,75
 192 822 192 822 231 905.5 c 128,-1,76
 270 989 270 989 338.5 1066.5 c 128,-1,77
 407 1144 407 1144 501 1212 c 128,-1,78
 595 1280 595 1280 704.5 1331 c 0,79,80
 938.529 1440 938.529 1440 1193.96 1440 c 128,-1,81
 1449.38 1440 1449.38 1440 1596 1328 c 1,82,83
 1745.68 1400 1745.68 1400 1846 1400 c 0,84,85
 1879 1400 1879 1400 1879 1390 c 0,86,87
 1879 1385 1879 1385 1861 1382.5 c 128,-1,88
 1843 1380 1843 1380 1809 1372.5 c 0,89,90
 1710.49 1350.77 1710.49 1350.77 1622 1305 c 1,91,92
 1716 1215.18 1716 1215.18 1716 1083 c 0,93,94
 1716 954.771 1716 954.771 1596.5 826.5 c 0,95,96
 1485.03 706.847 1485.03 706.847 1320 640 c 1,97,98
 1400 569 1400 569 1400 439 c 0,99,100
 1400 328.282 1400 328.282 1317 224 c 0,101,102
 1193 68.2005 1193 68.2005 975.5 15 c 0,103,104
 906 -2 906 -2 846 -2 c 128,-1,105
 786 -2 786 -2 754 8.5 c 128,-1,106
 722 19 722 19 703 35 c 0,107,108
 668 64.4737 668 64.4737 668 103.737 c 128,-1,109
 668 143 668 143 689 183.5 c 128,-1,110
 710 224 710 224 746.5 264 c 128,-1,111
 783 304 783 304 833 341 c 128,-1,112
 883 378 883 378 940.5 406.5 c 0,113,114
 1066.6 469 1066.6 469 1186 469 c 0,115,116
 1207 469 1207 469 1207 456 c 128,-1,117
 1207 443 1207 443 1165.5 443 c 128,-1,118
 1124 443 1124 443 1068.5 428 c 128,-1,119
 1013 413 1013 413 960 387 c 128,-1,120
 907 361 907 361 860 327 c 128,-1,121
 813 293 813 293 777.5 256 c 0,122,123
 701 176.268 701 176.268 701 108 c 0,124,125
 701 26 701 26 838 26 c 0,126,127
 933.559 26 933.559 26 1040.5 98 c 0,128,129
 1210.04 212.149 1210.04 212.149 1271.5 416 c 0,130,131
 1292 484 1292 484 1292 541.5 c 128,-1,132
 1292 599 1292 599 1277 623 c 1,133,134
 1174.06 588 1174.06 588 1103.53 588 c 128,-1,135
 1033 588 1033 588 1009.5 603 c 128,-1,136
 986 618 986 618 986 632 c 128,-1,137
 986 646 986 646 999.5 657.5 c 128,-1,138
 1013 669 1013 669 1036 678 c 128,-1,0
 1059 687 1059 687 1088.5 692.5 c 128,-1,1
1241 657 m 1,139,140
 1210.4 675 1210.4 675 1168.7 675 c 128,-1,141
 1127 675 1127 675 1106.5 672 c 128,-1,142
 1086 669 1086 669 1070.5 664.5 c 0,143,144
 1037 654.774 1037 654.774 1037 644.387 c 0,145,146
 1037 620 1037 620 1095 620 c 128,-1,147
 1153 620 1153 620 1241 657 c 1,139,140
EndSplineSet
EndChar

StartChar: C
Encoding: 67 67 33
Width: 1350
Flags: HW
LayerCount: 2
Fore
SplineSet
1468.5 1401 m 0,0,1
 1561 1401 1561 1401 1561 1327 c 0,2,3
 1561 1216.72 1561 1216.72 1391 1080.5 c 0,4,5
 1229 950.694 1229 950.694 993 856.5 c 0,6,7
 745.449 757.697 745.449 757.697 536 748 c 1,8,9
 227 406.716 227 406.716 227 213 c 0,10,11
 227 59.0588 227 59.0588 373 29 c 1,12,13
 373 298.786 373 298.786 559 518 c 0,14,15
 673.731 653.219 673.731 653.219 819.5 706.5 c 0,16,17
 892 733 892 733 971.5 733 c 128,-1,18
 1051 733 1051 733 1095 694.5 c 128,-1,19
 1139 656 1139 656 1139 596 c 128,-1,20
 1139 536 1139 536 1113.5 469.5 c 128,-1,21
 1088 403 1088 403 1042 337 c 128,-1,22
 996 271 996 271 930.5 209.5 c 128,-1,23
 865 148 865 148 785 101 c 0,24,25
 609.681 -2 609.681 -2 420 -2 c 2,26,-1
 411 -2 l 2,27,28
 407 -2 407 -2 402 -1 c 1,29,30
 408.445 -175.022 408.445 -175.022 461 -244 c 0,31,32
 465 -249 465 -249 465 -252 c 2,33,-1
 465 -257 l 2,34,35
 465 -262 465 -262 456 -262 c 256,36,37
 417.917 -262 417.917 -262 385 -104 c 0,38,39
 375 -56 375 -56 373 1 c 1,40,41
 226.16 20.5787 226.16 20.5787 176.5 151.5 c 0,42,43
 160 195 160 195 160 251 c 0,44,45
 160 485.143 160 485.143 373 759 c 1,46,47
 204.571 797.414 204.571 797.414 159 932.5 c 0,48,49
 145 974 145 974 145 1022 c 128,-1,50
 145 1070 145 1070 171 1122.5 c 128,-1,51
 197 1175 197 1175 243.5 1224.5 c 128,-1,52
 290 1274 290 1274 354.5 1318 c 128,-1,53
 419 1362 419 1362 496 1395 c 0,54,55
 664 1467 664 1467 838 1467 c 0,56,57
 919 1467 919 1467 919 1450 c 256,58,59
 919 1442 919 1442 906 1442 c 2,60,-1
 833 1446 l 1,61,62
 622.437 1446 622.437 1446 411 1304.5 c 0,63,64
 274.613 1213.23 274.613 1213.23 217.5 1099 c 0,65,66
 188 1040 188 1040 188 993.5 c 128,-1,67
 188 947 188 947 201.5 916.5 c 128,-1,68
 215 886 215 886 240.5 859.5 c 0,69,70
 294.155 803.741 294.155 803.741 391 782 c 1,71,72
 601.177 1041.63 601.177 1041.63 900 1217.5 c 0,73,74
 1211.79 1401 1211.79 1401 1468.5 1401 c 0,0,1
1537 1324 m 0,75,76
 1537 1377 1537 1377 1459 1377 c 0,77,78
 1314.9 1377 1314.9 1377 1045.5 1192.5 c 0,79,80
 784.36 1013.66 784.36 1013.66 561 775 c 1,81,82
 838.152 805.125 838.152 805.125 1187 1002 c 0,83,84
 1394.2 1118.94 1394.2 1118.94 1490 1229 c 0,85,86
 1537 1283 1537 1283 1537 1324 c 0,75,76
402 25 m 1,87,88
 409 24 409 24 416 24 c 2,89,-1
 431 24 l 2,90,91
 558.204 24 558.204 24 710.5 138.5 c 0,92,93
 845.263 239.818 845.263 239.818 947 388 c 0,94,95
 1047 533.652 1047 533.652 1047 628 c 0,96,97
 1047 670 1047 670 1025 688 c 128,-1,98
 1003 706 1003 706 950.5 706 c 128,-1,99
 898 706 898 706 835 682 c 128,-1,100
 772 658 772 658 710.5 614 c 128,-1,101
 649 570 649 570 593 508 c 128,-1,102
 537 446 537 446 494.5 370.5 c 0,103,104
 402 206.176 402 206.176 402 26 c 2,105,-1
 402 25 l 1,87,88
EndSplineSet
EndChar

StartChar: D
Encoding: 68 68 34
Width: 1733
Flags: HW
LayerCount: 2
Fore
SplineSet
504 49 m 1,0,1
 341.037 -6 341.037 -6 146 -6 c 0,2,3
 12.1538 -6 12.1538 -6 -24 41 c 0,4,5
 -34 54 -34 54 -34 68.5 c 128,-1,6
 -34 83 -34 83 -20.5 98 c 128,-1,7
 -7 113 -7 113 19 125.5 c 0,8,9
 78.28 154 78.28 154 138.14 154 c 128,-1,10
 198 154 198 154 225 151 c 128,-1,11
 252 148 252 148 284.5 141.5 c 0,12,13
 340.478 130.304 340.478 130.304 396.239 113.652 c 128,-1,14
 452 97 452 97 455 97 c 128,-1,15
 458 97 458 97 462 95 c 1,16,17
 563.96 149.902 563.96 149.902 663.48 246.451 c 128,-1,18
 763 343 763 343 841.5 431 c 1,19,-1
 1015 634 l 1,20,-1
 1183 835.5 l 1,21,-1
 1273 935 l 1,22,23
 1320 985 1320 985 1380.5 1042 c 128,-1,24
 1441 1099 1441 1099 1523 1154 c 1,25,26
 1389.48 1360 1389.48 1360 1054 1360 c 0,27,28
 867 1360 867 1360 680 1255.5 c 0,29,30
 511.406 1161.29 511.406 1161.29 400.5 1017 c 0,31,32
 291 874.544 291 874.544 291 757 c 0,33,34
 291 685 291 685 340.5 641 c 128,-1,35
 390 597 390 597 461 597 c 128,-1,36
 532 597 532 597 598.5 621 c 128,-1,37
 665 645 665 645 734.5 686.5 c 128,-1,38
 804 728 804 728 872 784 c 128,-1,39
 940 840 940 840 994 904 c 0,40,41
 1112.55 1044.51 1112.55 1044.51 1122 1173 c 1,42,43
 1125.29 1196 1125.29 1196 1133 1196 c 256,44,45
 1145 1196 1145 1196 1145 1175 c 0,46,47
 1145 1032.1 1145 1032.1 1048.5 890 c 0,48,49
 899.563 670.686 899.563 670.686 646.5 594 c 0,50,51
 564 569 564 569 498 569 c 128,-1,52
 432 569 432 569 388 584 c 128,-1,53
 344 599 344 599 309.5 627 c 0,54,55
 233 689.087 233 689.087 233 771.543 c 128,-1,56
 233 854 233 854 262 928 c 128,-1,57
 291 1002 291 1002 344 1069 c 128,-1,58
 397 1136 397 1136 471.5 1193.5 c 128,-1,59
 546 1251 546 1251 636.5 1293.5 c 0,60,61
 829.212 1384 829.212 1384 1048 1384 c 0,62,63
 1395.62 1384 1395.62 1384 1560 1178 c 1,64,65
 1788.09 1322.3 1788.09 1322.3 1969 1330 c 0,66,67
 1984 1330 1984 1330 1984 1322 c 128,-1,68
 1984 1314 1984 1314 1979 1311.5 c 128,-1,69
 1974 1309 1974 1309 1951 1305 c 1,70,71
 1774.58 1283.67 1774.58 1283.67 1594 1128 c 1,72,73
 1668 1004.67 1668 1004.67 1668 860.833 c 128,-1,74
 1668 717 1668 717 1635 607 c 128,-1,75
 1602 497 1602 497 1544 403.5 c 128,-1,76
 1486 310 1486 310 1405.5 235 c 128,-1,77
 1325 160 1325 160 1229.5 107.5 c 0,78,79
 1030.31 -1.99998 1030.31 -1.99998 811 -2 c 0,80,81
 675.214 -2 675.214 -2 504 49 c 1,0,1
551 67 m 1,82,83
 677.75 28 677.75 28 795.875 28 c 128,-1,84
 914 28 914 28 1010.5 55.5 c 128,-1,85
 1107 83 1107 83 1194.5 133.5 c 128,-1,86
 1282 184 1282 184 1357 256.5 c 128,-1,87
 1432 329 1432 329 1487 418.5 c 0,88,89
 1604 608.891 1604 608.891 1604 836 c 0,90,91
 1604 987 1604 987 1555 1094 c 1,92,93
 1442.91 989.642 1442.91 989.642 1345.46 849.321 c 1,94,-1
 1162.5 592.5 l 1,95,96
 868.6 192.039 868.6 192.039 551 67 c 1,82,83
417 73 m 1,97,98
 269.471 111 269.471 111 174.235 111 c 128,-1,99
 79 111 79 111 36.5 98 c 128,-1,100
 -6 85 -6 85 -6 68 c 0,101,102
 -6 26 -6 26 163 26 c 0,103,104
 311.25 26 311.25 26 417 73 c 1,97,98
EndSplineSet
EndChar

StartChar: E
Encoding: 69 69 35
Width: 1127
Flags: HW
LayerCount: 2
Fore
SplineSet
343 -278.5 m 128,-1,1
 343 -285 343 -285 331 -285 c 256,2,3
 290.13 -285 290.13 -285 263.5 -162.5 c 0,4,5
 249.402 -97.6476 249.402 -97.6476 247 -28 c 1,6,-1
 247 1 l 1,7,8
 112.572 14.6376 112.572 14.6376 29.5 88 c 0,9,10
 -49.9642 158.176 -49.9642 158.176 -52 262 c 1,11,12
 -55.8918 388.484 -55.8918 388.484 25 504.5 c 0,13,14
 144.976 676.571 144.976 676.571 385 733.5 c 0,15,16
 463 752 463 752 549 752 c 2,17,-1
 555 752 l 1,18,19
 528 789 528 789 516 837 c 1,20,21
 359 871 359 871 260.5 943.5 c 128,-1,22
 162 1016 162 1016 119 1113 c 1,23,24
 113 1123.5 113 1123.5 113 1136.75 c 128,-1,25
 113 1150 113 1150 122.5 1150 c 128,-1,26
 132 1150 132 1150 142 1126 c 0,27,28
 233.083 921.568 233.083 921.568 511 864 c 1,29,30
 510 869 510 869 510 875 c 128,-1,31
 510 881 510 881 510 887 c 0,32,33
 508.096 1035.52 508.096 1035.52 604.5 1159 c 0,34,35
 737.742 1329.67 737.742 1329.67 977 1384.5 c 0,36,37
 1049 1401 1049 1401 1119 1401 c 0,38,39
 1281 1401 1281 1401 1371 1343.5 c 128,-1,40
 1461 1286 1461 1286 1461 1183 c 0,41,42
 1461 1106 1461 1106 1405 1038.5 c 128,-1,43
 1349 971 1349 971 1253.5 921 c 0,44,45
 1047.22 813 1047.22 813 764 813 c 0,46,47
 676 813 676 813 600 823 c 1,48,49
 609.778 783.889 609.778 783.889 633 748 c 1,50,51
 731 737 731 737 781.5 708.5 c 128,-1,52
 832 680 832 680 833 649 c 1,53,54
 833 617 833 617 784.5 617 c 0,55,56
 676.681 617 676.681 617 584 716 c 1,57,58
 389.622 695.067 389.622 695.067 219 539.5 c 0,59,60
 113.563 443.366 113.563 443.366 72 335.5 c 0,61,62
 51 281 51 281 52.5 215 c 128,-1,63
 54 149 54 149 103.5 95.5 c 128,-1,64
 153 42 153 42 249 27 c 1,65,66
 265.378 211.256 265.378 211.256 395 356 c 0,67,68
 528.433 505 528.433 505 689 505 c 0,69,70
 752.105 505 752.105 505 798.5 464 c 128,-1,71
 845 422.907 845 422.907 845 355.953 c 128,-1,72
 845 289 845 289 804 221.5 c 128,-1,73
 763 154 763 154 691 104.5 c 0,74,75
 536.091 -2.00002 536.091 -2.00002 313 -2 c 1,76,-1
 277 -1 l 1,77,78
 276 -9 276 -9 276 -16 c 2,79,-1
 276 -31 l 2,80,81
 276 -132.857 276 -132.857 309.5 -219 c 0,82,83
 321.909 -250.909 321.909 -250.909 332.455 -261.455 c 128,-1,0
 343 -272 343 -272 343 -278.5 c 128,-1,1
596 850 m 1,84,85
 652 842 652 842 736.5 842 c 128,-1,86
 821 842 821 842 900 853.5 c 128,-1,87
 979 865 979 865 1054.5 887 c 128,-1,88
 1130 909 1130 909 1197 941 c 128,-1,89
 1264 973 1264 973 1314.5 1014.5 c 0,90,91
 1424 1104.49 1424 1104.49 1424 1213 c 0,92,93
 1424 1283.74 1424 1283.74 1352 1329 c 0,94,95
 1277.23 1376 1277.23 1376 1181.61 1376 c 128,-1,96
 1086 1376 1086 1376 1018 1352 c 128,-1,97
 950 1328 950 1328 887.5 1288 c 128,-1,98
 825 1248 825 1248 772 1196 c 128,-1,99
 719 1144 719 1144 679.5 1087 c 0,100,101
 596 966.506 596 966.506 596 864 c 2,102,-1
 596 850 l 1,84,85
655 718 m 1,103,104
 724.086 640 724.086 640 796 640 c 0,105,106
 812 640 812 640 812 650 c 128,-1,107
 812 660 812 660 799.5 670.5 c 128,-1,108
 787 681 787 681 766 691 c 0,109,110
 717.219 714.229 717.219 714.229 655 718 c 1,103,104
278 24 m 1,111,112
 298 22 298 22 335 22 c 128,-1,113
 372 22 372 22 428 40 c 128,-1,114
 484 58 484 58 537.5 87.5 c 128,-1,115
 591 117 591 117 638.5 155.5 c 128,-1,116
 686 194 686 194 721.5 235.5 c 0,117,118
 799 326.099 799 326.099 799 394 c 0,119,120
 799 436 799 436 768 458 c 128,-1,121
 737 480 737 480 683 480 c 128,-1,122
 629 480 629 480 560.5 447.5 c 128,-1,123
 492 415 492 415 432.5 355 c 0,124,125
 296.856 218.216 296.856 218.216 278 24 c 1,111,112
EndSplineSet
EndChar

StartChar: F
Encoding: 70 70 36
Width: 1293
Flags: HW
LayerCount: 2
Fore
SplineSet
398 961 m 0,0,1
 398 852 398 852 504 852 c 0,2,3
 639.243 852 639.243 852 788 980 c 0,4,5
 875.119 1054.96 875.119 1054.96 908.06 1115.48 c 128,-1,6
 941 1176 941 1176 944 1198.5 c 0,7,8
 948.333 1231 948.333 1231 954 1231 c 0,9,10
 964 1231 964 1231 964 1195.5 c 128,-1,11
 964 1160 964 1160 946 1111.5 c 128,-1,12
 928 1063 928 1063 896.5 1019 c 128,-1,13
 865 975 865 975 823.5 937.5 c 128,-1,14
 782 900 782 900 734.5 872.5 c 0,15,16
 633.455 814 633.455 814 546.227 814 c 128,-1,17
 459 814 459 814 414 849.5 c 128,-1,18
 369 885 369 885 369 949.5 c 128,-1,19
 369 1014 369 1014 406.5 1078 c 128,-1,20
 444 1142 444 1142 513.5 1200 c 0,21,22
 663.714 1325.36 663.714 1325.36 902 1382 c 1,23,24
 1042.8 1414 1042.8 1414 1263 1414 c 0,25,26
 1334.77 1414 1334.77 1414 1435.38 1402 c 0,27,28
 1628.23 1379 1628.23 1379 1697.62 1379 c 128,-1,29
 1767 1379 1767 1379 1825 1392 c 128,-1,30
 1883 1405 1883 1405 1928 1429 c 0,31,32
 2014.82 1475.3 2014.82 1475.3 2063 1557 c 1,33,34
 2074.33 1574 2074.33 1574 2084.17 1574 c 128,-1,35
 2094 1574 2094 1574 2094 1568.5 c 0,36,37
 2094 1557.29 2094 1557.29 2085 1547 c 1,38,39
 1923.83 1290 1923.83 1290 1571 1290 c 0,40,41
 1485.65 1290 1485.65 1290 1354.82 1306 c 0,42,43
 1101.35 1337 1101.35 1337 1021.18 1337 c 128,-1,44
 941 1337 941 1337 865.5 1321.5 c 128,-1,45
 790 1306 790 1306 721 1279 c 128,-1,46
 652 1252 652 1252 593 1215.5 c 128,-1,47
 534 1179 534 1179 490.5 1137 c 0,48,49
 398 1047.69 398 1047.69 398 961 c 0,0,1
-16 147 m 128,-1,51
 -33 132 -33 132 -59.6667 132 c 128,-1,52
 -86.3333 132 -86.3333 132 -103 142 c 1,53,-1
 -103 137 l 2,54,55
 -103 89.2222 -103 89.2222 -45 57 c 0,56,57
 10.8 26 10.8 26 75.9 26 c 128,-1,58
 141 26 141 26 188.5 35 c 128,-1,59
 236 44 236 44 287 68 c 128,-1,60
 338 92 338 92 393.5 134.5 c 128,-1,61
 449 177 449 177 510.5 244 c 0,62,63
 639.34 384.363 639.34 384.363 784 628 c 0,64,65
 787 634 787 634 789 636 c 1,66,67
 451.47 560.683 451.47 560.683 302 426.5 c 0,68,69
 258 387 258 387 243.5 361.5 c 0,70,71
 224.451 328 224.451 328 217.225 328 c 128,-1,72
 210 328 210 328 210 333 c 0,73,74
 210 344.6 210 344.6 217 353 c 1,75,76
 255.403 443.955 255.403 443.955 418.5 535.5 c 0,77,78
 584.679 628.774 584.679 628.774 809 676 c 0,79,80
 812 676 812 676 814 677 c 1,81,82
 979.416 935.122 979.416 935.122 1200 1090 c 0,83,84
 1383.73 1219 1383.73 1219 1507 1219 c 0,85,86
 1530 1219 1530 1219 1530 1212 c 128,-1,87
 1530 1205 1530 1205 1522 1203.5 c 128,-1,88
 1514 1202 1514 1202 1471.5 1189.5 c 128,-1,89
 1429 1177 1429 1177 1365 1136 c 128,-1,90
 1301 1095 1301 1095 1234 1033.5 c 0,91,92
 1098.23 908.877 1098.23 908.877 971 715 c 1,93,94
 1111.8 751.336 1111.8 751.336 1182 776 c 1,95,96
 1203 790 1203 790 1216 816 c 1,97,98
 1255.8 816 1255.8 816 1307.4 810 c 128,-1,99
 1359 804 1359 804 1368 801 c 1,100,101
 1251.6 747.789 1251.6 747.789 1155.5 606 c 0,102,103
 1125 561 1125 561 1113.5 532 c 128,-1,104
 1102 503 1102 503 1098.5 500 c 128,-1,105
 1095 497 1095 497 1090 497 c 0,106,107
 1078 497 1078 497 1078 511 c 0,108,109
 1078 533.436 1078 533.436 1113 609.718 c 128,-1,110
 1148 686 1148 686 1173 724 c 1,111,112
 1133 711 1133 711 1070.5 697 c 2,113,-1
 942 669 l 1,114,115
 846.667 502.167 846.667 502.167 728.833 359.083 c 128,-1,116
 611 216 611 216 509.5 139.5 c 0,117,118
 323.085 -1.00001 323.085 -1.00001 89 -1 c 0,119,120
 -0.625001 -1 -0.625001 -1 -70.5 42 c 0,121,122
 -143 86.6154 -143 86.6154 -143 145 c 0,123,124
 -143 206.727 -143 206.727 -81.5 223.5 c 0,125,126
 -65 228 -65 228 -49 228 c 128,-1,127
 -33 228 -33 228 -16 217 c 128,-1,128
 1 206 1 206 1 184 c 128,-1,50
 1 162 1 162 -16 147 c 128,-1,51
EndSplineSet
EndChar

StartChar: G
Encoding: 71 71 37
Width: 1133
Flags: HW
LayerCount: 2
Fore
SplineSet
1200 961 m 256,0,1
 1224 961 1224 961 1224 950 c 256,2,3
 1224 940.727 1224 940.727 1201.5 930.364 c 128,-1,4
 1179 920 1179 920 1148 893.5 c 128,-1,5
 1117 867 1117 867 1079 822 c 128,-1,6
 1041 777 1041 777 993.5 709.5 c 1,7,-1
 885 548 l 1,8,9
 532.36 -3.00002 532.36 -3.00002 99 -3 c 0,10,11
 0.923079 -3 0.923079 -3 -71 39.5 c 128,-1,12
 -143 82.0455 -143 82.0455 -143 141 c 0,13,14
 -143 203.727 -143 203.727 -81.5 220.5 c 0,15,16
 -65 225 -65 225 -49 225 c 128,-1,17
 -33 225 -33 225 -16 214.5 c 128,-1,18
 1 204 1 204 1 181.5 c 128,-1,19
 1 159 1 159 -16 144.5 c 128,-1,20
 -33 130 -33 130 -60.5 130 c 128,-1,21
 -88 130 -88 130 -103 139 c 1,22,-1
 -103 133 l 2,23,24
 -103 58.3077 -103 58.3077 20 31.5 c 0,25,26
 59 23 59 23 113.5 23 c 128,-1,27
 168 23 168 23 230 45 c 128,-1,28
 292 67 292 67 360 118.5 c 0,29,30
 497.447 222.596 497.447 222.596 677 462 c 1,31,32
 744.047 547.15 744.047 547.15 781.524 590.575 c 0,33,34
 878.606 702.364 878.606 702.364 910 736 c 1,35,36
 620.914 529 620.914 529 446 529 c 0,37,38
 372.074 529 372.074 529 346.037 547.5 c 0,39,40
 299 580.921 299 580.921 299 645 c 0,41,42
 299 663 299 663 304 698 c 1,43,44
 266 695 266 695 215.5 695 c 0,45,46
 108.4 695 108.4 695 22 743 c 1,47,48
 -5 756.5 -5 756.5 -5 765.25 c 128,-1,49
 -5 774 -5 774 2 774 c 128,-1,50
 9 774 9 774 26.5 764 c 128,-1,51
 44 754 44 754 68.5 744.5 c 128,-1,52
 93 735 93 735 119.5 728 c 0,53,54
 168.714 715 168.714 715 221.857 715 c 128,-1,55
 275 715 275 715 308 718 c 1,56,57
 344.981 873.71 344.981 873.71 510 1048.5 c 0,58,59
 664.12 1211.74 664.12 1211.74 867.5 1324.5 c 0,60,61
 1075.83 1440 1075.83 1440 1233 1440 c 0,62,63
 1299 1440 1299 1440 1326.5 1419 c 128,-1,64
 1354 1398 1354 1398 1354 1346.5 c 128,-1,65
 1354 1295 1354 1295 1308.5 1227.5 c 128,-1,66
 1263 1160 1263 1160 1180.5 1089 c 0,67,68
 1008.96 941.374 1008.96 941.374 730 812 c 1,69,70
 572.491 741.535 572.491 741.535 413 712 c 1,71,72
 381 650 381 650 381 624.5 c 128,-1,73
 381 599 381 599 385 589.5 c 128,-1,74
 389 580 389 580 398 572.5 c 0,75,76
 419 555 419 555 462.5 555 c 128,-1,77
 506 555 506 555 561 571.5 c 128,-1,78
 616 588 616 588 686.5 625 c 0,79,80
 833.471 702.134 833.471 702.134 1047 868 c 1,81,82
 1162.14 961 1162.14 961 1200 961 c 256,0,1
1330 1363 m 0,83,84
 1330 1417 1330 1417 1252 1417 c 0,85,86
 1077.96 1417 1077.96 1417 799 1173.5 c 0,87,88
 620.798 1017.95 620.798 1017.95 493 841 c 0,89,90
 454 787 454 787 427 739 c 1,91,92
 565.344 771.665 565.344 771.665 717.672 850.332 c 128,-1,93
 870 929 870 929 978 1004.5 c 128,-1,94
 1086 1080 1086 1080 1164 1149.5 c 0,95,96
 1330 1297.41 1330 1297.41 1330 1363 c 0,83,84
EndSplineSet
EndChar

StartChar: H
Encoding: 72 72 38
Width: 1586
Flags: HW
LayerCount: 2
Fore
SplineSet
-203 135.5 m 128,-1,1
 -220 121 -220 121 -247.5 121 c 128,-1,2
 -275 121 -275 121 -290 130 c 1,3,-1
 -290 124 l 2,4,5
 -290 80 -290 80 -247.5 52 c 128,-1,6
 -205 24 -205 24 -147 24 c 0,7,8
 -14.3125 24 -14.3125 24 112 118 c 0,9,10
 204.558 186.88 204.558 186.88 302.779 299.44 c 1,11,-1
 490 523 l 1,12,13
 461 515 461 515 434.5 506.5 c 2,14,-1
 383 490 l 1,15,16
 100.563 392.431 100.563 392.431 9 250 c 0,17,18
 4 241 4 241 -2.5 241 c 128,-1,19
 -9 241 -9 241 -7.5 246.5 c 128,-1,20
 -6 252 -6 252 -5.5 255.5 c 128,-1,21
 -5 259 -5 259 3.5 276.5 c 128,-1,22
 12 294 12 294 39 320.5 c 128,-1,23
 66 347 66 347 99.5 371.5 c 0,24,25
 209.532 451.971 209.532 451.971 312.266 488.986 c 128,-1,26
 415 526 415 526 515 555 c 1,27,28
 576 639 576 639 634.5 711.5 c 1,29,30
 781.69 889.607 781.69 889.607 831.345 943.303 c 2,31,32
 912 1029 l 1,33,34
 736.194 920 736.194 920 628 920 c 0,35,36
 577 920 577 920 543.5 944.5 c 128,-1,37
 510 969 510 969 510 1006.5 c 128,-1,38
 510 1044 510 1044 516 1068 c 128,-1,39
 522 1092 522 1092 537.5 1117.5 c 0,40,41
 569.022 1169.36 569.022 1169.36 648 1231 c 0,42,43
 699.134 1271.37 699.134 1271.37 703.067 1282.18 c 128,-1,44
 707 1293 707 1293 707 1298 c 0,45,46
 707 1328 707 1328 675.5 1347 c 128,-1,47
 644 1366 644 1366 572.5 1366 c 0,48,49
 413.093 1366 413.093 1366 294 1257 c 0,50,51
 278.25 1243 278.25 1243 268.125 1243 c 128,-1,52
 258 1243 258 1243 258 1250.5 c 0,53,54
 258 1260 258 1260 276 1278 c 1,55,56
 400.26 1387 400.26 1387 576 1387 c 0,57,58
 660 1387 660 1387 705.5 1356.5 c 128,-1,59
 751 1326 751 1326 751 1273 c 0,60,61
 751 1211.6 751 1211.6 726.5 1173.8 c 0,62,63
 682.707 1106.23 682.707 1106.23 597 1051 c 0,64,65
 565 1031 565 1031 556 1020.5 c 128,-1,66
 547 1010 547 1010 547 999.5 c 128,-1,67
 547 989 547 989 551.5 980.5 c 128,-1,68
 556 972 556 972 567 964.5 c 0,69,70
 592.667 947 592.667 947 632.333 947 c 128,-1,71
 672 947 672 947 713 959 c 128,-1,72
 754 971 754 971 799.5 994 c 0,73,74
 898.788 1044.19 898.788 1044.19 978.894 1114.59 c 0,75,76
 1207.93 1314.45 1207.93 1314.45 1252.96 1343.73 c 128,-1,77
 1298 1373 1298 1373 1318.5 1383 c 2,78,-1
 1347.5 1397 l 2,79,80
 1356 1401 1356 1401 1365.5 1401 c 128,-1,81
 1375 1401 1375 1401 1375 1396.5 c 128,-1,82
 1375 1392 1375 1392 1370.5 1389.5 c 128,-1,83
 1366 1387 1366 1387 1358 1382 c 128,-1,84
 1350 1377 1350 1377 1344.5 1374 c 128,-1,85
 1339 1371 1339 1371 1331 1365.5 c 2,86,-1
 1281 1330 l 1,87,88
 1186.19 1252.26 1186.19 1252.26 1095.6 1138.63 c 1,89,-1
 939 935.5 l 1,90,-1
 798 741 l 1,91,-1
 688 602 l 1,92,-1
 1075 698 l 1,93,-1
 1126 759 l 1,94,95
 1344.59 1015.99 1344.59 1015.99 1615 1215.5 c 0,96,97
 1878.62 1410 1878.62 1410 2004 1410 c 0,98,99
 2049 1410 2049 1410 2071.5 1389.5 c 128,-1,100
 2094 1369 2094 1369 2094 1337.5 c 128,-1,101
 2094 1306 2094 1306 2066.5 1259 c 128,-1,102
 2039 1212 2039 1212 1986.5 1157.5 c 128,-1,103
 1934 1103 1934 1103 1858 1044 c 128,-1,104
 1782 985 1782 985 1685.5 927 c 0,105,106
 1470.03 797.495 1470.03 797.495 1226 718 c 1,107,108
 968.182 404.702 968.182 404.702 879 212.5 c 0,109,110
 850 150 850 150 850 108 c 128,-1,111
 850 66 850 66 869 44.5 c 128,-1,112
 888 23 888 23 938.5 23 c 128,-1,113
 989 23 989 23 1049.5 55.5 c 128,-1,114
 1110 88 1110 88 1166 148 c 0,115,116
 1290.09 280.958 1290.09 280.958 1350 480 c 0,117,118
 1358.57 510 1358.57 510 1374 510 c 0,119,120
 1382 510 1382 510 1385.5 477.5 c 128,-1,121
 1389 445 1389 445 1372.5 395 c 128,-1,122
 1356 345 1356 345 1325 291.5 c 128,-1,123
 1294 238 1294 238 1249.5 185.5 c 128,-1,124
 1205 133 1205 133 1153 91 c 0,125,126
 1037.86 -1.99997 1037.86 -1.99997 926 -2 c 0,127,128
 836.174 -2 836.174 -2 805.5 81 c 0,129,130
 797 104 797 104 797 139.5 c 128,-1,131
 797 175 797 175 809 230.5 c 128,-1,132
 821 286 821 286 850.5 352 c 0,133,134
 913.659 493.306 913.659 493.306 1050 667 c 1,135,136
 959 641 959 641 858.5 617 c 2,137,-1
 660 568 l 1,138,-1
 512 397 l 1,139,140
 370.358 241.194 370.358 241.194 280.679 172.097 c 128,-1,141
 191 103 191 103 127.5 67 c 0,142,143
 5.79167 -2 5.79167 -2 -139 -2 c 0,144,145
 -218.25 -2 -218.25 -2 -273.5 37 c 0,146,147
 -329 76.1765 -329 76.1765 -329 132 c 0,148,149
 -329 193.727 -329 193.727 -267.5 210.5 c 0,150,151
 -251 215 -251 215 -236 215 c 0,152,153
 -186 215 -186 215 -186 170 c 0,154,0
 -186 150 -186 150 -203 135.5 c 128,-1,1
1256 753 m 1,155,156
 1575.79 875.777 1575.79 875.777 1826 1078 c 0,157,158
 1974.21 1197.79 1974.21 1197.79 2031 1285 c 0,159,160
 2059 1328 2059 1328 2059 1355 c 0,161,162
 2059 1389 2059 1389 2015.5 1389 c 128,-1,163
 1972 1389 1972 1389 1920 1364 c 128,-1,164
 1868 1339 1868 1339 1806.5 1295.5 c 128,-1,165
 1745 1252 1745 1252 1676.5 1191.5 c 128,-1,166
 1608 1131 1608 1131 1537 1060.5 c 128,-1,167
 1466 990 1466 990 1394.5 911.5 c 1,168,-1
 1256 753 l 1,155,156
EndSplineSet
EndChar

StartChar: I
Encoding: 73 73 39
Width: 1110
Flags: HW
LayerCount: 2
Fore
SplineSet
1207 857 m 128,-1,1
 1237 943 1237 943 1237 1004.5 c 128,-1,2
 1237 1066 1237 1066 1248.5 1066 c 128,-1,3
 1260 1066 1260 1066 1260 993.5 c 128,-1,4
 1260 921 1260 921 1230 833.5 c 128,-1,5
 1200 746 1200 746 1149 670.5 c 128,-1,6
 1098 595 1098 595 1029 533.5 c 128,-1,7
 960 472 960 472 881.5 428.5 c 0,8,9
 716.379 337 716.379 337 556 337 c 2,10,-1
 533 337 l 1,11,12
 283.577 93.736 283.577 93.736 51.5 21.5 c 0,13,14
 -24 -2 -24 -2 -83.5 -2 c 128,-1,15
 -143 -2 -143 -2 -184 9.5 c 128,-1,16
 -225 21 -225 21 -253.5 40.5 c 0,17,18
 -310.537 79.5254 -310.537 79.5254 -317 142 c 1,19,20
 -322.484 205.069 -322.484 205.069 -264 227 c 0,21,22
 -206.533 248.55 -206.533 248.55 -184.5 214.5 c 0,23,24
 -165.491 185.122 -165.491 185.122 -185.746 163.561 c 128,-1,25
 -206 142 -206 142 -224 140 c 0,26,27
 -258.364 136.182 -258.364 136.182 -276 145 c 1,28,-1
 -276 139 l 1,29,30
 -271 91 -271 91 -224 57.5 c 128,-1,31
 -177 24 -177 24 -106 24 c 128,-1,32
 -35 24 -35 24 22 41 c 128,-1,33
 79 58 79 58 141 97.5 c 0,34,35
 262.06 174.627 262.06 174.627 421 363 c 1,36,37
 288 424.75 288 424.75 288 608 c 0,38,39
 288 794.466 288 794.466 442 978 c 0,40,41
 595.651 1161.12 595.651 1161.12 843.5 1272.5 c 0,42,43
 1109.41 1392 1109.41 1392 1402 1392 c 1,44,-1
 1577 1378 l 1,45,-1
 1679 1385 l 1,46,47
 1716 1385 1716 1385 1716 1371 c 0,48,49
 1716 1353.74 1716 1353.74 1680.5 1351.87 c 128,-1,50
 1645 1350 1645 1350 1615.5 1350.5 c 128,-1,51
 1586 1351 1586 1351 1560 1351 c 1,52,53
 1531 1344 1531 1344 1510 1336.5 c 2,54,-1
 1466 1320 l 1,55,56
 1168.86 1188.79 1168.86 1188.79 813 673 c 1,57,58
 690.574 497.523 690.574 497.523 560 365 c 1,59,-1
 568 365 l 2,60,61
 709.793 365 709.793 365 866.5 456.5 c 0,62,63
 1025.1 549.104 1025.1 549.104 1126 696.5 c 0,64,0
 1177 771 1177 771 1207 857 c 128,-1,1
1509 1358 m 1,65,66
 1457 1366 1457 1366 1392 1366 c 128,-1,67
 1327 1366 1327 1366 1240 1345.5 c 128,-1,68
 1153 1325 1153 1325 1063 1288.5 c 128,-1,69
 973 1252 973 1252 884.5 1202 c 128,-1,70
 796 1152 796 1152 715 1093 c 128,-1,71
 634 1034 634 1034 565 969.5 c 128,-1,72
 496 905 496 905 445 838.5 c 0,73,74
 336 696.373 336 696.373 336 583 c 0,75,76
 336 428.783 336 428.783 439 384 c 1,77,78
 542.505 514.565 542.505 514.565 598 592 c 0,79,80
 863.293 957.474 863.293 957.474 1114 1156.5 c 0,81,82
 1322.55 1322.06 1322.55 1322.06 1509 1358 c 1,65,66
EndSplineSet
EndChar

StartChar: J
Encoding: 74 74 40
Width: 1082
Flags: HW
LayerCount: 2
Fore
SplineSet
751 226.5 m 128,-1,1
 759 231 759 231 765.5 228.75 c 128,-1,2
 772 226.5 772 226.5 771.5 221.75 c 0,3,4
 770.143 208.857 770.143 208.857 739.071 195.929 c 0,5,6
 661.23 163.973 661.23 163.973 632.115 152.987 c 2,7,-1
 573.5 131.5 l 2,8,9
 544 121 544 121 505 109 c 2,10,-1
 296 49 l 1,11,12
 -164.369 -520.801 -164.369 -520.801 -446.5 -671 c 0,13,14
 -577.987 -741 -577.987 -741 -697 -741 c 0,15,16
 -741.518 -741 -741.518 -741 -760.259 -719 c 0,17,18
 -789 -685.261 -789 -685.261 -789 -638.63 c 128,-1,19
 -789 -592 -789 -592 -756.5 -529 c 128,-1,20
 -724 -466 -724 -466 -663.5 -401 c 128,-1,21
 -603 -336 -603 -336 -518 -272 c 128,-1,22
 -433 -208 -433 -208 -328.5 -149.5 c 0,23,24
 -109.964 -27.1617 -109.964 -27.1617 155 46 c 1,25,-1
 376 347 l 1,26,27
 315 380 315 380 275 440 c 128,-1,28
 235 500 235 500 235 594 c 128,-1,29
 235 688 235 688 277.5 790.5 c 128,-1,30
 320 893 320 893 396 984 c 128,-1,31
 472 1075 472 1075 576.5 1151.5 c 128,-1,32
 681 1228 681 1228 804.5 1283.5 c 0,33,34
 1065.96 1401 1065.96 1401 1346 1401 c 1,35,-1
 1530 1387 l 1,36,-1
 1632 1394 l 1,37,38
 1670 1394 1670 1394 1670 1381 c 0,39,40
 1670 1359 1670 1359 1578 1359 c 1,41,-1
 1513 1360 l 1,42,43
 1340 1318 1340 1318 1147.5 1139.5 c 128,-1,44
 955 961 955 961 756 658 c 1,45,-1
 522 340 l 1,46,47
 657.86 340 657.86 340 819 456.5 c 0,48,49
 971.797 566.968 971.797 566.968 1079.5 728 c 0,50,51
 1191 894.709 1191 894.709 1191 1035 c 0,52,53
 1191 1066 1191 1066 1202 1066 c 128,-1,54
 1213 1066 1213 1066 1213 1002 c 128,-1,55
 1213 938 1213 938 1184.5 853.5 c 128,-1,56
 1156 769 1156 769 1106 690.5 c 128,-1,57
 1056 612 1056 612 988 543.5 c 128,-1,58
 920 475 920 475 842 423.5 c 0,59,60
 674.641 313 674.641 313 511 313 c 2,61,-1
 501 313 l 1,62,63
 376.809 148.84 376.809 148.84 330 92 c 1,64,-1
 449.5 123.5 l 2,65,66
 588.615 160.897 588.615 160.897 665.808 191.448 c 128,-1,0
 743 222 743 222 751 226.5 c 128,-1,1
1463 1367 m 1,67,68
 1411 1375 1411 1375 1346 1375 c 128,-1,69
 1281 1375 1281 1375 1194.5 1354.5 c 128,-1,70
 1108 1334 1108 1334 1018.5 1297 c 128,-1,71
 929 1260 929 1260 840 1209.5 c 128,-1,72
 751 1159 751 1159 670 1099.5 c 128,-1,73
 589 1040 589 1040 519.5 973 c 128,-1,74
 450 906 450 906 399 837 c 0,75,76
 290 689.529 290 689.529 290 565 c 0,77,78
 290 432.745 290 432.745 394 373 c 1,79,-1
 515 545 l 1,80,81
 770.421 909.887 770.421 909.887 1051 1138 c 0,82,83
 1281.01 1325 1281.01 1325 1463 1367 c 1,67,68
121 1 m 1,84,85
 -50.4124 -57.3932 -50.4124 -57.3932 -268 -189.5 c 0,86,87
 -593.532 -387.144 -593.532 -387.144 -717 -560 c 0,88,89
 -757 -616 -757 -616 -757 -649 c 128,-1,90
 -757 -682 -757 -682 -739.5 -699 c 128,-1,91
 -722 -716 -722 -716 -694 -716 c 0,92,93
 -423.92 -716 -423.92 -716 121 1 c 1,84,85
EndSplineSet
EndChar

StartChar: K
Encoding: 75 75 41
Width: 1693
Flags: HW
LayerCount: 2
Fore
SplineSet
985 1321 m 0,0,1
 985 1383 985 1383 876 1383 c 0,2,3
 699.667 1383 699.667 1383 555 1243.5 c 0,4,5
 472.778 1164.21 472.778 1164.21 439.389 1095.11 c 128,-1,6
 406 1026 406 1026 399.5 1000 c 0,7,8
 390 962 390 962 384 962 c 0,9,10
 373 962 373 962 373 973.5 c 2,11,-1
 373 988 l 2,12,13
 373 1003.57 373 1003.57 396 1055.78 c 128,-1,14
 419 1108 419 1108 449 1154 c 128,-1,15
 479 1200 479 1200 521 1246 c 128,-1,16
 563 1292 563 1292 617 1328.5 c 0,17,18
 739.055 1411 739.055 1411 883 1411 c 0,19,20
 990.757 1411 990.757 1411 1030 1350.5 c 0,21,22
 1042 1332 1042 1332 1042 1296 c 128,-1,23
 1042 1260 1042 1260 1008.5 1205 c 128,-1,24
 975 1150 975 1150 894 1099 c 1,25,-1
 850 1070.5 l 2,26,27
 834 1060 834 1060 834 1044.5 c 0,28,29
 834 1011 834 1011 889 1011 c 0,30,31
 1088.83 1011 1088.83 1011 1377 1255 c 1,32,33
 1617.4 1446 1617.4 1446 1679 1446 c 0,34,35
 1693 1446 1693 1446 1693 1437.5 c 128,-1,36
 1693 1429 1693 1429 1677.5 1424.5 c 128,-1,37
 1662 1420 1662 1420 1630.5 1403.5 c 128,-1,38
 1599 1387 1599 1387 1554.5 1353.5 c 128,-1,39
 1510 1320 1510 1320 1451 1264.5 c 128,-1,40
 1392 1209 1392 1209 1316 1125 c 128,-1,41
 1240 1041 1240 1041 1145 924 c 1,42,-1
 933 651 l 1,43,44
 688.29 324.721 688.29 324.721 437 152.5 c 0,45,46
 211.566 -2 211.566 -2 25 -2 c 0,47,48
 -115.592 -2 -115.592 -2 -160.5 79.5 c 0,49,50
 -174 104 -174 104 -174 129.5 c 128,-1,51
 -174 155 -174 155 -165 171 c 128,-1,52
 -156 187 -156 187 -142.5 196.5 c 0,53,54
 -116.211 215 -116.211 215 -90.6053 215 c 0,55,56
 -31 215 -31 215 -31 170 c 0,57,58
 -31 150 -31 150 -48 135.5 c 128,-1,59
 -65 121 -65 121 -92.5 121 c 128,-1,60
 -120 121 -120 121 -135 130 c 1,61,-1
 -135 124 l 2,62,63
 -135 80 -135 80 -92.5 52 c 128,-1,64
 -50 24 -50 24 15.5 24 c 128,-1,65
 81 24 81 24 149.5 50.5 c 128,-1,66
 218 77 218 77 300.5 139 c 0,67,68
 474.82 270.004 474.82 270.004 689 560 c 0,69,70
 768.653 668.101 768.653 668.101 877.327 777.55 c 1,71,-1
 1065.5 962 l 1,72,-1
 1229 1115 l 1,73,74
 1029.95 983 1029.95 983 889 983 c 0,75,76
 789 983 789 983 789 1064 c 0,77,78
 789 1159.72 789 1159.72 938 1267 c 1,79,80
 985 1298.96 985 1298.96 985 1321 c 0,0,1
1518 521 m 0,81,82
 1530 521 1530 521 1530 478.5 c 128,-1,83
 1530 436 1530 436 1507.5 380.5 c 128,-1,84
 1485 325 1485 325 1447.5 269.5 c 128,-1,85
 1410 214 1410 214 1360.5 163 c 128,-1,86
 1311 112 1311 112 1257 72.5 c 0,87,88
 1138.75 -14 1138.75 -14 1043 -14 c 0,89,90
 907 -14 907 -14 907 90 c 0,91,92
 907 163.785 907 163.785 951 236.892 c 0,93,94
 1033.76 374.397 1033.76 374.397 1203 540 c 1,95,96
 1252.81 587.187 1252.81 587.187 1269 656 c 0,97,98
 1273 673 1273 673 1273 684 c 128,-1,99
 1273 695 1273 695 1270 704 c 1,100,101
 1210 685 1210 685 1158.5 683.5 c 128,-1,102
 1107 682 1107 682 1077 698.5 c 128,-1,103
 1047 715 1047 715 1047 733.5 c 128,-1,104
 1047 752 1047 752 1072.5 766 c 128,-1,105
 1098 780 1098 780 1144.5 781.5 c 0,106,107
 1239.44 784.562 1239.44 784.562 1283 741 c 1,108,109
 1389.63 794.317 1389.63 794.317 1556 983 c 1,110,111
 1750.75 1194.93 1750.75 1194.93 1959.5 1308.5 c 0,112,113
 2149.74 1412 2149.74 1412 2294 1412 c 0,114,115
 2369 1412 2369 1412 2406 1374.5 c 128,-1,116
 2443 1337 2443 1337 2433 1281 c 0,117,118
 2421.01 1212.07 2421.01 1212.07 2366 1188 c 0,119,120
 2350 1181 2350 1181 2327.5 1181 c 128,-1,121
 2305 1181 2305 1181 2293 1199.5 c 128,-1,122
 2281 1218 2281 1218 2284.5 1238.5 c 128,-1,123
 2288 1259 2288 1259 2308 1275.5 c 128,-1,124
 2328 1292 2328 1292 2354 1292 c 128,-1,125
 2380 1292 2380 1292 2397 1277 c 1,126,127
 2407.9 1326.03 2407.9 1326.03 2387.95 1347.52 c 0,128,129
 2349.43 1389 2349.43 1389 2299.21 1389 c 128,-1,130
 2249 1389 2249 1389 2206.5 1376 c 128,-1,131
 2164 1363 2164 1363 2112 1331 c 0,132,133
 2024.55 1277.19 2024.55 1277.19 1837 1102 c 1,134,135
 1529.18 798.428 1529.18 798.428 1303 715 c 1,136,137
 1321 679 1321 679 1321 637.5 c 128,-1,138
 1321 596 1321 596 1311 550 c 128,-1,139
 1301 504 1301 504 1272 450 c 0,140,141
 1208.79 332.291 1208.79 332.291 1053 193 c 0,142,143
 960 109.621 960 109.621 960 67 c 0,144,145
 960 41 960 41 980 27.5 c 128,-1,146
 1000 14 1000 14 1043.5 14 c 128,-1,147
 1087 14 1087 14 1127.5 29 c 128,-1,148
 1168 44 1168 44 1212 73 c 128,-1,149
 1256 102 1256 102 1300 143.5 c 128,-1,150
 1344 185 1344 185 1383.5 238 c 0,151,152
 1470.02 354.095 1470.02 354.095 1504 490 c 0,153,154
 1512 521 1512 521 1518 521 c 0,81,82
1112 750.5 m 128,-1,156
 1096 742 1096 742 1096 734.5 c 128,-1,157
 1096 727 1096 727 1113 718.5 c 128,-1,158
 1130 710 1130 710 1161 711.5 c 0,159,160
 1214.91 714.109 1214.91 714.109 1254 729 c 1,161,162
 1216.24 764.66 1216.24 764.66 1151 760 c 0,163,155
 1128 759 1128 759 1112 750.5 c 128,-1,156
EndSplineSet
EndChar

StartChar: L
Encoding: 76 76 42
Width: 1347
Flags: HW
LayerCount: 2
Fore
SplineSet
286 67 m 1,0,1
 128.286 -2 128.286 -2 -60 -2 c 0,2,3
 -219.931 -2 -219.931 -2 -267 50.5 c 0,4,5
 -280 65 -280 65 -280 84 c 128,-1,6
 -280 103 -280 103 -264 122 c 128,-1,7
 -248 141 -248 141 -218.5 154.5 c 0,8,9
 -158.407 182 -158.407 182 -42.5272 182 c 128,-1,10
 73.3529 182 73.3529 182 271 112 c 1,11,12
 412.962 205.396 412.962 205.396 619 486 c 1,13,14
 414.508 491.899 414.508 491.899 286 576.5 c 0,15,16
 160 659.45 160 659.45 160 790 c 0,17,18
 160 920.771 160 920.771 279.5 1031.5 c 0,19,20
 401.99 1145 401.99 1145 553 1145 c 0,21,22
 575 1145 575 1145 575 1133 c 0,23,24
 575 1123.67 575 1123.67 520 1118.33 c 128,-1,25
 465 1113 465 1113 407.5 1083 c 128,-1,26
 350 1053 350 1053 311.5 1009.5 c 0,27,28
 235 923.065 235 923.065 235 830.032 c 128,-1,29
 235 737 235 737 263.5 681 c 128,-1,30
 292 625 292 625 345 588.5 c 0,31,32
 448.74 517.057 448.74 517.057 640 515 c 1,33,-1
 776 712 l 1,34,35
 1023.66 1082.49 1023.66 1082.49 1231.5 1243.5 c 0,36,37
 1434.82 1401 1434.82 1401 1653 1401 c 0,38,39
 1768.87 1401 1768.87 1401 1807 1329.5 c 0,40,41
 1819 1307 1819 1307 1819 1267 c 128,-1,42
 1819 1227 1819 1227 1792.5 1168.5 c 128,-1,43
 1766 1110 1766 1110 1718.5 1049 c 128,-1,44
 1671 988 1671 988 1606 927 c 128,-1,45
 1541 866 1541 866 1464 809 c 128,-1,46
 1387 752 1387 752 1300.5 701 c 128,-1,47
 1214 650 1214 650 1124 608.5 c 0,48,49
 935.124 521.407 935.124 521.407 769 496 c 1,50,51
 549.267 202.357 549.267 202.357 332 89 c 1,52,53
 514.419 24 514.419 24 767 24 c 0,54,55
 991 24 991 24 1094 127 c 0,56,57
 1109.43 142.429 1109.43 142.429 1113.21 132.714 c 0,58,59
 1119.52 116.524 1119.52 116.524 1098 95 c 1,60,61
 961.333 -25 961.333 -25 777 -25 c 128,-1,62
 592.667 -25 592.667 -25 286 67 c 1,0,1
793 528 m 1,63,64
 1003.47 564.353 1003.47 564.353 1237.5 699.5 c 0,65,66
 1453.57 824.272 1453.57 824.272 1601 987.5 c 0,67,68
 1752 1154.68 1752 1154.68 1752 1286 c 0,69,70
 1752 1343.95 1752 1343.95 1688.5 1370 c 0,71,72
 1669 1378 1669 1378 1647 1378 c 0,73,74
 1328.95 1378 1328.95 1378 1026 880 c 1,75,-1
 906.5 691.5 l 1,76,77
 849 604 849 604 793 528 c 1,63,64
-48 131 m 0,78,79
 -252 131 -252 131 -252 81 c 0,80,81
 -252 46.7273 -252 46.7273 -149 28 c 0,82,83
 -116 22 -116 22 -51.5 22 c 0,84,85
 109.947 22 109.947 22 226 85 c 1,86,87
 52.2222 131 52.2222 131 -48 131 c 0,78,79
EndSplineSet
EndChar

StartChar: M
Encoding: 77 77 43
Width: 1750
Flags: HW
LayerCount: 2
Fore
SplineSet
1140 67 m 0,0,1
 1140 25 1140 25 1198 25 c 0,2,3
 1284.61 25 1284.61 25 1405 96 c 0,4,5
 1444 119 1444 119 1474 148 c 1,6,7
 1479 145 1479 145 1479 135 c 256,8,9
 1479 117 1479 117 1474 112 c 0,10,11
 1377.82 33.3048 1377.82 33.3048 1242.5 5.5 c 0,12,13
 1206 -2 1206 -2 1162.5 -2 c 128,-1,14
 1119 -2 1119 -2 1089.5 25 c 128,-1,15
 1060 52 1060 52 1060 80 c 128,-1,16
 1060 108 1060 108 1065.5 130 c 128,-1,17
 1071 152 1071 152 1086 185 c 0,18,19
 1153.64 333.798 1153.64 333.798 1334 564 c 1,20,-1
 1491 756.5 l 1,21,-1
 1655.5 943 l 1,22,-1
 1818.5 1117.5 l 1,23,-1
 1971 1274.5 l 1,24,-1
 2104 1407 l 1,25,26
 2074 1386 2074 1386 2040.5 1359 c 2,27,-1
 1965 1295.5 l 1,28,-1
 1746 1097 l 1,29,-1
 1387 757 l 1,30,31
 1107.48 490.636 1107.48 490.636 769 96 c 0,32,33
 691.867 6.99997 691.867 6.99997 667 7 c 0,34,35
 660 7 660 7 652.5 16.5 c 128,-1,36
 645 26 645 26 645 65.5 c 128,-1,37
 645 105 645 105 671.5 185.5 c 128,-1,38
 698 266 698 266 747.5 365 c 128,-1,39
 797 464 797 464 867.5 578.5 c 128,-1,40
 938 693 938 693 1026.5 817 c 0,41,42
 1211.02 1075.53 1211.02 1075.53 1441 1335 c 1,43,-1
 1362.5 1259 l 1,44,-1
 1236 1130 l 1,45,-1
 1058 941 l 1,46,-1
 825 687 l 1,47,48
 392.948 213.259 392.948 213.259 93 59 c 0,49,50
 -25.125 -1 -25.125 -1 -119 -1 c 128,-1,51
 -213 -1 -213 -1 -260 34.5 c 128,-1,52
 -307 70 -307 70 -307 127 c 0,53,54
 -307 168.667 -307 168.667 -284.5 187.833 c 0,55,56
 -249.087 218 -249.087 218 -223.543 218 c 0,57,58
 -163 218 -163 218 -163 172 c 0,59,60
 -163 152 -163 152 -180 137 c 128,-1,61
 -197 122 -197 122 -224.643 122 c 128,-1,62
 -252.286 122 -252.286 122 -268 133 c 1,63,-1
 -269 121 l 1,64,65
 -269 77 -269 77 -231.5 51.5 c 128,-1,66
 -194 26 -194 26 -132.5 26 c 128,-1,67
 -71 26 -71 26 -12.5 44.5 c 128,-1,68
 46 63 46 63 118 105.5 c 128,-1,69
 190 148 190 148 278.5 217 c 128,-1,70
 367 286 367 286 475 386 c 128,-1,71
 583 486 583 486 714 619.5 c 1,72,-1
 1003 926 l 1,73,74
 1259.82 1206.95 1259.82 1206.95 1441 1368 c 0,75,76
 1571.5 1484 1571.5 1484 1595 1484 c 256,77,78
 1622 1484 1622 1484 1622 1474 c 256,79,80
 1622 1468.33 1622 1468.33 1609.5 1457.17 c 2,81,-1
 1582.5 1433 l 2,82,83
 1535.18 1390.57 1535.18 1390.57 1485.09 1320.79 c 1,84,-1
 1377 1164 l 1,85,-1
 1114.5 758.5 l 1,86,87
 747.551 163.275 747.551 163.275 701 65 c 1,88,-1
 867.5 256 l 1,89,-1
 1013 418 l 1,90,-1
 1151 565.5 l 1,91,-1
 1295 712.5 l 1,92,-1
 1458.5 872.5 l 1,93,-1
 1655 1060 l 1,94,95
 2110.23 1487 2110.23 1487 2228 1487 c 0,96,97
 2238 1487 2238 1487 2238 1479 c 256,98,99
 2238 1471 2238 1471 2212 1453.5 c 128,-1,100
 2186 1436 2186 1436 2138 1394 c 128,-1,101
 2090 1352 2090 1352 2016 1271 c 128,-1,102
 1942 1190 1942 1190 1864 1094 c 1,103,-1
 1705.5 891 l 1,104,-1
 1545.5 674.5 l 1,105,106
 1185.89 168.189 1185.89 168.189 1165.95 132.094 c 0,107,108
 1140 85.1429 1140 85.1429 1140 67 c 0,0,1
EndSplineSet
EndChar

StartChar: N
Encoding: 78 78 44
Width: 1432
Flags: HW
LayerCount: 2
Fore
SplineSet
687 -8 m 128,-1,1
 687 3 687 3 693 7.5 c 0,2,3
 741.066 45.117 741.066 45.117 779.5 150.5 c 0,4,5
 795 193 795 193 813 250.5 c 2,6,-1
 855 388 l 2,7,8
 974.064 776.06 974.064 776.06 1228 1209 c 1,9,-1
 960 878.5 l 1,10,-1
 768 655 l 1,11,-1
 649 522 l 1,12,13
 287.27 126.261 287.27 126.261 83.5 32 c 0,14,15
 10 -2 10 -2 -46.5 -2 c 128,-1,16
 -103 -2 -103 -2 -141 8.5 c 128,-1,17
 -179 19 -179 19 -203.5 37.5 c 0,18,19
 -253 74.8775 -253 74.8775 -253 133 c 0,20,21
 -253 173 -253 173 -230.5 190.5 c 0,22,23
 -196.429 217 -196.429 217 -169.714 217 c 0,24,25
 -109 217 -109 217 -109 171 c 0,26,27
 -109 151 -109 151 -126 136 c 128,-1,28
 -143 121 -143 121 -169.667 121 c 128,-1,29
 -196.333 121 -196.333 121 -213 131 c 1,30,-1
 -213 125 l 2,31,32
 -213 81 -213 81 -174.5 53 c 128,-1,33
 -136 25 -136 25 -72 25 c 128,-1,34
 -8 25 -8 25 57 53 c 128,-1,35
 122 81 122 81 209 145.5 c 0,36,37
 396.475 284.49 396.475 284.49 658 578 c 1,38,-1
 935 896 l 1,39,40
 1276.05 1303.58 1276.05 1303.58 1319 1368 c 1,41,42
 1337.33 1390 1337.33 1390 1345.17 1390 c 128,-1,43
 1353 1390 1353 1390 1353 1383 c 128,-1,44
 1353 1376 1353 1376 1349 1368 c 2,45,-1
 1335 1342 l 1,46,47
 1298.46 1280.62 1298.46 1280.62 1278.73 1211.31 c 128,-1,48
 1259 1142 1259 1142 1248.5 1101.5 c 128,-1,49
 1238 1061 1238 1061 1224 1013.5 c 2,50,-1
 1191.5 907.5 l 1,51,52
 1120.72 683.681 1120.72 683.681 1020 491 c 1,53,54
 846 178 l 1,55,-1
 1149 537.5 l 1,56,-1
 1282 690 l 1,57,-1
 1419.5 842.5 l 1,58,-1
 1555 986 l 1,59,60
 1936.91 1382.27 1936.91 1382.27 2197 1466.5 c 0,61,62
 2285 1495 2285 1495 2380.5 1495.5 c 128,-1,63
 2476 1496 2476 1496 2529.5 1449.5 c 128,-1,64
 2583 1403 2583 1403 2584 1318 c 0,65,66
 2586.03 1222.54 2586.03 1222.54 2487.5 1106 c 0,67,68
 2386.18 986.165 2386.18 986.165 2232 912 c 0,69,70
 2195.88 895 2195.88 895 2180.44 895 c 128,-1,71
 2165 895 2165 895 2165 902.5 c 128,-1,72
 2165 910 2165 910 2203.5 925.5 c 128,-1,73
 2242 941 2242 941 2302.5 982 c 128,-1,74
 2363 1023 2363 1023 2411.5 1074.5 c 0,75,76
 2521 1190.77 2521 1190.77 2521 1301 c 0,77,78
 2521 1380 2521 1380 2478.5 1423.5 c 128,-1,79
 2436 1467 2436 1467 2355.5 1467 c 128,-1,80
 2275 1467 2275 1467 2181 1432 c 128,-1,81
 2087 1397 2087 1397 1976 1320.5 c 0,82,83
 1756.88 1169.48 1756.88 1169.48 1447 830 c 1,84,-1
 1214.5 569 l 1,85,-1
 1019.5 341 l 1,86,-1
 757 28 l 2,87,88
 717.581 -19 717.581 -19 702.29 -19 c 128,-1,0
 687 -19 687 -19 687 -8 c 128,-1,1
512 1150 m 1,89,90
 493.625 1129 493.625 1129 473.812 1129 c 128,-1,91
 454 1129 454 1129 439 1141.5 c 128,-1,92
 424 1154 424 1154 424 1172.5 c 128,-1,93
 424 1191 424 1191 436.5 1205 c 128,-1,94
 449 1219 449 1219 470 1219 c 128,-1,95
 491 1219 491 1219 508.5 1209.5 c 128,-1,96
 526 1200 526 1200 539.5 1182.5 c 0,97,98
 570 1142.96 570 1142.96 570 1083.48 c 128,-1,99
 570 1024 570 1024 543 974.5 c 128,-1,100
 516 925 516 925 471.5 889.5 c 0,101,102
 378.113 815 378.113 815 255 815 c 0,103,104
 130.406 815 130.406 815 49 883.5 c 0,105,106
 -41 959.232 -41 959.232 -41 1091 c 256,107,108
 -41 1232.66 -41 1232.66 84 1328 c 0,109,110
 209.867 1424 209.867 1424 409 1424 c 0,111,112
 527.667 1424 527.667 1424 589.333 1405.5 c 128,-1,113
 651 1387 651 1387 696 1368.5 c 128,-1,114
 741 1350 741 1350 786 1328.5 c 2,115,-1
 888 1281 l 1,116,117
 965.714 1249 965.714 1249 1014.86 1249 c 0,118,119
 1110.25 1249 1110.25 1249 1184.5 1315 c 0,120,121
 1189 1319 1189 1319 1195.5 1319 c 128,-1,122
 1202 1319 1202 1319 1202 1312.5 c 0,123,124
 1202 1303.75 1202 1303.75 1188 1288 c 1,125,126
 1128.59 1228.59 1128.59 1228.59 1010 1204.5 c 0,127,128
 978 1198 978 1198 951 1198 c 128,-1,129
 924 1198 924 1198 887 1204 c 128,-1,130
 850 1210 850 1210 812 1220.5 c 0,131,132
 734.675 1241.87 734.675 1241.87 672.338 1277.93 c 128,-1,133
 610 1314 610 1314 565.5 1334.5 c 128,-1,134
 521 1355 521 1355 485.5 1366.5 c 0,135,136
 428.391 1385 428.391 1385 356.196 1385 c 128,-1,137
 284 1385 284 1385 217.5 1362.5 c 128,-1,138
 151 1340 151 1340 100.5 1299.5 c 0,139,140
 -9 1211.68 -9 1211.68 -9 1085 c 0,141,142
 -9 977.912 -9 977.912 62 909 c 0,143,144
 134.121 839 134.121 839 251 839 c 0,145,146
 361.524 839 361.524 839 446.5 903.5 c 0,147,148
 539 973.711 539 973.711 539 1081 c 0,149,150
 539 1120.75 539 1120.75 512 1150 c 1,89,90
EndSplineSet
EndChar

StartChar: O
Encoding: 79 79 45
Width: 1269
Flags: HW
LayerCount: 2
Fore
SplineSet
1228 925 m 0,0,1
 1228 1093 1228 1093 1058 1093 c 0,2,3
 930.688 1093 930.688 1093 793 994.5 c 0,4,5
 576.099 839.332 576.099 839.332 498 576.5 c 0,6,7
 472 489 472 489 472 432.5 c 128,-1,8
 472 376 472 376 474 353 c 128,-1,9
 476 330 476 330 481.5 306 c 0,10,11
 494.739 248.23 494.739 248.23 507.369 230.115 c 128,-1,12
 520 212 520 212 522.5 206.5 c 128,-1,13
 525 201 525 201 518 197 c 1,14,15
 502.733 190.893 502.733 190.893 476.5 247.5 c 0,16,17
 442 321.947 442 321.947 442 412.474 c 128,-1,18
 442 503 442 503 467 593 c 128,-1,19
 492 683 492 683 536 762 c 128,-1,20
 580 841 580 841 640 907 c 128,-1,21
 700 973 700 973 769.5 1020.5 c 0,22,23
 916.547 1121 916.547 1121 1068 1121 c 0,24,25
 1154.59 1121 1154.59 1121 1212.5 1068 c 0,26,27
 1277 1008.97 1277 1008.97 1277 906.483 c 128,-1,28
 1277 804 1277 804 1238 700.5 c 128,-1,29
 1199 597 1199 597 1131 497 c 128,-1,30
 1063 397 1063 397 971 306.5 c 128,-1,31
 879 216 879 216 773 147.5 c 0,32,33
 541.657 -2.00001 541.657 -2.00001 323 -2 c 0,34,35
 130.211 -2 130.211 -2 63.5 167 c 0,36,37
 41 224 41 224 41 309 c 128,-1,38
 41 394 41 394 69.5 491 c 128,-1,39
 98 588 98 588 149.5 683 c 128,-1,40
 201 778 201 778 272.5 868 c 128,-1,41
 344 958 344 958 430 1038 c 128,-1,42
 516 1118 516 1118 613.5 1184.5 c 128,-1,43
 711 1251 711 1251 814 1299 c 0,44,45
 1032.88 1401 1032.88 1401 1233 1401 c 0,46,47
 1435.43 1401 1435.43 1401 1488 1274.5 c 0,48,49
 1504 1236 1504 1236 1504 1203.5 c 128,-1,50
 1504 1171 1504 1171 1500 1147.5 c 128,-1,51
 1496 1124 1496 1124 1489.5 1101 c 0,52,53
 1471.18 1036.18 1471.18 1036.18 1454.59 1019.59 c 128,-1,54
 1438 1003 1438 1003 1431.5 1003 c 128,-1,55
 1425 1003 1425 1003 1425 1009.5 c 0,56,57
 1425 1017.67 1425 1017.67 1435 1031 c 256,58,59
 1459.23 1063.31 1459.23 1063.31 1467.62 1114.66 c 128,-1,60
 1476 1166 1476 1166 1476 1197.5 c 128,-1,61
 1476 1229 1476 1229 1461.5 1263 c 128,-1,62
 1447 1297 1447 1297 1416 1321.5 c 0,63,64
 1350.84 1373 1350.84 1373 1245.92 1373 c 128,-1,65
 1141 1373 1141 1373 1050 1341 c 128,-1,66
 959 1309 959 1309 866 1253 c 128,-1,67
 773 1197 773 1197 681 1121 c 128,-1,68
 589 1045 589 1045 505.5 957.5 c 128,-1,69
 422 870 422 870 350.5 775 c 128,-1,70
 279 680 279 680 226.5 586 c 0,71,72
 114 384.571 114 384.571 114 237 c 0,73,74
 114 87.3902 114 87.3902 238 39 c 0,75,76
 279 23 279 23 352 23 c 128,-1,77
 425 23 425 23 526 63 c 128,-1,78
 627 103 627 103 726.5 171 c 128,-1,79
 826 239 826 239 916.5 329 c 128,-1,80
 1007 419 1007 419 1076.5 519 c 0,81,82
 1228 736.986 1228 736.986 1228 925 c 0,0,1
EndSplineSet
EndChar

StartChar: P
Encoding: 80 80 46
Width: 1276
Flags: HW
LayerCount: 2
Fore
SplineSet
744 582 m 1,0,1
 308.655 -2.00002 308.655 -2.00002 -14 -2 c 0,2,3
 -170.898 -2 -170.898 -2 -213.5 81.5 c 0,4,5
 -226 106 -226 106 -226 131.5 c 128,-1,6
 -226 157 -226 157 -217 173 c 128,-1,7
 -208 189 -208 189 -194.5 199 c 0,8,9
 -168.85 218 -168.85 218 -132 218 c 256,10,11
 -117 218 -117 218 -99.5 207 c 128,-1,12
 -82 196 -82 196 -82 174 c 128,-1,13
 -82 152 -82 152 -99 137 c 128,-1,14
 -116 122 -116 122 -142.667 122 c 128,-1,15
 -169.333 122 -169.333 122 -186 132 c 1,16,-1
 -186 127 l 2,17,18
 -186 82 -186 82 -143.5 54 c 128,-1,19
 -101 26 -101 26 -42.5 26 c 128,-1,20
 16 26 16 26 55 34.5 c 128,-1,21
 94 43 94 43 135.5 66.5 c 128,-1,22
 177 90 177 90 224.5 132 c 128,-1,23
 272 174 272 174 330.5 240.5 c 128,-1,24
 389 307 389 307 462 402 c 1,25,-1
 629 626 l 1,26,27
 573 663 573 663 573 714 c 0,28,29
 573 757.2 573 757.2 611.5 788 c 0,30,31
 647.75 817 647.75 817 683.375 817 c 128,-1,32
 719 817 719 817 719 807 c 256,33,34
 719 802 719 802 707 799 c 0,35,36
 660 791 660 791 636.5 762.5 c 128,-1,37
 613 734 613 734 613 703 c 128,-1,38
 613 672 613 672 646 650 c 1,39,-1
 660 669 l 1,40,41
 824.483 889.648 824.483 889.648 930.242 998.324 c 0,42,43
 1101.42 1174.23 1101.42 1174.23 1264 1286 c 1,44,-1
 1305 1313 l 1,45,46
 1189.37 1384 1189.37 1384 948 1384 c 0,47,48
 705.942 1384 705.942 1384 477.5 1290 c 0,49,50
 270.041 1204.63 270.041 1204.63 139 1065 c 0,51,52
 9.98412 927.524 9.98412 927.524 14 795 c 0,53,54
 15.8232 720.25 15.8232 720.25 62 681 c 0,55,56
 99.6471 649 99.6471 649 154.824 649 c 128,-1,57
 210 649 210 649 271.5 681 c 128,-1,58
 333 713 333 713 390 763.5 c 128,-1,59
 447 814 447 814 497.5 876.5 c 128,-1,60
 548 939 548 939 586.5 1001 c 0,61,62
 668.254 1132.66 668.254 1132.66 677 1207 c 0,63,64
 680.4 1241 680.4 1241 689.7 1241 c 128,-1,65
 699 1241 699 1241 700 1233.5 c 128,-1,66
 701 1226 701 1226 702 1189 c 128,-1,67
 703 1152 703 1152 687 1086 c 128,-1,68
 671 1020 671 1020 638.5 954.5 c 128,-1,69
 606 889 606 889 557.5 829 c 128,-1,70
 509 769 509 769 447 723 c 0,71,72
 310.87 622 310.87 622 147 622 c 0,73,74
 86.0909 622 86.0909 622 38 668 c 0,75,76
 -15.1538 718.843 -15.1538 718.843 -17.5769 794.921 c 128,-1,77
 -20 871 -20 871 18 948 c 128,-1,78
 56 1025 56 1025 124.5 1093.5 c 128,-1,79
 193 1162 193 1162 286.5 1219.5 c 128,-1,80
 380 1277 380 1277 488 1318.5 c 0,81,82
 715.711 1406 715.711 1406 952.27 1406 c 128,-1,83
 1188.83 1406 1188.83 1406 1339 1333 c 1,84,85
 1459.6 1400 1459.6 1400 1520 1400 c 0,86,87
 1538.75 1400 1538.75 1400 1539.38 1392 c 128,-1,88
 1540 1384 1540 1384 1535.5 1380 c 128,-1,89
 1531 1376 1531 1376 1505.5 1371.5 c 0,90,91
 1446.71 1361.13 1446.71 1361.13 1375 1314 c 1,92,93
 1536 1218.59 1536 1218.59 1536 1054 c 0,94,95
 1536 931.674 1536 931.674 1441.5 817 c 0,96,97
 1351.24 707.474 1351.24 707.474 1203 638.5 c 0,98,99
 1051.48 568 1051.48 568 890 568 c 0,100,101
 811 568 811 568 744 582 c 1,0,1
763 607 m 1,102,103
 825.833 594 825.833 594 882.417 594 c 128,-1,104
 939 594 939 594 999.5 609 c 128,-1,105
 1060 624 1060 624 1118.5 653.5 c 128,-1,106
 1177 683 1177 683 1231 727 c 128,-1,107
 1285 771 1285 771 1326 829.5 c 0,108,109
 1416 957.915 1416 957.915 1416 1119 c 0,110,111
 1416 1225 1416 1225 1339 1289 c 1,112,113
 1229 1209 1229 1209 1110 1068 c 128,-1,114
 991 927 991 927 911.5 815 c 2,115,-1
 763 607 l 1,102,103
EndSplineSet
EndChar

StartChar: Q
Encoding: 81 81 47
Width: 1412
Flags: HW
LayerCount: 2
Fore
SplineSet
1610 -93 m 0,0,1
 1622 -93 1622 -93 1622 -105 c 256,2,3
 1622 -126.4 1622 -126.4 1537 -174 c 0,4,5
 1512 -188 1512 -188 1478 -200 c 0,6,7
 1393 -230 1393 -230 1316 -230 c 128,-1,8
 1239 -230 1239 -230 1169 -222 c 128,-1,9
 1099 -214 1099 -214 1020.5 -194 c 0,10,11
 861.798 -153.566 861.798 -153.566 651 -52 c 1,12,-1
 455 39 l 1,13,14
 305 1 305 1 187.5 1 c 128,-1,15
 70 1 70 1 11 10 c 128,-1,16
 -48 19 -48 19 -85.5 34 c 0,17,18
 -157 62.6 -157 62.6 -157 104 c 0,19,20
 -157 135.947 -157 135.947 -95.5 164 c 0,21,22
 -31.9231 193 -31.9231 193 55 193 c 0,23,24
 251.45 193 251.45 193 514 104 c 1,25,26
 556 122 556 122 596.5 143.5 c 2,27,-1
 678 188 l 1,28,29
 932.648 336.276 932.648 336.276 1149 607.5 c 0,30,31
 1291.32 785.914 1291.32 785.914 1351 957 c 0,32,33
 1381 1043 1381 1043 1381 1121 c 0,34,35
 1381 1240 1381 1240 1312 1308.5 c 128,-1,36
 1243 1377 1243 1377 1096 1377 c 0,37,38
 837.913 1377 837.913 1377 561 1087.5 c 0,39,40
 383.564 901.998 383.564 901.998 320 741.5 c 0,41,42
 300 691 300 691 300 659 c 128,-1,43
 300 627 300 627 307.5 599.5 c 128,-1,44
 315 572 315 572 334.5 550 c 0,45,46
 378.818 500 378.818 500 471 500 c 0,47,48
 569.134 500 569.134 500 704 605.5 c 0,49,50
 833.225 706.587 833.225 706.587 936 851.5 c 0,51,52
 1043.37 1002.89 1043.37 1002.89 1069 1135 c 0,53,54
 1075 1165 1075 1165 1080 1165 c 0,55,56
 1096 1165 1096 1165 1096 1134 c 0,57,58
 1096 985.109 1096 985.109 997 828 c 0,59,60
 901.973 677.196 901.973 677.196 758 579.5 c 0,61,62
 606.947 477 606.947 477 466 477 c 0,63,64
 360.3 477 360.3 477 299.5 541 c 0,65,66
 242 601.526 242 601.526 242 683.763 c 128,-1,67
 242 766 242 766 268 838.5 c 128,-1,68
 294 911 294 911 347.5 986.5 c 0,69,70
 463.866 1150.72 463.866 1150.72 673 1280 c 0,71,72
 813.442 1366.66 813.442 1366.66 999.5 1393 c 0,73,74
 1056 1401 1056 1401 1114.5 1401 c 128,-1,75
 1173 1401 1173 1401 1232.5 1383 c 128,-1,76
 1292 1365 1292 1365 1337 1325.5 c 0,77,78
 1434 1240.36 1434 1240.36 1434 1073 c 0,79,80
 1434 754.949 1434 754.949 1181.5 473.5 c 0,81,82
 940.334 204.684 940.334 204.684 585 78 c 1,83,84
 645.714 52.9048 645.714 52.9048 721.357 17.4524 c 128,-1,85
 797 -18 797 -18 904.5 -63.5 c 128,-1,86
 1012 -109 1012 -109 1095 -137 c 0,87,88
 1252.11 -190 1252.11 -190 1333.55 -190 c 0,89,90
 1478.4 -190 1478.4 -190 1560 -130 c 1,91,-1
 1597 -99 l 1,92,93
 1601 -97 1601 -97 1603.5 -95 c 128,-1,94
 1606 -93 1606 -93 1610 -93 c 0,0,1
401 63 m 1,95,96
 169.8 165 169.8 165 44 165 c 0,97,98
 -27 165 -27 165 -59 149.5 c 128,-1,99
 -91 134 -91 134 -91 113 c 256,100,101
 -91 49.5 -91 49.5 53 31.5 c 0,102,103
 97 26 97 26 158 26 c 0,104,105
 279.722 26 279.722 26 401 63 c 1,95,96
EndSplineSet
EndChar

StartChar: R
Encoding: 82 82 48
Width: 1506
Flags: HW
LayerCount: 2
Fore
SplineSet
829 659.5 m 128,-1,1
 849 671 849 671 906.179 671 c 128,-1,2
 963.357 671 963.357 671 1008 646 c 1,3,4
 1145.81 703.919 1145.81 703.919 1255.5 853.5 c 0,5,6
 1365.04 1002.87 1365.04 1002.87 1361 1126 c 0,7,8
 1358 1206 1358 1206 1298 1263 c 1,9,10
 1052.3 1097.15 1052.3 1097.15 790 716 c 1,11,12
 383.69 148.28 383.69 148.28 83 33.5 c 0,13,14
 -10 -2 -10 -2 -77.5 -2 c 128,-1,15
 -145 -2 -145 -2 -185 8.5 c 128,-1,16
 -225 19 -225 19 -251.5 38 c 0,17,18
 -303 74.9245 -303 74.9245 -303 135 c 0,19,20
 -303 196.727 -303 196.727 -241.5 213.5 c 0,21,22
 -225 218 -225 218 -209 218 c 128,-1,23
 -193 218 -193 218 -176.5 207 c 128,-1,24
 -160 196 -160 196 -160 174 c 128,-1,25
 -160 152 -160 152 -176.5 137 c 128,-1,26
 -193 122 -193 122 -220.143 122 c 128,-1,27
 -247.286 122 -247.286 122 -263 133 c 1,28,-1
 -263 127 l 2,29,30
 -263 82 -263 82 -221 54 c 128,-1,31
 -179 26 -179 26 -119.5 26 c 128,-1,32
 -60 26 -60 26 -20 35 c 128,-1,33
 20 44 20 44 63 68.5 c 128,-1,34
 106 93 106 93 154 136.5 c 128,-1,35
 202 180 202 180 262 249 c 128,-1,36
 322 318 322 318 397.5 416 c 1,37,-1
 571 648 l 1,38,39
 785.394 948.151 785.394 948.151 1055 1152 c 0,40,41
 1199.48 1261.24 1199.48 1261.24 1261 1292 c 1,42,43
 1140.49 1373 1140.49 1373 904 1373 c 0,44,45
 684.337 1373 684.337 1373 474 1275.5 c 0,46,47
 283.391 1187.14 283.391 1187.14 164 1047.5 c 0,48,49
 45.9539 909.428 45.9539 909.428 50 784 c 0,50,51
 51.7907 710.58 51.7907 710.58 105.5 670 c 0,52,53
 147.853 638 147.853 638 206.926 638 c 128,-1,54
 266 638 266 638 327.5 670 c 128,-1,55
 389 702 389 702 446 753.5 c 128,-1,56
 503 805 503 805 553.5 868.5 c 128,-1,57
 604 932 604 932 643 995 c 0,58,59
 724.224 1126.21 724.224 1126.21 733 1203 c 0,60,61
 736.4 1237 736.4 1237 746.2 1237 c 128,-1,62
 756 1237 756 1237 757 1229.5 c 128,-1,63
 758 1222 758 1222 759 1184 c 128,-1,64
 760 1146 760 1146 744 1079 c 128,-1,65
 728 1012 728 1012 695.5 946 c 128,-1,66
 663 880 663 880 614.5 820 c 128,-1,67
 566 760 566 760 504 713.5 c 0,68,69
 368.667 612 368.667 612 204 612 c 0,70,71
 134.581 612 134.581 612 78.5 657.5 c 0,72,73
 17.9036 706.663 17.9036 706.663 15.4518 784.332 c 128,-1,74
 13 862 13 862 50 940 c 128,-1,75
 87 1018 87 1018 152.5 1087 c 128,-1,76
 218 1156 218 1156 307 1214 c 128,-1,77
 396 1272 396 1272 497 1313.5 c 0,78,79
 709.952 1401 709.952 1401 930.443 1401 c 128,-1,80
 1150.93 1401 1150.93 1401 1292 1309 c 1,81,82
 1440.08 1384 1440.08 1384 1509 1384 c 0,83,84
 1527.75 1384 1527.75 1384 1528.38 1376 c 128,-1,85
 1529 1368 1529 1368 1523 1364 c 128,-1,86
 1517 1360 1517 1360 1489 1355 c 0,87,88
 1426.64 1343.86 1426.64 1343.86 1328 1283 c 1,89,90
 1444.11 1189.3 1444.11 1189.3 1450 1042 c 0,91,92
 1456.08 914.27 1456.08 914.27 1343 797 c 0,93,94
 1227.56 677.279 1227.56 677.279 1040 622 c 1,95,96
 1069 592 1069 592 1070.5 551 c 128,-1,97
 1072 510 1072 510 1066 477 c 128,-1,98
 1060 444 1060 444 1039 404 c 0,99,100
 998.105 326.105 998.105 326.105 869 197 c 1,101,102
 809.562 147.752 809.562 147.752 812 99 c 1,103,104
 812 26 812 26 917 26 c 0,105,106
 1039.44 26 1039.44 26 1169.5 155 c 0,107,108
 1303.22 287.638 1303.22 287.638 1368 480 c 1,109,110
 1376.57 510 1376.57 510 1382 510 c 0,111,112
 1400 510 1400 510 1400 466.5 c 128,-1,113
 1400 423 1400 423 1377.5 365 c 128,-1,114
 1355 307 1355 307 1317 253 c 128,-1,115
 1279 199 1279 199 1229 152.5 c 128,-1,116
 1179 106 1179 106 1124.5 71.5 c 0,117,118
 1008.39 -2 1008.39 -2 919.696 -2 c 128,-1,119
 831 -2 831 -2 787 32.5 c 128,-1,120
 743 67 743 67 741 121.5 c 128,-1,121
 739 176 739 176 754 223 c 128,-1,122
 769 270 769 270 794.5 310.5 c 128,-1,123
 820 351 820 351 851.5 386 c 2,124,-1
 914 453 l 1,125,126
 985.273 511.074 985.273 511.074 993.5 555.5 c 0,127,128
 996 569 996 569 996 583 c 256,129,130
 996 597 996 597 990 609 c 1,131,132
 944.167 598 944.167 598 900.083 598 c 128,-1,133
 856 598 856 598 834 609.5 c 128,-1,134
 812 621 812 621 810.5 634.5 c 128,-1,0
 809 648 809 648 829 659.5 c 128,-1,1
967 632 m 1,135,136
 939 648 939 648 893 648 c 128,-1,137
 847 648 847 648 847 640.5 c 0,138,139
 847 621 847 621 888 621 c 128,-1,140
 929 621 929 621 967 632 c 1,135,136
EndSplineSet
EndChar

StartChar: S
Encoding: 83 83 49
Width: 1162
Flags: HW
LayerCount: 2
Fore
SplineSet
10 137 m 128,-1,1
 -7 122 -7 122 -33.1667 122 c 128,-1,2
 -59.3333 122 -59.3333 122 -76 132 c 1,3,-1
 -76 127 l 2,4,5
 -76 83.6596 -76 83.6596 -25.5 52.5 c 0,6,7
 23.931 22 23.931 22 96.4655 22 c 128,-1,8
 169 22 169 22 230.5 47 c 128,-1,9
 292 72 292 72 346 115.5 c 128,-1,10
 400 159 400 159 448.5 218 c 128,-1,11
 497 277 497 277 542 344 c 128,-1,12
 587 411 587 411 630.5 483.5 c 2,13,-1
 739 660 l 1,14,15
 496.195 668.161 496.195 668.161 345.5 756.5 c 0,16,17
 189.283 848.076 189.283 848.076 199 988 c 1,18,19
 204 1077 204 1077 264 1152.5 c 128,-1,20
 324 1228 324 1228 420.5 1283.5 c 0,21,22
 624.802 1401 624.802 1401 905 1401 c 0,23,24
 1020 1401 1020 1401 1075 1373.5 c 0,25,26
 1090 1366 1090 1366 1090 1360.5 c 128,-1,27
 1090 1355 1090 1355 1080.5 1355 c 128,-1,28
 1071 1355 1071 1355 1064.5 1356.5 c 128,-1,29
 1058 1358 1058 1358 1038 1362.5 c 0,30,31
 969.111 1378 969.111 1378 898.056 1378 c 128,-1,32
 827 1378 827 1378 750.5 1364.5 c 128,-1,33
 674 1351 674 1351 604 1326 c 128,-1,34
 534 1301 534 1301 473.5 1265 c 128,-1,35
 413 1229 413 1229 368 1183.5 c 0,36,37
 271.764 1086.19 271.764 1086.19 266 969 c 1,38,39
 259.212 867.185 259.212 867.185 380 786 c 0,40,41
 519.31 692.365 519.31 692.365 755 685 c 1,42,43
 1102.04 1233.26 1102.04 1233.26 1389.5 1359.5 c 0,44,45
 1484 1401 1484 1401 1559 1401 c 0,46,47
 1707.2 1401 1707.2 1401 1701 1277 c 0,48,49
 1694.77 1171.13 1694.77 1171.13 1585.5 1040 c 0,50,51
 1404.96 823.354 1404.96 823.354 1113.5 717.5 c 0,52,53
 1013 681 1013 681 905 667 c 1,54,-1
 790 496 l 1,55,56
 520.629 105.876 520.629 105.876 272 23 c 0,57,58
 197 -2 197 -2 128 -2 c 128,-1,59
 59 -2 59 -2 16.5 8.5 c 128,-1,60
 -26 19 -26 19 -55.5 38 c 0,61,62
 -116 76.9661 -116 76.9661 -116 135 c 0,63,64
 -116 196.727 -116 196.727 -54.5 213.5 c 0,65,66
 -38 218 -38 218 -22 218 c 128,-1,67
 -6 218 -6 218 10.5 207 c 128,-1,68
 27 196 27 196 27 174 c 128,-1,0
 27 152 27 152 10 137 c 128,-1,1
924 695 m 1,69,70
 1203.66 741.61 1203.66 741.61 1426 937 c 0,71,72
 1559.39 1054.22 1559.39 1054.22 1616 1172.5 c 0,73,74
 1678.64 1303.36 1678.64 1303.36 1626 1356 c 0,75,76
 1606 1376 1606 1376 1558.5 1375 c 128,-1,77
 1511 1374 1511 1374 1446 1336 c 128,-1,78
 1381 1298 1381 1298 1309.5 1226 c 0,79,80
 1175.07 1090.63 1175.07 1090.63 995 805 c 1,81,82
 936.808 716.096 936.808 716.096 924 695 c 1,69,70
EndSplineSet
EndChar

StartChar: T
Encoding: 84 84 50
Width: 1145
Flags: HW
LayerCount: 2
Fore
SplineSet
979 1246 m 0,0,1
 990 1246 990 1246 990 1205.5 c 128,-1,2
 990 1165 990 1165 970.5 1110.5 c 128,-1,3
 951 1056 951 1056 918 1006.5 c 128,-1,4
 885 957 885 957 841 914.5 c 128,-1,5
 797 872 797 872 747.5 841 c 0,6,7
 642.113 775 642.113 775 556.056 775 c 128,-1,8
 470 775 470 775 427.5 817 c 128,-1,9
 385 859 385 859 385 919.5 c 128,-1,10
 385 980 385 980 417.5 1038 c 128,-1,11
 450 1096 450 1096 508.5 1151.5 c 0,12,13
 638.532 1274.86 638.532 1274.86 823 1337 c 0,14,15
 964 1384 964 1384 1189 1384 c 0,16,17
 1331.6 1384 1331.6 1384 1465 1355 c 1,18,19
 1577 1335 1577 1335 1654 1335 c 128,-1,20
 1731 1335 1731 1335 1786.5 1349.5 c 128,-1,21
 1842 1364 1842 1364 1890.5 1388.5 c 0,22,23
 1991.92 1439.73 1991.92 1439.73 2036 1509 c 0,24,25
 2045.92 1526 2045.92 1526 2055.96 1526 c 128,-1,26
 2066 1526 2066 1526 2066 1514 c 128,-1,27
 2066 1502 2066 1502 2030.5 1459 c 128,-1,28
 1995 1416 1995 1416 1936.5 1378 c 128,-1,29
 1878 1340 1878 1340 1806.5 1312.5 c 0,30,31
 1654.4 1254 1654.4 1254 1488 1254 c 0,32,33
 1384.5 1254 1384.5 1254 1261.25 1279.5 c 0,34,35
 1070.33 1319 1070.33 1319 981.667 1319 c 128,-1,36
 893 1319 893 1319 830 1301.5 c 128,-1,37
 767 1284 767 1284 707 1254.5 c 128,-1,38
 647 1225 647 1225 593.5 1186 c 128,-1,39
 540 1147 540 1147 500 1103 c 0,40,41
 413 1007.3 413 1007.3 413 923 c 0,42,43
 413 845.413 413 845.413 483 816.5 c 0,44,45
 506 807 506 807 541 807 c 128,-1,46
 576 807 576 807 620.5 828.5 c 128,-1,47
 665 850 665 850 710 885.5 c 128,-1,48
 755 921 755 921 798 965.5 c 128,-1,49
 841 1010 841 1010 875.5 1056 c 0,50,51
 951.597 1157.46 951.597 1157.46 967 1221 c 0,52,53
 972.556 1246 972.556 1246 979 1246 c 0,0,1
-123.5 168 m 128,-1,55
 -140 153 -140 153 -167.167 153 c 128,-1,56
 -194.333 153 -194.333 153 -211 163 c 1,57,-1
 -211 157 l 2,58,59
 -211 60.506 -211 60.506 -73.5 34 c 0,60,61
 -32 26 -32 26 29.5 26 c 128,-1,62
 91 26 91 26 171 53.5 c 128,-1,63
 251 81 251 81 330.5 136.5 c 0,64,65
 497.526 253.103 497.526 253.103 637 472 c 0,66,67
 681 541 681 541 737 612.5 c 1,68,-1
 860 763 l 1,69,70
 1016.02 942.605 1016.02 942.605 1172.5 1074 c 0,71,72
 1307.07 1187 1307.07 1187 1344 1187 c 0,73,74
 1358 1187 1358 1187 1358 1178.5 c 0,75,76
 1358 1167.73 1358 1167.73 1330 1149.86 c 128,-1,77
 1302 1132 1302 1132 1274.5 1112 c 128,-1,78
 1247 1092 1247 1092 1222.5 1069 c 128,-1,79
 1198 1046 1198 1046 1174 1017.5 c 128,-1,80
 1150 989 1150 989 1121 949 c 128,-1,81
 1092 909 1092 909 1056 854.5 c 2,82,-1
 972 726 l 1,83,84
 499.881 -1.99998 499.881 -1.99998 8 -2 c 0,85,86
 -99.0233 -2 -99.0233 -2 -172.5 42.5 c 0,87,88
 -251 90.0423 -251 90.0423 -251 165 c 0,89,90
 -251 205 -251 205 -228.5 222.5 c 0,91,92
 -194.429 249 -194.429 249 -167.714 249 c 0,93,94
 -107 249 -107 249 -107 203 c 0,95,54
 -107 183 -107 183 -123.5 168 c 128,-1,55
EndSplineSet
EndChar

StartChar: U
Encoding: 85 85 51
Width: 1225
Flags: HW
LayerCount: 2
Fore
SplineSet
112 -2 m 0,0,1
 17.1124 -2 17.1124 -2 13 89.5 c 0,2,3
 5.87321 248.071 5.87321 248.071 282.5 563 c 0,4,5
 380 674 380 674 502.5 790.5 c 128,-1,6
 625 907 625 907 691.5 977 c 128,-1,7
 758 1047 758 1047 796 1097.5 c 0,8,9
 864.107 1188.01 864.107 1188.01 861.053 1251.01 c 0,10,11
 855.237 1371 855.237 1371 660 1371 c 0,12,13
 434.411 1371 434.411 1371 221 1207.5 c 0,14,15
 94.5423 1110.62 94.5423 1110.62 44 1006.5 c 0,16,17
 19 955 19 955 21 907.5 c 128,-1,18
 23 860 23 860 51 834.5 c 128,-1,19
 79 809 79 809 120.5 809 c 128,-1,20
 162 809 162 809 211 830.5 c 128,-1,21
 260 852 260 852 313 888.5 c 128,-1,22
 366 925 366 925 419.5 974 c 128,-1,23
 473 1023 473 1023 520.5 1077 c 0,24,25
 622.334 1192.77 622.334 1192.77 668 1298 c 1,26,27
 682.118 1328 682.118 1328 688.559 1328 c 128,-1,28
 695 1328 695 1328 696 1310.5 c 0,29,30
 698.747 1262.43 698.747 1262.43 657.873 1173.22 c 128,-1,31
 617 1084 617 1084 557.5 1011.5 c 128,-1,32
 498 939 498 939 430.5 887 c 0,33,34
 290.308 779 290.308 779 148 779 c 0,35,36
 75 779 75 779 34.5 810.5 c 128,-1,37
 -6 842 -6 842 -8 897 c 128,-1,38
 -10 952 -10 952 16.5 1009.5 c 128,-1,39
 43 1067 43 1067 91.5 1123 c 128,-1,40
 140 1179 140 1179 207 1229.5 c 128,-1,41
 274 1280 274 1280 352 1318 c 0,42,43
 522.368 1401 522.368 1401 685 1401 c 0,44,45
 776 1401 776 1401 832.5 1363.5 c 0,46,47
 1073.66 1203.44 1073.66 1203.44 384 488 c 0,48,49
 156.455 251.496 156.455 251.496 119.227 203.748 c 128,-1,50
 82 156 82 156 69 135 c 0,51,52
 27.3678 67.7479 27.3678 67.7479 64 36 c 0,53,54
 79 23 79 23 119.5 23 c 128,-1,55
 160 23 160 23 234 52.5 c 128,-1,56
 308 82 308 82 398.5 142 c 0,57,58
 607.96 280.868 607.96 280.868 788 505 c 0,59,60
 807 530 807 530 842 572.5 c 2,61,-1
 1281 1089.5 l 1,62,-1
 1420 1249 l 1,63,-1
 1565 1249 l 1,64,65
 1560 1242 1560 1242 1535.5 1213 c 2,66,-1
 1093 699 l 1,67,68
 977.769 570.051 977.769 570.051 893.385 480.526 c 128,-1,69
 809 391 809 391 732.5 279 c 128,-1,70
 656 167 656 167 659 90 c 1,71,72
 662.667 23.9996 662.667 23.9996 741 24 c 0,73,74
 832.143 24 832.143 24 962.5 124 c 0,75,76
 999 152 999 152 1027 181 c 1,77,78
 1039.03 173.78 1039.03 173.78 1035.02 160.39 c 128,-1,79
 1031 147 1031 147 1029 145 c 0,80,81
 920.047 48.6181 920.047 48.6181 811.5 12 c 0,82,83
 770 -2 770 -2 729.5 -2 c 128,-1,84
 689 -2 689 -2 655 22.5 c 128,-1,85
 621 47 621 47 618.5 105 c 0,86,87
 614.255 203.481 614.255 203.481 688 322 c 1,88,89
 394.747 71.7936 394.747 71.7936 201.5 14 c 0,90,91
 148 -2 148 -2 112 -2 c 0,0,1
EndSplineSet
EndChar

StartChar: V
Encoding: 86 86 52
Width: 1048
Flags: HW
LayerCount: 2
Fore
SplineSet
1632 1453 m 0,0,1
 1632 1287.23 1632 1287.23 1266 968 c 1,2,3
 1296.8 872.8 1296.8 872.8 1376 844 c 0,4,5
 1398 836 1398 836 1418.5 836 c 128,-1,6
 1439 836 1439 836 1449.5 840 c 0,7,8
 1467.88 847 1467.88 847 1477.94 847 c 128,-1,9
 1488 847 1488 847 1488 839 c 128,-1,10
 1488 831 1488 831 1474 824.5 c 0,11,12
 1449.23 813 1449.23 813 1401.62 813 c 128,-1,13
 1354 813 1354 813 1306 848 c 128,-1,14
 1258 883 1258 883 1233 940 c 1,15,16
 813.313 578.655 813.313 578.655 -98 -6 c 0,17,18
 -157.2 -43 -157.2 -43 -173.6 -43 c 128,-1,19
 -190 -43 -190 -43 -190 -34 c 128,-1,20
 -190 -25 -190 -25 -179.5 -20 c 128,-1,21
 -169 -15 -169 -15 -159.5 -11 c 128,-1,22
 -150 -7 -150 -7 -127 9 c 128,-1,23
 -104 25 -104 25 -61 74 c 128,-1,24
 -18 123 -18 123 32 194 c 128,-1,25
 82 265 82 265 141 357.5 c 0,26,27
 333.65 664.396 333.65 664.396 375.325 726.698 c 1,28,-1
 465.5 855.5 l 1,29,30
 561.608 987.278 561.608 987.278 647 1081 c 1,31,32
 452.4 942 452.4 942 329 942 c 0,33,34
 254.118 942 254.118 942 224.5 995 c 0,35,36
 195.87 1046.23 195.87 1046.23 235.5 1112 c 0,37,38
 259 1151 259 1151 291 1184.5 c 2,39,-1
 341 1237.5 l 1,40,41
 412.285 1314.73 412.285 1314.73 410.642 1341.36 c 128,-1,42
 409 1368 409 1368 399 1380.5 c 128,-1,43
 389 1393 389 1393 372.5 1400.5 c 0,44,45
 340.6 1415 340.6 1415 275.8 1415 c 0,46,47
 151.767 1415 151.767 1415 26 1311 c 0,48,49
 7.71429 1295 7.71429 1295 -1.14286 1295 c 128,-1,50
 -10 1295 -10 1295 -10.5 1305 c 0,51,52
 -11.2325 1319.65 -11.2325 1319.65 14.3838 1339.32 c 128,-1,53
 40 1359 40 1359 73 1377 c 128,-1,54
 106 1395 106 1395 142.5 1408 c 0,55,56
 221.115 1436 221.115 1436 277.058 1436 c 128,-1,57
 333 1436 333 1436 366.5 1429 c 128,-1,58
 400 1422 400 1422 424.5 1407.5 c 0,59,60
 540.806 1338.67 540.806 1338.67 411 1162.5 c 0,61,62
 390 1134 390 1134 366.5 1110 c 2,63,-1
 327 1069 l 2,64,65
 283 1022.25 283 1022.25 283 1003 c 0,66,67
 283 968 283 968 322.5 968 c 128,-1,68
 362 968 362 968 407.5 980.5 c 128,-1,69
 453 993 453 993 515.5 1026.5 c 0,70,71
 656.079 1101.85 656.079 1101.85 844 1277 c 1,72,-1
 870.5 1300 l 2,73,74
 937.679 1357 937.679 1357 954.339 1357 c 128,-1,75
 971 1357 971 1357 971 1347 c 1,76,77
 972 1339 972 1339 964 1335 c 128,-1,78
 956 1331 956 1331 946 1324.5 c 0,79,80
 881.241 1282.41 881.241 1282.41 853.621 1243.2 c 128,-1,81
 826 1204 826 1204 810 1175.5 c 0,82,83
 478.351 563.383 478.351 563.383 157 234.5 c 1,84,-1
 22 102 l 1,85,-1
 194 220.5 l 1,86,-1
 390.5 362.5 l 1,87,-1
 601 520 l 1,88,-1
 815 686.5 l 1,89,90
 1103.14 920.481 1103.14 920.481 1213 1018 c 1,91,92
 1212 1025 1212 1025 1212 1031 c 2,93,-1
 1212 1044 l 2,94,95
 1212 1219.03 1212 1219.03 1327 1378 c 0,96,97
 1396.42 1473.96 1396.42 1473.96 1477.5 1514 c 0,98,99
 1518 1534 1518 1534 1553 1534 c 0,100,101
 1632 1534 1632 1534 1632 1453 c 0,0,1
1252 1053 m 1,102,-1
 1391.5 1184.5 l 1,103,104
 1597 1386.76 1597 1386.76 1597 1465 c 0,105,106
 1597 1486 1597 1486 1582.5 1497.5 c 128,-1,107
 1568 1509 1568 1509 1556 1509 c 0,108,109
 1505 1509 1505 1509 1451 1472 c 128,-1,110
 1397 1435 1397 1435 1353 1373 c 0,111,112
 1252 1230.68 1252 1230.68 1252 1064 c 2,113,-1
 1252 1053 l 1,102,-1
EndSplineSet
EndChar

StartChar: W
Encoding: 87 87 53
Width: 1244
Flags: HW
LayerCount: 2
Fore
SplineSet
1099.5 1436 m 128,-1,1
 1124 1436 1124 1436 1124 1427.5 c 128,-1,2
 1124 1419 1124 1419 1115.5 1415 c 128,-1,3
 1107 1411 1107 1411 1096.5 1404 c 2,4,-1
 1069 1385.5 l 2,5,6
 1052 1374 1052 1374 1029 1350 c 0,7,8
 974.189 1291.23 974.189 1291.23 949.094 1261.11 c 0,9,10
 875.673 1169.86 875.673 1169.86 831.836 1109.93 c 2,11,-1
 609 803 l 1,12,13
 355.332 448.922 355.332 448.922 83.5 198 c 1,14,-1
 -91 43 l 1,15,-1
 -14 88.5 l 2,16,17
 71.9988 140.32 71.9988 140.32 145.999 199.66 c 1,18,-1
 287.5 318.5 l 1,19,-1
 439.5 458 l 1,20,-1
 872.5 876.5 l 1,21,22
 1121.39 1105.07 1121.39 1105.07 1205.69 1175.54 c 1,23,24
 1366.24 1306.77 1366.24 1306.77 1408.62 1338.38 c 0,25,26
 1555.13 1446 1555.13 1446 1571.56 1446 c 128,-1,27
 1588 1446 1588 1446 1588 1432 c 0,28,29
 1588 1423.27 1588 1423.27 1568.5 1412.64 c 2,30,-1
 1531 1393 l 1,31,32
 1441.5 1348.25 1441.5 1348.25 1378.75 1252.13 c 128,-1,33
 1316 1156 1316 1156 1261 1061 c 2,34,-1
 1146 864.5 l 1,35,-1
 1023 662.5 l 1,36,37
 960 562 960 562 922.5 510.5 c 1,38,-1
 676 190 l 1,39,-1
 911 433 l 1,40,-1
 1127 646 l 1,41,-1
 1451 955 l 1,42,43
 1811.96 1297.13 1811.96 1297.13 2044 1380 c 0,44,45
 2128 1410 2128 1410 2216 1410 c 128,-1,46
 2304 1410 2304 1410 2363 1375 c 128,-1,47
 2422 1340 2422 1340 2422 1271 c 0,48,49
 2422 1186.9 2422 1186.9 2346.5 1130 c 0,50,51
 2274.85 1076 2274.85 1076 2169 1076 c 0,52,53
 2109.58 1076 2109.58 1076 2067.79 1096.5 c 0,54,55
 1992 1133.68 1992 1133.68 1992 1165.84 c 128,-1,56
 1992 1198 1992 1198 2017 1198 c 0,57,58
 2031 1198 2031 1198 2035.5 1191.5 c 128,-1,59
 2040 1185 2040 1185 2043.5 1165.5 c 128,-1,60
 2047 1146 2047 1146 2062 1133 c 128,-1,61
 2077 1120 2077 1120 2096 1111.5 c 0,62,63
 2130.65 1096 2130.65 1096 2163.82 1096 c 128,-1,64
 2197 1096 2197 1096 2232.5 1107 c 128,-1,65
 2268 1118 2268 1118 2298 1139.5 c 0,66,67
 2368 1189.67 2368 1189.67 2368 1269 c 0,68,69
 2368 1327.08 2368 1327.08 2313.5 1356 c 0,70,71
 2270.15 1379 2270.15 1379 2210.58 1379 c 128,-1,72
 2151 1379 2151 1379 2105 1369 c 128,-1,73
 2059 1359 2059 1359 2004.5 1334.5 c 128,-1,74
 1950 1310 1950 1310 1886 1270 c 128,-1,75
 1822 1230 1822 1230 1743.5 1170 c 0,76,77
 1583.37 1047.61 1583.37 1047.61 1439.69 908.805 c 2,78,-1
 1082 562.5 l 1,79,-1
 910.5 391.5 l 1,80,-1
 697 171 l 2,81,82
 548.672 17.2779 548.672 17.2779 432 -31 c 0,83,84
 403 -43 403 -43 391 -43 c 0,85,86
 372 -43 372 -43 372 -27 c 0,87,88
 372 -14.6667 372 -14.6667 399 -5.83333 c 128,-1,89
 426 3 426 3 444.5 11.5 c 128,-1,90
 463 20 463 20 480 33 c 128,-1,91
 497 46 497 46 514.5 67 c 128,-1,92
 532 88 532 88 553 120.5 c 128,-1,93
 574 153 574 153 601.5 201 c 0,94,95
 753.428 465.052 753.428 465.052 805.214 547.526 c 1,96,97
 922.577 729.062 922.577 729.062 953.788 771.531 c 1,98,-1
 1326 1236 l 1,99,-1
 1205 1143.5 l 2,100,101
 1139 1093 1139 1093 1079.5 1036.5 c 1,102,-1
 604 571 l 1,103,-1
 356 341 l 1,104,105
 85.8615 96.5889 85.8615 96.5889 -106 9 c 2,106,-1
 -144 -8.5 l 2,107,108
 -216.632 -43 -216.632 -43 -239.816 -43 c 128,-1,109
 -263 -43 -263 -43 -263 -28 c 0,110,111
 -263 -15.8571 -263 -15.8571 -218 -3 c 1,112,113
 -166.896 3.38806 -166.896 3.38806 -125.948 41.694 c 0,114,115
 -54.502 108.53 -54.502 108.53 22.249 221.265 c 1,116,-1
 212 493.5 l 1,117,-1
 294 603 l 1,118,119
 420.349 763.929 420.349 763.929 476.675 828.964 c 1,120,121
 613.071 979.839 613.071 979.839 687.036 1054.42 c 1,122,123
 1016.49 1378.6 1016.49 1378.6 1045.74 1407.3 c 128,-1,0
 1075 1436 1075 1436 1099.5 1436 c 128,-1,1
-567 881 m 0,124,125
 -581 881 -581 881 -581 897 c 0,126,127
 -581 950.907 -581 950.907 -523.5 1040.5 c 0,128,129
 -463.482 1134.02 -463.482 1134.02 -354 1208.5 c 0,130,131
 -178.349 1328 -178.349 1328 13 1328 c 0,132,133
 149.038 1328 149.038 1328 325 1267 c 2,134,-1
 407.5 1238 l 1,135,136
 508.083 1204 508.083 1204 564.042 1204 c 128,-1,137
 620 1204 620 1204 656 1211.5 c 128,-1,138
 692 1219 692 1219 732.5 1234 c 0,139,140
 821.703 1267.04 821.703 1267.04 872.851 1309.52 c 128,-1,141
 924 1352 924 1352 931 1352 c 128,-1,142
 938 1352 938 1352 938 1346 c 0,143,144
 938 1336.8 938 1336.8 902 1304.9 c 128,-1,145
 866 1273 866 1273 813.5 1239 c 128,-1,146
 761 1205 761 1205 709 1184.5 c 0,147,148
 613.878 1147 613.878 1147 538.439 1147 c 128,-1,149
 463 1147 463 1147 425.5 1151 c 128,-1,150
 388 1155 388 1155 349.5 1162.5 c 0,151,152
 287.451 1174.59 287.451 1174.59 216.725 1197.79 c 128,-1,153
 146 1221 146 1221 118.5 1228.5 c 128,-1,154
 91 1236 91 1236 65.5 1240.5 c 0,155,156
 17.3333 1249 17.3333 1249 -41.3333 1249 c 128,-1,157
 -100 1249 -100 1249 -162.5 1234.5 c 128,-1,158
 -225 1220 -225 1220 -283.5 1193 c 0,159,160
 -457.486 1112.7 -457.486 1112.7 -527 975.5 c 0,161,162
 -546 938 -546 938 -546 916 c 0,163,164
 -546 881 -546 881 -567 881 c 0,124,125
EndSplineSet
EndChar

StartChar: X
Encoding: 88 88 54
Width: 1586
Flags: HW
LayerCount: 2
Fore
SplineSet
920 -2 m 0,0,1
 589.483 -2 589.483 -2 708.5 381.5 c 0,2,3
 737.337 474.42 737.337 474.42 778 548 c 1,4,5
 567.971 292.147 567.971 292.147 327 138.5 c 0,6,7
 106.647 -2 106.647 -2 -42 -2 c 0,8,9
 -135.837 -2 -135.837 -2 -200 42.5 c 0,10,11
 -267.933 89.6148 -267.933 89.6148 -266 165 c 0,12,13
 -264.129 206.153 -264.129 206.153 -241.565 223.076 c 0,14,15
 -207 249 -207 249 -180.5 249 c 0,16,17
 -120.083 249 -120.083 249 -122 203 c 0,18,19
 -122 183 -122 183 -139 168 c 128,-1,20
 -156 153 -156 153 -183.857 153 c 128,-1,21
 -211.714 153 -211.714 153 -226 163 c 1,22,-1
 -226 157 l 1,23,24
 -228.911 60.9507 -228.911 60.9507 -111 34 c 0,25,26
 -76 26 -76 26 -30 26 c 128,-1,27
 16 26 16 26 84 49.5 c 128,-1,28
 152 73 152 73 229 115.5 c 128,-1,29
 306 158 306 158 388 218.5 c 128,-1,30
 470 279 470 279 549.5 353 c 0,31,32
 718.453 510.264 718.453 510.264 837 691 c 1,33,34
 963.825 933.78 963.825 933.78 1020 1123 c 0,35,36
 1071.08 1295.06 1071.08 1295.06 994.5 1366 c 0,37,38
 947 1410 947 1410 868.5 1410 c 128,-1,39
 790 1410 790 1410 719 1382.5 c 128,-1,40
 648 1355 648 1355 581 1310.5 c 128,-1,41
 514 1266 514 1266 454 1208 c 128,-1,42
 394 1150 394 1150 349 1089.5 c 0,43,44
 250.995 957.737 250.995 957.737 249 862 c 1,45,46
 245.25 772 245.25 772 339 772 c 0,47,48
 470 772 470 772 618.5 920.5 c 0,49,50
 773.757 1075.76 773.757 1075.76 873 1319 c 1,51,52
 881 1335 881 1335 888 1335 c 256,53,54
 901.35 1335 901.35 1335 902.175 1295 c 128,-1,55
 903 1255 903 1255 879.5 1195.5 c 128,-1,56
 856 1136 856 1136 814.5 1074.5 c 128,-1,57
 773 1013 773 1013 717.5 954.5 c 128,-1,58
 662 896 662 896 598.5 850 c 0,59,60
 457.696 748 457.696 748 336.865 748 c 128,-1,61
 216.034 748 216.034 748 218 862 c 0,62,63
 219.968 966.33 219.968 966.33 325.5 1104.5 c 0,64,65
 491.969 1322.45 491.969 1322.45 715 1408 c 0,66,67
 788 1436 788 1436 851 1436 c 128,-1,68
 914 1436 914 1436 962.5 1422.5 c 128,-1,69
 1011 1409 1011 1409 1045 1376 c 0,70,71
 1162.76 1261.7 1162.76 1261.7 1083.5 960.5 c 0,72,73
 1059.67 869.959 1059.67 869.959 1020 784 c 1,74,75
 1437.89 1256.4 1437.89 1256.4 1761.5 1382.5 c 0,76,77
 1868 1424 1868 1424 1938 1424 c 0,78,79
 2067.28 1424 2067.28 1424 2065 1342 c 1,80,81
 2063 1311 2063 1311 2047 1295.5 c 128,-1,82
 2031 1280 2031 1280 2010 1280 c 128,-1,83
 1989 1280 1989 1280 1977.5 1298.5 c 128,-1,84
 1966 1317 1966 1317 1967 1341.82 c 128,-1,85
 1968 1366.64 1968 1366.64 1996 1387 c 1,86,87
 1972 1393 1972 1393 1963 1393 c 0,88,89
 1647.59 1393 1647.59 1393 1149 885 c 1,90,-1
 1059 786 l 2,91,92
 1039 763 1039 763 1020 738.5 c 2,93,-1
 979 683 l 1,94,95
 857.017 480.687 857.017 480.687 800 274 c 0,96,97
 755.327 112.061 755.327 112.061 828 51.5 c 0,98,99
 894.069 -3.55727 894.069 -3.55727 1032 40 c 0,100,101
 1148.9 76.9165 1148.9 76.9165 1259 171 c 0,102,103
 1374.89 270.03 1374.89 270.03 1426.5 401.5 c 0,104,105
 1453 469 1453 469 1455 549.5 c 128,-1,106
 1457 630 1457 630 1423.5 670.5 c 128,-1,107
 1390 711 1390 711 1346 711 c 128,-1,108
 1302 711 1302 711 1270.5 694.5 c 128,-1,109
 1239 678 1239 678 1214.5 650.5 c 0,110,111
 1161.01 590.463 1161.01 590.463 1159 514 c 0,112,113
 1156.62 454.396 1156.62 454.396 1196 427 c 1,114,115
 1214 413 1214 413 1207 401 c 128,-1,116
 1200 389 1200 389 1191.5 389 c 128,-1,117
 1183 389 1183 389 1168 395 c 128,-1,118
 1153 401 1153 401 1134.5 430 c 128,-1,119
 1116 459 1116 459 1117 508.5 c 128,-1,120
 1118 558 1118 558 1137.5 599 c 128,-1,121
 1157 640 1157 640 1188.5 670.5 c 0,122,123
 1256.15 736 1256.15 736 1333.57 736 c 128,-1,124
 1411 736 1411 736 1452.5 688.5 c 128,-1,125
 1494 641 1494 641 1492 562 c 128,-1,126
 1490 483 1490 483 1463.5 414 c 128,-1,127
 1437 345 1437 345 1393 283.5 c 128,-1,128
 1349 222 1349 222 1292 169.5 c 128,-1,129
 1235 117 1235 117 1172 79 c 0,130,131
 1037.71 -1.99997 1037.71 -1.99997 920 -2 c 0,0,1
EndSplineSet
EndChar

StartChar: Y
Encoding: 89 89 55
Width: 1195
Flags: HW
LayerCount: 2
Fore
SplineSet
90 734 m 0,0,1
 -28 734 -28 734 -28 852 c 0,2,3
 -28 960.641 -28 960.641 87 1093 c 0,4,5
 263.18 1295.77 263.18 1295.77 530.5 1375.5 c 0,6,7
 616 1401 616 1401 683 1401 c 128,-1,8
 750 1401 750 1401 794.5 1393 c 128,-1,9
 839 1385 839 1385 873 1367 c 0,10,11
 946 1328.35 946 1328.35 946 1253 c 0,12,13
 946 1166.04 946 1166.04 900 1090.52 c 0,14,15
 815.44 951.693 815.44 951.693 644 795 c 1,16,-1
 535 684.5 l 1,17,18
 381 522.643 381 522.643 381 445 c 0,19,20
 381 416 381 416 397 395 c 128,-1,21
 413 374 413 374 441.5 374 c 128,-1,22
 470 374 470 374 503 385 c 128,-1,23
 536 396 536 396 583.5 423.5 c 128,-1,24
 631 451 631 451 693.5 498 c 128,-1,25
 756 545 756 545 836.5 617 c 0,26,27
 1007.44 769.887 1007.44 769.887 1235 1024 c 1,28,29
 1382.95 1191.13 1382.95 1191.13 1507 1240 c 0,30,31
 1540 1253 1540 1253 1558.5 1253 c 128,-1,32
 1577 1253 1577 1253 1577 1241 c 0,33,34
 1577 1232.2 1577 1232.2 1561 1229 c 1,35,-1
 1532 1219 l 1,36,37
 1407 1170 1407 1170 1274.5 1005 c 128,-1,38
 1142 840 1142 840 1014.5 599.5 c 128,-1,39
 887 359 887 359 764.5 207.5 c 128,-1,40
 642 56 642 56 512 -49 c 0,41,42
 245.81 -264 245.81 -264 7 -264 c 0,43,44
 -175.719 -264 -175.719 -264 -242 -163 c 0,45,46
 -263 -131 -263 -131 -263 -99.5 c 128,-1,47
 -263 -68 -263 -68 -254.5 -50.5 c 128,-1,48
 -246 -33 -246 -33 -233 -20.5 c 0,49,50
 -206.48 5 -206.48 5 -173 5 c 256,51,52
 -158 5 -158 5 -140.5 -6 c 128,-1,53
 -123 -17 -123 -17 -123 -39 c 128,-1,54
 -123 -61 -123 -61 -140 -76 c 128,-1,55
 -157 -91 -157 -91 -181.75 -91 c 128,-1,56
 -206.5 -91 -206.5 -91 -220 -85 c 1,57,58
 -223 -96 -223 -96 -223 -114.5 c 128,-1,59
 -223 -133 -223 -133 -205 -157 c 128,-1,60
 -187 -181 -187 -181 -155.5 -199 c 0,61,62
 -87.25 -238 -87.25 -238 -2.125 -238 c 128,-1,63
 83 -238 83 -238 166.5 -202 c 128,-1,64
 250 -166 250 -166 342 -94 c 0,65,66
 538.94 60.1272 538.94 60.1272 728 336 c 2,67,-1
 883 561.5 l 1,68,-1
 1034 768 l 1,69,70
 632.457 350 632.457 350 445 350 c 0,71,72
 367.474 350 367.474 350 346 418 c 0,73,74
 340 437 340 437 340 470 c 128,-1,75
 340 503 340 503 365 564.5 c 128,-1,76
 390 626 390 626 433 695 c 0,77,78
 518.631 832.407 518.631 832.407 627.815 943.204 c 2,79,-1
 784 1103.5 l 1,80,81
 874.544 1198.86 874.544 1198.86 884.772 1224.43 c 128,-1,82
 895 1250 895 1250 895 1264 c 0,83,84
 895 1373 895 1373 699 1373 c 0,85,86
 550.622 1373 550.622 1373 380.5 1283 c 0,87,88
 223.177 1199.77 223.177 1199.77 113 1079 c 0,89,90
 1 956.231 1 956.231 1 861 c 0,91,92
 1 776 1 776 92 776 c 0,93,94
 186.429 776 186.429 776 319 888 c 0,95,96
 420.171 973.472 420.171 973.472 493.586 1068.74 c 0,97,98
 614.777 1226 614.777 1226 627 1270 c 1,99,100
 634.778 1284 634.778 1284 637 1284 c 0,101,102
 645 1284 645 1284 649 1252 c 128,-1,103
 653 1220 653 1220 628 1162.5 c 128,-1,104
 603 1105 603 1105 558 1045.5 c 128,-1,105
 513 986 513 986 453 930 c 128,-1,106
 393 874 393 874 329.5 830.5 c 0,107,108
 188.632 734 188.632 734 90 734 c 0,0,1
EndSplineSet
EndChar

StartChar: Z
Encoding: 90 90 56
Width: 1623
Flags: HW
LayerCount: 2
Fore
SplineSet
501 90 m 1,0,1
 336.167 -2.00001 336.167 -2.00001 177 -2 c 0,2,3
 67 -2 67 -2 12 26 c 128,-1,4
 -43 54 -43 54 -42 83 c 128,-1,5
 -41 112 -41 112 -24 131 c 128,-1,6
 -7 150 -7 150 25 164.5 c 0,7,8
 96.7241 197 96.7241 197 208.656 197 c 128,-1,9
 320.588 197 320.588 197 487 156 c 1,10,11
 633.8 282.316 633.8 282.316 880 619 c 0,12,13
 1029.62 824.999 1029.62 824.999 1141.81 943.499 c 0,14,15
 1342.37 1155.34 1342.37 1155.34 1542 1299 c 1,16,17
 1402.85 1232 1402.85 1232 1307.92 1232 c 128,-1,18
 1213 1232 1213 1232 1152 1246.5 c 128,-1,19
 1091 1261 1091 1261 1032.5 1278 c 0,20,21
 771.548 1353.83 771.548 1353.83 627 1285 c 0,22,23
 496.184 1222.71 496.184 1222.71 429 1097.5 c 0,24,25
 358.343 965.821 358.343 965.821 421 887.5 c 0,26,27
 451.8 849 451.8 849 498.4 849 c 128,-1,28
 545 849 545 849 586 869.5 c 128,-1,29
 627 890 627 890 664 923 c 128,-1,30
 701 956 701 956 732 997 c 128,-1,31
 763 1038 763 1038 786.5 1079.5 c 0,32,33
 834.329 1163.96 834.329 1163.96 841 1224 c 0,34,35
 842.667 1239 842.667 1239 852 1239 c 256,36,37
 855 1239 855 1239 862 1226 c 128,-1,38
 869 1213 869 1213 872 1179.5 c 128,-1,39
 875 1146 875 1146 863 1099.5 c 128,-1,40
 851 1053 851 1053 826 1012 c 128,-1,41
 801 971 801 971 766 936.5 c 128,-1,42
 731 902 731 902 690 877.5 c 0,43,44
 602.143 825 602.143 825 513 825 c 0,45,46
 441.727 825 441.727 825 400 876 c 0,47,48
 325.703 966.808 325.703 966.808 411 1127 c 0,49,50
 496.579 1287.72 496.579 1287.72 683.5 1363.5 c 0,51,52
 776 1401 776 1401 861.5 1401 c 128,-1,53
 947 1401 947 1401 999 1393.5 c 128,-1,54
 1051 1386 1051 1386 1095.5 1375 c 128,-1,55
 1140 1364 1140 1364 1179.5 1351 c 128,-1,56
 1219 1338 1219 1338 1259 1327 c 0,57,58
 1353.55 1301 1353.55 1301 1410.27 1301 c 128,-1,59
 1467 1301 1467 1301 1498.5 1308.5 c 128,-1,60
 1530 1316 1530 1316 1559 1328 c 0,61,62
 1616.69 1351.87 1616.69 1351.87 1643.34 1376.94 c 0,63,64
 1677.44 1409 1677.44 1409 1693.22 1409 c 128,-1,65
 1709 1409 1709 1409 1709 1398.5 c 128,-1,66
 1709 1388 1709 1388 1694.5 1378 c 128,-1,67
 1680 1368 1680 1368 1673 1364 c 128,-1,68
 1666 1360 1666 1360 1659 1355.5 c 0,69,70
 1636.21 1340.57 1636.21 1340.57 1613.11 1325.29 c 128,-1,71
 1590 1310 1590 1310 1535 1254 c 128,-1,72
 1480 1198 1480 1198 1416.5 1123 c 0,73,74
 1280.83 962.758 1280.83 962.758 1141.91 752.879 c 0,75,76
 857.656 323.407 857.656 323.407 571 133 c 1,77,-1
 759 80 l 1,78,79
 940.956 30.012 940.956 30.012 1119 51.5 c 0,80,81
 1298.5 73.1633 1298.5 73.1633 1372 171.5 c 0,82,83
 1409 221 1409 221 1409 292 c 0,84,85
 1409 372.289 1409 372.289 1343.5 414.5 c 0,86,87
 1321 429 1321 429 1290 435 c 1,88,89
 1288 412 1288 412 1271 397 c 128,-1,90
 1254 382 1254 382 1232 378 c 128,-1,91
 1210 374 1210 374 1190 381.5 c 128,-1,92
 1170 389 1170 389 1165 404.5 c 128,-1,93
 1160 420 1160 420 1163.5 429.5 c 128,-1,94
 1167 439 1167 439 1174.5 446.5 c 0,95,96
 1200 472 1200 472 1241 472 c 128,-1,97
 1282 472 1282 472 1318.5 458.5 c 128,-1,98
 1355 445 1355 445 1381.5 421 c 0,99,100
 1438 369.83 1438 369.83 1438 291.415 c 128,-1,101
 1438 213 1438 213 1404 149.5 c 128,-1,102
 1370 86 1370 86 1311.5 42.5 c 0,103,104
 1191.14 -47 1191.14 -47 1005 -47 c 0,105,106
 894.9 -47 894.9 -47 790.95 -14 c 128,-1,107
 687 19 687 19 624.5 43 c 2,108,-1
 501 90 l 1,0,1
435 114 m 1,109,110
 288 163 288 163 186 163 c 0,111,112
 61.3571 163 61.3571 163 8.5 123 c 0,113,114
 -27.0691 96.0829 -27.0691 96.0829 -2 66 c 0,115,116
 34.6667 22 34.6667 22 180 22 c 0,117,118
 309.723 22 309.723 22 435 114 c 1,109,110
EndSplineSet
EndChar

StartChar: ampersand
Encoding: 38 38 57
Width: 1452
Flags: HW
LayerCount: 2
Fore
SplineSet
471 18 m 1,0,1
 441 24 441 24 405 24 c 0,2,3
 350 24 350 24 310 19 c 1,4,-1
 394 159 l 1,5,6
 270.134 257.457 270.134 257.457 232.5 409.5 c 0,7,8
 220 460 220 460 220 515 c 128,-1,9
 220 570 220 570 234.5 618.5 c 128,-1,10
 249 667 249 667 275 703 c 0,11,12
 329.889 779 329.889 779 412 779 c 0,13,14
 475.091 779 475.091 779 520.5 723.5 c 0,15,16
 570 663 570 663 570 564 c 0,17,18
 570 481.25 570 481.25 505 322 c 0,19,20
 485 273 485 273 460 224 c 1,21,22
 699.39 593.059 699.39 593.059 957.5 853 c 1,23,-1
 1093 984 l 2,24,25
 1110.78 1000 1110.78 1000 1121.89 1000 c 128,-1,26
 1133 1000 1133 1000 1133 992.5 c 0,27,28
 1133 983.118 1133 983.118 1078.5 930.559 c 128,-1,29
 1024 878 1024 878 945 783.5 c 128,-1,30
 866 689 866 689 790.5 582 c 0,31,32
 629.694 354.102 629.694 354.102 517 119 c 1,33,34
 580 93 580 93 645 93 c 0,35,36
 776.079 93 776.079 93 872 174 c 1,37,38
 962 255.22 962 255.22 962 353 c 0,39,40
 962 358 962 358 960 368 c 1,41,42
 920 370 920 370 920 404 c 0,43,44
 920 415 920 415 928.5 424 c 128,-1,45
 937 433 937 433 954 433 c 128,-1,46
 971 433 971 433 984 416 c 128,-1,47
 997 399 997 399 997 352 c 128,-1,48
 997 305 997 305 968 249 c 128,-1,49
 939 193 939 193 888.5 152 c 0,50,51
 782.573 66 782.573 66 644 66 c 0,52,53
 575 66 575 66 505 94 c 1,54,-1
 471 18 l 1,0,1
409 188 m 1,55,56
 540 430.735 540 430.735 540 575 c 0,57,58
 540 689.238 540 689.238 466 728 c 0,59,60
 445 739 445 739 420.5 739 c 128,-1,61
 396 739 396 739 369.5 720 c 128,-1,62
 343 701 343 701 322.5 669.5 c 0,63,64
 277 599.585 277 599.585 277 505.793 c 0,65,66
 277 311.484 277 311.484 409 188 c 1,55,56
EndSplineSet
EndChar

StartChar: zero
Encoding: 48 48 58
Width: 1273
Flags: HW
LayerCount: 2
Fore
SplineSet
237.5 78.5 m 128,-1,1
 179 162 179 162 179 295.5 c 128,-1,2
 179 429 179 429 219.5 556.5 c 128,-1,3
 260 684 260 684 329 806 c 128,-1,4
 398 928 398 928 489.5 1037 c 128,-1,5
 581 1146 581 1146 683.5 1228.5 c 0,6,7
 906.515 1408 906.515 1408 1100 1408 c 0,8,9
 1215.81 1408 1215.81 1408 1276.5 1317.5 c 0,10,11
 1332 1234.74 1332 1234.74 1332 1084 c 0,12,13
 1332 820.964 1332 820.964 1152.5 531.5 c 0,14,15
 975.554 246.155 975.554 246.155 732 98.5 c 0,16,17
 561.278 -5.00002 561.278 -5.00002 405 -5 c 0,18,0
 296 -5 296 -5 237.5 78.5 c 128,-1,1
288 225 m 0,19,20
 288 22 288 22 430 22 c 0,21,22
 588.477 22 588.477 22 817.5 227 c 0,23,24
 1054.79 439.4 1054.79 439.4 1183 723.5 c 0,25,26
 1277 931.795 1277 931.795 1277 1129 c 0,27,28
 1277 1331.31 1277 1331.31 1172.5 1371.5 c 0,29,30
 1140 1384 1140 1384 1093.5 1384 c 128,-1,31
 1047 1384 1047 1384 983.5 1349.5 c 128,-1,32
 920 1315 920 1315 853 1255.5 c 128,-1,33
 786 1196 786 1196 718 1116.5 c 128,-1,34
 650 1037 650 1037 587 945.5 c 128,-1,35
 524 854 524 854 469.5 756.5 c 128,-1,36
 415 659 415 659 374.5 564.5 c 0,37,38
 288 362.667 288 362.667 288 225 c 0,19,20
EndSplineSet
EndChar

StartChar: one
Encoding: 49 49 59
Width: 987
Flags: HW
LayerCount: 2
Fore
SplineSet
1128 1414.5 m 128,-1,1
 1137 1424 1137 1424 1149 1424 c 128,-1,2
 1161 1424 1161 1424 1161 1409 c 128,-1,3
 1161 1394 1161 1394 1127.5 1350.5 c 128,-1,4
 1094 1307 1094 1307 1047 1232 c 1,5,-1
 940 1055.5 l 1,6,-1
 810 830.5 l 1,7,-1
 667 572 l 1,8,-1
 520 296 l 1,9,-1
 377 18 l 1,10,11
 368 18 368 18 353.5 19 c 2,12,-1
 292.5 23 l 2,13,14
 277 24 277 24 257 24 c 0,15,16
 205 24 205 24 172 13 c 1,17,-1
 493 483.5 l 1,18,-1
 813 972 l 1,19,20
 595.275 748.227 595.275 748.227 514.638 681.614 c 128,-1,21
 434 615 434 615 400.5 591 c 0,22,23
 325.125 537 325.125 537 302 537 c 128,-1,24
 279 537 279 537 279 557 c 0,25,26
 279 577.263 279 577.263 313 588 c 1,27,-1
 334.5 598 l 2,28,29
 424.625 640.917 424.625 640.917 608 815.5 c 1,30,-1
 757 964 l 1,31,-1
 900 1119 l 1,32,33
 1045.9 1284.5 1045.9 1284.5 1099 1373 c 0,34,0
 1119 1405 1119 1405 1128 1414.5 c 128,-1,1
EndSplineSet
EndChar

StartChar: two
Encoding: 50 50 60
Width: 1444
Flags: HW
LayerCount: 2
Fore
SplineSet
1195 336 m 0,0,1
 1210 336 1210 336 1210 313.5 c 128,-1,2
 1210 291 1210 291 1200.5 265.5 c 128,-1,3
 1191 240 1191 240 1175 212.5 c 0,4,5
 1050.2 -2.00009 1050.2 -2.00009 847 -2 c 0,6,7
 750.65 -2 750.65 -2 660 72 c 0,8,9
 541.097 169 541.097 169 412 169 c 0,10,11
 313.5 169 313.5 169 203.5 109 c 0,12,13
 94.2174 49.3913 94.2174 49.3913 54 -23 c 0,14,15
 52 -27 52 -27 51 -33 c 128,-1,16
 50 -39 50 -39 47 -46 c 0,17,18
 41.8571 -58 41.8571 -58 22 -58 c 0,19,20
 11 -58 11 -58 11 -34 c 128,-1,21
 11 -10 11 -10 37.5 34.5 c 128,-1,22
 64 79 64 79 123.5 133 c 0,23,24
 265.737 262.089 265.737 262.089 565 409 c 1,25,26
 889.205 570.143 889.205 570.143 1067.5 789.5 c 0,27,28
 1232 991.885 1232 991.885 1232 1186 c 0,29,30
 1232 1348.4 1232 1348.4 1144.5 1374.5 c 0,31,32
 1116 1383 1116 1383 1062 1383 c 128,-1,33
 1008 1383 1008 1383 937 1350.5 c 128,-1,34
 866 1318 866 1318 800 1265 c 128,-1,35
 734 1212 734 1212 676 1146 c 128,-1,36
 618 1080 618 1080 575 1013 c 0,37,38
 482 868.093 482 868.093 482 779 c 0,39,40
 482 737 482 737 506 709.5 c 128,-1,41
 530 682 530 682 573 682 c 128,-1,42
 616 682 616 682 658 698.5 c 128,-1,43
 700 715 700 715 742.5 745 c 0,44,45
 831.637 807.92 831.637 807.92 903 911 c 1,46,47
 914.077 929 914.077 929 924.538 929 c 128,-1,48
 935 929 935 929 935 920.5 c 128,-1,49
 935 912 935 912 924 893.5 c 128,-1,50
 913 875 913 875 892.5 850 c 0,51,52
 846.702 794.149 846.702 794.149 787.351 746.074 c 0,53,54
 674.914 655 674.914 655 578 655 c 0,55,56
 480.745 655 480.745 655 439 709.5 c 0,57,58
 410 747.361 410 747.361 410 809.181 c 128,-1,59
 410 871 410 871 436.5 940 c 128,-1,60
 463 1009 463 1009 509 1075.5 c 128,-1,61
 555 1142 555 1142 619 1202.5 c 128,-1,62
 683 1263 683 1263 758 1309.5 c 0,63,64
 920.097 1410 920.097 1410 1085 1410 c 0,65,66
 1219.36 1410 1219.36 1410 1294.5 1330.5 c 0,67,68
 1363 1258.03 1363 1258.03 1363 1147.51 c 128,-1,69
 1363 1037 1363 1037 1316 937 c 128,-1,70
 1269 837 1269 837 1178.5 742.5 c 0,71,72
 993.33 549.146 993.33 549.146 653 399 c 1,73,74
 347.578 262.875 347.578 262.875 292.289 226.938 c 0,75,76
 208.124 172.231 208.124 172.231 157 123 c 1,77,78
 323.821 215.982 323.821 215.982 460.5 229.5 c 0,79,80
 506 234 506 234 566.5 234 c 0,81,82
 689.583 234 689.583 234 795 165 c 0,83,84
 882.4 108 882.4 108 931.7 108 c 128,-1,85
 981 108 981 108 1016.5 120 c 128,-1,86
 1052 132 1052 132 1083 155.5 c 0,87,88
 1150.67 206.797 1150.67 206.797 1181 294 c 1,89,90
 1187 308 1187 308 1187 322 c 128,-1,91
 1187 336 1187 336 1195 336 c 0,0,1
EndSplineSet
EndChar

StartChar: three
Encoding: 51 51 61
Width: 1338
Flags: HW
LayerCount: 2
Fore
SplineSet
1035 1410 m 0,0,1
 1329 1410 1329 1410 1329 1159 c 0,2,3
 1329 1037.94 1329 1037.94 1204.5 897.5 c 0,4,5
 1063.17 738.077 1063.17 738.077 832 643 c 1,6,7
 952.925 667.185 952.925 667.185 1032 611 c 0,8,9
 1113 553.447 1113 553.447 1113 435 c 0,10,11
 1113 306.342 1113 306.342 993 149.5 c 0,12,13
 868.047 -13.8151 868.047 -13.8151 683 -119 c 0,14,15
 473.648 -238 473.648 -238 258 -238 c 0,16,17
 120.455 -238 120.455 -238 5 -174.5 c 0,18,19
 -105 -114 -105 -114 -105 -49 c 0,20,21
 -105 -20 -105 -20 -87.5 -1 c 128,-1,22
 -70 18 -70 18 -42.5 18 c 128,-1,23
 -15 18 -15 18 2 -1 c 128,-1,24
 19 -20 19 -20 19 -50 c 128,-1,25
 19 -80 19 -80 14 -110 c 1,26,27
 58.2698 -180.832 58.2698 -180.832 184.5 -207.5 c 0,28,29
 220 -215 220 -215 281 -215 c 128,-1,30
 342 -215 342 -215 429.5 -186.5 c 128,-1,31
 517 -158 517 -158 596 -108 c 128,-1,32
 675 -58 675 -58 742.5 11 c 128,-1,33
 810 80 810 80 859 161 c 0,34,35
 964 334.571 964 334.571 964 515 c 0,36,37
 964 611 964 611 866 611 c 0,38,39
 781.405 611 781.405 611 715.202 577.5 c 0,40,41
 600.206 519.309 600.206 519.309 556 453 c 0,42,43
 549 442 549 442 546.5 434 c 128,-1,44
 544 426 544 426 538.5 410 c 128,-1,45
 533 394 533 394 515.5 394 c 128,-1,46
 498 394 498 394 498 415 c 0,47,48
 498 443 498 443 524.5 470.5 c 128,-1,49
 551 498 551 498 576 519.5 c 128,-1,50
 601 541 601 541 633.5 562.5 c 0,51,52
 690.803 600.408 690.803 600.408 805.901 658.704 c 128,-1,53
 921 717 921 717 994.5 783.5 c 128,-1,54
 1068 850 1068 850 1113 921 c 0,55,56
 1196 1051.96 1196 1051.96 1196 1203 c 0,57,58
 1196 1347.89 1196 1347.89 1100.5 1374.5 c 0,59,60
 1070 1383 1070 1383 1022.5 1383 c 128,-1,61
 975 1383 975 1383 912.5 1353.5 c 128,-1,62
 850 1324 850 1324 789.5 1276 c 128,-1,63
 729 1228 729 1228 674.5 1166 c 128,-1,64
 620 1104 620 1104 578.5 1039 c 0,65,66
 488 897.253 488 897.253 488 803.626 c 128,-1,67
 488 710 488 710 561 710 c 0,68,69
 630.448 710 630.448 710 721.5 783.5 c 0,70,71
 856.235 892.262 856.235 892.262 922.5 1055.5 c 0,72,73
 943 1106 943 1106 947.5 1139 c 128,-1,74
 952 1172 952 1172 961 1172 c 128,-1,75
 970 1172 970 1172 970 1133 c 128,-1,76
 970 1094 970 1094 949.5 1038 c 128,-1,77
 929 982 929 982 894.5 930.5 c 128,-1,78
 860 879 860 879 816.5 833.5 c 128,-1,79
 773 788 773 788 726.5 754.5 c 0,80,81
 627.254 683 627.254 683 552 683 c 0,82,83
 450.386 683 450.386 683 417 769.5 c 0,84,85
 406 798 406 798 406 845.5 c 128,-1,86
 406 893 406 893 432.5 958 c 128,-1,87
 459 1023 459 1023 505.5 1087 c 128,-1,88
 552 1151 552 1151 613.5 1209.5 c 128,-1,89
 675 1268 675 1268 745 1312.5 c 0,90,91
 898.371 1410 898.371 1410 1035 1410 c 0,0,1
EndSplineSet
EndChar

StartChar: four
Encoding: 52 52 62
Width: 1577
Flags: HW
LayerCount: 2
Fore
SplineSet
1126.8 446 m 0,0,1
 1072.6 446 1072.6 446 1025 453 c 1,2,3
 833.667 180.718 833.667 180.718 767.333 63.359 c 128,-1,4
 701 -54 701 -54 673 -115 c 1,5,-1
 537 -43 l 1,6,7
 571 12 571 12 614.5 75 c 1,8,9
 740.039 250.485 740.039 250.485 802.52 329.742 c 1,10,-1
 921 477 l 1,11,12
 734.617 532.915 734.617 532.915 667.308 555.957 c 128,-1,13
 600 579 600 579 547 595 c 1,14,15
 410.38 502.202 410.38 502.202 299 493.5 c 0,16,17
 267 491 267 491 217 491 c 128,-1,18
 167 491 167 491 123.5 511 c 128,-1,19
 80 531 80 531 80 560 c 128,-1,20
 80 589 80 589 101.5 607.5 c 128,-1,21
 123 626 123 626 157 637.5 c 0,22,23
 220.565 659 220.565 659 316.866 659 c 128,-1,24
 413.167 659 413.167 659 505 640 c 1,25,26
 558 686 558 686 614.5 744 c 1,27,28
 765.502 906.976 765.502 906.976 831.251 987.988 c 1,29,-1
 947.5 1136.5 l 1,30,31
 998 1204 998 1204 1041.5 1268 c 1,32,-1
 1119 1386 l 1,33,34
 1161 1391 1161 1391 1195 1396 c 2,35,-1
 1258 1405 l 2,36,37
 1323.25 1414 1323.25 1414 1362.62 1414 c 128,-1,38
 1402 1414 1402 1414 1402 1402 c 0,39,40
 1402 1394.11 1402 1394.11 1371 1381.55 c 128,-1,41
 1340 1369 1340 1369 1322 1357.5 c 128,-1,42
 1304 1346 1304 1346 1285 1330 c 128,-1,43
 1266 1314 1266 1314 1243.5 1292 c 2,44,-1
 1190 1239 l 2,45,46
 1172 1221 1172 1221 1136.5 1181 c 2,47,-1
 950 974 l 1,48,49
 789.154 802.572 789.154 802.572 726.077 742.786 c 128,-1,50
 663 683 663 683 612 643 c 2,51,-1
 584 621 l 1,52,53
 726.609 583.273 726.609 583.273 800 562 c 2,54,-1
 955 518 l 1,55,-1
 1094.5 675.5 l 1,56,57
 1322.66 923.362 1322.66 923.362 1455 991 c 1,58,-1
 1478 1001.5 l 2,59,60
 1492 1008 1492 1008 1501 1008 c 128,-1,61
 1510 1008 1510 1008 1510 1001 c 0,62,63
 1510 992.133 1510 992.133 1481 971.567 c 128,-1,64
 1452 951 1452 951 1403 904 c 128,-1,65
 1354 857 1354 857 1297 793.5 c 128,-1,66
 1240 730 1240 730 1178.5 653.5 c 1,67,-1
 1055 494 l 1,68,69
 1116.25 480 1116.25 480 1171.12 480 c 128,-1,70
 1226 480 1226 480 1264.5 484.5 c 128,-1,71
 1303 489 1303 489 1337 496.5 c 0,72,73
 1437.05 518.57 1437.05 518.57 1491 563 c 0,74,75
 1508 577 1508 577 1518 577 c 128,-1,76
 1528 577 1528 577 1528 570.5 c 128,-1,77
 1528 564 1528 564 1519 556 c 2,78,-1
 1496 536 l 1,79,80
 1384.28 446 1384.28 446 1126.8 446 c 0,0,1
144 557 m 0,81,82
 144 516 144 516 251 516 c 0,83,84
 346.6 516 346.6 516 448 594 c 2,85,-1
 475 615 l 1,86,87
 388.333 635 388.333 635 309.667 635 c 128,-1,88
 231 635 231 635 187.5 613 c 128,-1,89
 144 591 144 591 144 557 c 0,81,82
EndSplineSet
EndChar

StartChar: five
Encoding: 53 53 63
Width: 1231
Flags: HW
LayerCount: 2
Fore
SplineSet
498 789 m 1,0,1
 579.182 836 579.182 836 670.591 836 c 128,-1,2
 762 836 762 836 822 814.5 c 128,-1,3
 882 793 882 793 923 751.5 c 0,4,5
 1007.94 665.52 1007.94 665.52 1002 507 c 0,6,7
 994.129 312.198 994.129 312.198 850.5 117.5 c 0,8,9
 710.495 -72.2849 710.495 -72.2849 495.5 -191.5 c 0,10,11
 269.171 -317 269.171 -317 42 -317 c 0,12,13
 -122.885 -317 -122.885 -317 -225 -258 c 1,14,15
 -296 -213.371 -296 -213.371 -296 -165 c 0,16,17
 -296 -151 -296 -151 -288 -143 c 128,-1,18
 -280 -135 -280 -135 -267.5 -135 c 0,19,20
 -249.833 -135 -249.833 -135 -242.917 -152 c 0,21,22
 -230.344 -182.903 -230.344 -182.903 -215 -204 c 0,23,24
 -157.634 -288 -157.634 -288 48 -288 c 0,25,26
 252.741 -288 252.741 -288 450.5 -140.5 c 0,27,28
 628.914 -7.42878 628.914 -7.42878 748.5 200.5 c 0,29,30
 865 403.063 865 403.063 865 581 c 0,31,32
 865 747.487 865 747.487 746 783.5 c 0,33,34
 708 795 708 795 657 795 c 128,-1,35
 606 795 606 795 551 777.5 c 128,-1,36
 496 760 496 760 446.5 730 c 0,37,38
 342.059 666.703 342.059 666.703 285 575 c 0,39,40
 266.701 546.72 266.701 546.72 258.85 548.86 c 0,41,42
 243.446 553.06 243.446 553.06 246.223 564.03 c 128,-1,43
 249 575 249 575 262.5 595.5 c 128,-1,44
 276 616 276 616 296 639.5 c 0,45,46
 340.834 692.18 340.834 692.18 390 730 c 1,47,48
 665.431 1221.15 665.431 1221.15 748 1396 c 1,49,-1
 831 1400 l 1,50,51
 829 1397 829 1397 824.5 1387 c 2,52,-1
 813.5 1363 l 2,53,54
 807 1349 807 1349 798 1332 c 2,55,-1
 780 1297 l 1,56,57
 902.04 1410 902.04 1410 1026 1410 c 0,58,59
 1067.57 1410 1067.57 1410 1128.79 1390 c 128,-1,60
 1190 1370 1190 1370 1223.5 1370 c 128,-1,61
 1257 1370 1257 1370 1280 1373 c 128,-1,62
 1303 1376 1303 1376 1325 1386 c 0,63,64
 1380.96 1411.44 1380.96 1411.44 1421 1476.5 c 0,65,66
 1425 1483 1425 1483 1428.5 1491.5 c 128,-1,67
 1432 1500 1432 1500 1441 1500 c 256,68,69
 1450 1500 1450 1500 1450 1493 c 0,70,71
 1450 1478.33 1450 1478.33 1435 1449.17 c 128,-1,72
 1420 1420 1420 1420 1386.5 1381.5 c 128,-1,73
 1353 1343 1353 1343 1309.5 1315 c 0,74,75
 1216.29 1255 1216.29 1255 1099 1255 c 0,76,77
 1049.33 1255 1049.33 1255 1005.17 1268.5 c 0,78,79
 918.469 1295 918.469 1295 885.235 1295 c 128,-1,80
 852 1295 852 1295 813 1277.5 c 128,-1,81
 774 1260 774 1260 747 1231 c 1,82,-1
 523.5 831.5 l 2,83,84
 505 800 505 800 498 789 c 1,0,1
EndSplineSet
EndChar

StartChar: six
Encoding: 54 54 64
Width: 1400
Flags: HW
LayerCount: 2
Fore
SplineSet
588.5 496.5 m 128,-1,1
 589 532 589 532 606.5 584 c 128,-1,2
 624 636 624 636 654 684.5 c 128,-1,3
 684 733 684 733 724.5 775.5 c 128,-1,4
 765 818 765 818 812 849.5 c 0,5,6
 912.714 917 912.714 917 1009.86 917 c 128,-1,7
 1107 917 1107 917 1155 863 c 128,-1,8
 1203 809 1203 809 1201 710.5 c 128,-1,9
 1199 612 1199 612 1165.5 520.5 c 128,-1,10
 1132 429 1132 429 1077.5 349.5 c 128,-1,11
 1023 270 1023 270 952.5 204.5 c 128,-1,12
 882 139 882 139 805.5 92.5 c 0,13,14
 645.097 -4.99999 645.097 -4.99999 508 -5 c 0,15,16
 378.913 -5 378.913 -5 315 93 c 0,17,18
 255.807 183.763 255.807 183.763 260 341 c 0,19,20
 266.013 581.52 266.013 581.52 456 866.5 c 0,21,22
 576.223 1046.83 576.223 1046.83 737 1184.5 c 0,23,24
 1000.36 1410 1000.36 1410 1245 1410 c 0,25,26
 1351.76 1410 1351.76 1410 1413 1363.5 c 0,27,28
 1467.27 1322.29 1467.27 1322.29 1465 1270 c 1,29,30
 1465 1219.78 1465 1219.78 1443 1192.89 c 0,31,32
 1405.45 1147 1405.45 1147 1368.73 1147 c 128,-1,33
 1332 1147 1332 1147 1314.5 1166 c 128,-1,34
 1297 1185 1297 1185 1298 1218 c 128,-1,35
 1299 1251 1299 1251 1346 1279 c 1,36,37
 1379 1296.37 1379 1296.37 1380 1320.68 c 128,-1,38
 1381 1345 1381 1345 1347 1364 c 128,-1,39
 1313 1383 1313 1383 1240 1383 c 128,-1,40
 1167 1383 1167 1383 1084.5 1348 c 128,-1,41
 1002 1313 1002 1313 925 1252.5 c 128,-1,42
 848 1192 848 1192 778 1110.5 c 128,-1,43
 708 1029 708 1029 647.5 937 c 128,-1,44
 587 845 587 845 537.5 747 c 128,-1,45
 488 649 488 649 453 555 c 0,46,47
 378.988 356.226 378.988 356.226 376.994 242.613 c 128,-1,48
 375 129 375 129 405.5 76.5 c 128,-1,49
 436 24 436 24 490.5 24 c 128,-1,50
 545 24 545 24 592 40.5 c 128,-1,51
 639 57 639 57 692 97 c 0,52,53
 802.115 180.106 802.115 180.106 933 366 c 1,54,55
 1045.28 528.178 1045.28 528.178 1084.5 683.5 c 0,56,57
 1097 733 1097 733 1098 776 c 0,58,59
 1099 891 1099 891 1007 891 c 0,60,61
 953.035 891 953.035 891 889.018 846.5 c 128,-1,62
 825 802 825 802 784.5 763.5 c 128,-1,63
 744 725 744 725 709 680 c 0,64,65
 630.967 579.672 630.967 579.672 616 488 c 0,66,67
 611.235 461 611.235 461 599.618 461 c 128,-1,0
 588 461 588 461 588.5 496.5 c 128,-1,1
EndSplineSet
EndChar

StartChar: seven
Encoding: 55 55 65
Width: 1187
Flags: HW
LayerCount: 2
Fore
SplineSet
675 -520 m 0,0,1
 686 -531 686 -531 686 -538 c 128,-1,2
 686 -545 686 -545 678.5 -545 c 0,3,4
 671.4 -545 671.4 -545 642.2 -528 c 128,-1,5
 613 -511 613 -511 576 -470.5 c 128,-1,6
 539 -430 539 -430 508.5 -372.5 c 0,7,8
 439 -241.475 439 -241.475 439 -97.2377 c 128,-1,9
 439 47 439 47 485 191 c 128,-1,10
 531 335 531 335 621 491 c 0,11,12
 804.954 809.853 804.954 809.853 1154 1147 c 1,13,-1
 1264 1251 l 1,14,15
 1168 1192 1168 1192 1065 1192 c 0,16,17
 999.636 1192 999.636 1192 964.318 1213 c 128,-1,18
 929 1234 929 1234 908 1248 c 2,19,-1
 871 1272.5 l 2,20,21
 821.476 1305 821.476 1305 782.738 1305 c 128,-1,22
 744 1305 744 1305 717.5 1303.5 c 128,-1,23
 691 1302 691 1302 662 1292 c 0,24,25
 591.731 1267.77 591.731 1267.77 545 1202 c 1,26,27
 423.4 1000.32 423.4 1000.32 342 926 c 0,28,29
 319 905 319 905 307.5 905 c 128,-1,30
 296 905 296 905 296 912 c 0,31,32
 296 920 296 920 321.5 946.5 c 128,-1,33
 347 973 347 973 381 1016.5 c 128,-1,34
 415 1060 415 1060 448 1115 c 0,35,36
 527.264 1247.11 527.264 1247.11 543 1366 c 0,37,38
 545 1386 545 1386 548.5 1395 c 128,-1,39
 552 1404 552 1404 563 1404 c 0,40,41
 581 1404 581 1404 581 1382 c 0,42,43
 581 1337 581 1337 561 1267 c 1,44,45
 678.534 1410 678.534 1410 846 1410 c 0,46,47
 930.806 1410 930.806 1410 1009 1359.5 c 1,48,-1
 1061 1325 l 2,49,50
 1126.04 1281 1126.04 1281 1205 1281 c 0,51,52
 1264.81 1281 1264.81 1281 1297.41 1301 c 128,-1,53
 1330 1321 1330 1321 1352 1341.5 c 2,54,-1
 1404 1389 l 1,55,56
 1425.64 1406 1425.64 1406 1445.32 1406 c 128,-1,57
 1465 1406 1465 1406 1465 1390 c 0,58,59
 1465 1381 1465 1381 1458 1374.5 c 128,-1,60
 1451 1368 1451 1368 1436 1357.5 c 128,-1,61
 1421 1347 1421 1347 1399 1329 c 1,62,-1
 1271.5 1216.5 l 1,63,-1
 1186 1134 l 1,64,65
 711.05 664.878 711.05 664.878 592.5 197 c 0,66,67
 555 49 555 49 555 -54.5 c 128,-1,68
 555 -158 555 -158 563.5 -220 c 128,-1,69
 572 -282 572 -282 585.5 -334 c 0,70,71
 619.338 -464.338 619.338 -464.338 675 -520 c 0,0,1
EndSplineSet
EndChar

StartChar: eight
Encoding: 56 56 66
Width: 1310
Flags: HW
LayerCount: 2
Fore
SplineSet
677 791 m 1,0,1
 585 953.468 585 953.468 585 1059 c 0,2,3
 585 1190.09 585 1190.09 703 1296.5 c 0,4,5
 828.861 1410 828.861 1410 1004 1410 c 0,6,7
 1140.18 1410 1140.18 1410 1211 1342.5 c 0,8,9
 1273 1283.41 1273 1283.41 1273 1203.2 c 128,-1,10
 1273 1123 1273 1123 1240.5 1057 c 128,-1,11
 1208 991 1208 991 1152.5 935 c 0,12,13
 1035.14 816.587 1035.14 816.587 865 770 c 1,14,-1
 868 767 l 1,15,-1
 922.5 682.5 l 1,16,17
 1024 518.255 1024 518.255 1024 393 c 0,18,19
 1024 228.97 1024 228.97 875.5 109.5 c 0,20,21
 733.178 -5.00001 733.178 -5.00001 555 -5 c 0,22,23
 379 -5 379 -5 289 85 c 0,24,25
 207 167 207 167 207 301 c 0,26,27
 207 454.578 207 454.578 345 591.5 c 0,28,29
 474.55 720.038 474.55 720.038 677 791 c 1,0,1
850 793 m 1,30,31
 989.235 830.406 989.235 830.406 1094 948 c 0,32,33
 1203 1070.35 1203 1070.35 1203 1198 c 0,34,35
 1203 1322.84 1203 1322.84 1099.5 1367 c 0,36,37
 1062 1383 1062 1383 1013.5 1383 c 128,-1,38
 965 1383 965 1383 915 1365.5 c 128,-1,39
 865 1348 865 1348 822.5 1313 c 0,40,41
 723 1231.06 723 1231.06 723 1108 c 0,42,43
 723 983.5 723 983.5 850 793 c 1,30,31
307 325.5 m 0,44,45
 307 253 307 253 327 196 c 128,-1,46
 347 139 347 139 383 100.5 c 0,47,48
 455.468 23 455.468 23 576 23 c 0,49,50
 690.357 23 690.357 23 781.5 111 c 0,51,52
 880 206.103 880 206.103 880 337 c 0,53,54
 880 410.286 880 410.286 861 459.143 c 0,55,56
 828.966 541.517 828.966 541.517 782.983 615.759 c 2,57,-1
 692 765 l 1,58,59
 520.678 707.229 520.678 707.229 414 588 c 0,60,61
 307 468.412 307 468.412 307 325.5 c 0,44,45
EndSplineSet
EndChar

StartChar: nine
Encoding: 57 57 67
Width: 1361
Flags: HW
LayerCount: 2
Fore
SplineSet
1141 830 m 1,0,1
 913.799 569 913.799 569 719 569 c 0,2,3
 591.473 569 591.473 569 516.5 645 c 0,4,5
 437.382 725.202 437.382 725.202 453 856 c 1,6,7
 466.534 995.212 466.534 995.212 551.5 1127.5 c 0,8,9
 676.091 1321.48 676.091 1321.48 882 1387 c 0,10,11
 948 1408 948 1408 1024 1408 c 128,-1,12
 1100 1408 1100 1408 1161 1382 c 128,-1,13
 1222 1356 1222 1356 1260 1306.5 c 0,14,15
 1374.13 1157.83 1374.13 1157.83 1287 844.5 c 0,16,17
 1203.7 544.952 1203.7 544.952 996.5 307.5 c 0,18,19
 852.18 142.112 852.18 142.112 678 56 c 0,20,21
 560.188 -2 560.188 -2 427 -2 c 0,22,23
 302.611 -2 302.611 -2 221.5 58 c 0,24,25
 146 113.849 146 113.849 146 185 c 1,26,27
 148 222 148 222 170 246 c 128,-1,28
 192 270 192 270 219 270 c 128,-1,29
 246 270 246 270 258.5 264.5 c 128,-1,30
 271 259 271 259 278.5 250 c 0,31,32
 293 232.6 293 232.6 293 215.8 c 0,33,34
 293 195 293 195 279.5 175 c 128,-1,35
 266 155 266 155 265.5 134 c 128,-1,36
 265 113 265 113 279.5 94 c 128,-1,37
 294 75 294 75 317.5 59.5 c 0,38,39
 371.323 24 371.323 24 453.161 24 c 128,-1,40
 535 24 535 24 636 81 c 128,-1,41
 737 138 737 138 828.5 243 c 0,42,43
 1015.52 457.616 1015.52 457.616 1141 830 c 1,0,1
829.5 618.5 m 128,-1,45
 887 644 887 644 942 687.5 c 128,-1,46
 997 731 997 731 1046 788.5 c 128,-1,47
 1095 846 1095 846 1132 910.5 c 0,48,49
 1213.08 1051.84 1213.08 1051.84 1215 1173 c 1,50,51
 1220.57 1340.12 1220.57 1340.12 1117.5 1368.5 c 0,52,53
 1083 1378 1083 1378 1033 1378 c 128,-1,54
 983 1378 983 1378 926.5 1347.5 c 128,-1,55
 870 1317 870 1317 816 1267 c 128,-1,56
 762 1217 762 1217 714 1152 c 128,-1,57
 666 1087 666 1087 630 1018 c 0,58,59
 487.655 745.171 487.655 745.171 589 639 c 0,60,61
 632.909 593 632.909 593 702.455 593 c 128,-1,44
 772 593 772 593 829.5 618.5 c 128,-1,45
EndSplineSet
EndChar

StartChar: period
Encoding: 46 46 68
Width: 726
Flags: HW
LayerCount: 2
Fore
SplineSet
99 18.5 m 128,-1,1
 79 39 79 39 79 66 c 128,-1,2
 79 93 79 93 88.5 112.5 c 128,-1,3
 98 132 98 132 114 147.5 c 0,4,5
 149.613 182 149.613 182 190.806 182 c 0,6,7
 270 182 270 182 270 108 c 0,8,9
 270 66.1471 270 66.1471 242.5 41.0735 c 0,10,11
 195.258 -2.00001 195.258 -2.00001 157.129 -2 c 128,-1,0
 119 -2 119 -2 99 18.5 c 128,-1,1
EndSplineSet
EndChar

StartChar: ellipsis
Encoding: 8230 8230 69
Width: 2178
Flags: HW
LayerCount: 2
Fore
SplineSet
1551 18.5 m 128,-1,1
 1531 39 1531 39 1531 66 c 128,-1,2
 1531 93 1531 93 1540.5 112.5 c 128,-1,3
 1550 132 1550 132 1566 147.5 c 0,4,5
 1601.61 182 1601.61 182 1642.81 182 c 0,6,7
 1722 182 1722 182 1722 108 c 0,8,9
 1722 66.1471 1722 66.1471 1694.5 41.0735 c 0,10,11
 1647.26 -2.00001 1647.26 -2.00001 1609.13 -2 c 128,-1,0
 1571 -2 1571 -2 1551 18.5 c 128,-1,1
825 18.5 m 128,-1,13
 805 39 805 39 805 66 c 128,-1,14
 805 93 805 93 814.5 112.5 c 128,-1,15
 824 132 824 132 840 147.5 c 0,16,17
 875.613 182 875.613 182 916.806 182 c 0,18,19
 996 182 996 182 996 108 c 0,20,21
 996 66.1471 996 66.1471 968.5 41.0735 c 0,22,23
 921.258 -2.00001 921.258 -2.00001 883.129 -2 c 128,-1,12
 845 -2 845 -2 825 18.5 c 128,-1,13
99 18.5 m 128,-1,25
 79 39 79 39 79 66 c 128,-1,26
 79 93 79 93 88.5 112.5 c 128,-1,27
 98 132 98 132 114 147.5 c 0,28,29
 149.613 182 149.613 182 190.806 182 c 0,30,31
 270 182 270 182 270 108 c 0,32,33
 270 66.1471 270 66.1471 242.5 41.0735 c 0,34,35
 195.258 -2.00001 195.258 -2.00001 157.129 -2 c 128,-1,24
 119 -2 119 -2 99 18.5 c 128,-1,25
EndSplineSet
EndChar

StartChar: periodcentered
Encoding: 183 183 70
Width: 726
Flags: HW
LayerCount: 2
Fore
SplineSet
96.5 380 m 128,-1,1
 75 371 75 371 48.5 371 c 128,-1,2
 22 371 22 371 2 391.5 c 128,-1,3
 -18 412 -18 412 -18 439 c 128,-1,4
 -18 466 -18 466 -8.5 485.5 c 128,-1,5
 1 505 1 505 17 520.5 c 0,6,7
 52.6129 555 52.6129 555 93.8064 555 c 0,8,9
 173 555 173 555 173 481 c 0,10,11
 173 439.147 173 439.147 145.5 414.074 c 128,-1,0
 118 389 118 389 96.5 380 c 128,-1,1
EndSplineSet
EndChar

StartChar: bullet
Encoding: 8226 8226 71
Width: 726
Flags: HW
LayerCount: 2
Fore
SplineSet
396 326 m 128,-1,1
 366 313 366 313 328.5 313 c 128,-1,2
 291 313 291 313 262.5 342.5 c 128,-1,3
 234 372 234 372 234 409 c 128,-1,4
 234 446 234 446 247 474 c 128,-1,5
 260 502 260 502 283 523.5 c 0,6,7
 334.884 572 334.884 572 391.942 572 c 128,-1,8
 449 572 449 572 476 543 c 128,-1,9
 503 514 503 514 503 475.5 c 128,-1,10
 503 437 503 437 488.5 409.5 c 128,-1,11
 474 382 474 382 450 360.5 c 128,-1,0
 426 339 426 339 396 326 c 128,-1,1
EndSplineSet
EndChar

StartChar: comma
Encoding: 44 44 72
Width: 726
Flags: HW
LayerCount: 2
Fore
SplineSet
-46 -213 m 0,0,1
 -60 -213 -60 -213 -60 -201 c 0,2,3
 -60 -189.846 -60 -189.846 -36 -182.923 c 128,-1,4
 -12 -176 -12 -176 17.5 -155.5 c 128,-1,5
 47 -135 47 -135 72 -110.5 c 0,6,7
 130 -53.66 130 -53.66 130 -29.33 c 0,8,9
 130 7.5 130 7.5 122.5 30.25 c 0,10,11
 111 65.1333 111 65.1333 111 85.0667 c 128,-1,12
 111 105 111 105 118 121 c 128,-1,13
 125 137 125 137 137.5 150.5 c 0,14,15
 166.667 182 166.667 182 207 182 c 0,16,17
 271 182 271 182 271 105 c 0,18,19
 271 -13.52 271 -13.52 105 -143 c 1,20,21
 13.125 -213 13.125 -213 -46 -213 c 0,0,1
EndSplineSet
EndChar

StartChar: colon
Encoding: 58 58 73
Width: 726
Flags: HW
LayerCount: 2
Fore
SplineSet
106.5 477 m 128,-1,1
 85 468 85 468 58.5 468 c 128,-1,2
 32 468 32 468 12 488.5 c 128,-1,3
 -8 509 -8 509 -8 536 c 128,-1,4
 -8 563 -8 563 1.5 582.5 c 128,-1,5
 11 602 11 602 27 617.5 c 0,6,7
 62.6129 652 62.6129 652 103.806 652 c 0,8,9
 183 652 183 652 183 578 c 0,10,11
 183 536.147 183 536.147 155.5 511.074 c 128,-1,0
 128 486 128 486 106.5 477 c 128,-1,1
-50 185.5 m 128,-1,13
 -31 165 -31 165 -31 138 c 128,-1,14
 -31 111 -31 111 -41.5 91 c 128,-1,15
 -52 71 -52 71 -69 55.5 c 0,16,17
 -105.742 22 -105.742 22 -143.871 22 c 128,-1,18
 -182 22 -182 22 -202 42.5 c 128,-1,19
 -222 63 -222 63 -222 90 c 128,-1,20
 -222 117 -222 117 -212.5 136.5 c 128,-1,21
 -203 156 -203 156 -187 171.5 c 0,22,23
 -151.387 206 -151.387 206 -110.194 206 c 128,-1,12
 -69 206 -69 206 -50 185.5 c 128,-1,13
EndSplineSet
EndChar

StartChar: semicolon
Encoding: 59 59 74
Width: 726
Flags: HW
LayerCount: 2
Fore
SplineSet
106.5 477 m 128,-1,1
 85 468 85 468 58.5 468 c 128,-1,2
 32 468 32 468 12 488.5 c 128,-1,3
 -8 509 -8 509 -8 536 c 128,-1,4
 -8 563 -8 563 1.5 582.5 c 128,-1,5
 11 602 11 602 27 617.5 c 0,6,7
 62.6129 652 62.6129 652 103.806 652 c 0,8,9
 183 652 183 652 183 578 c 0,10,11
 183 536.147 183 536.147 155.5 511.074 c 128,-1,0
 128 486 128 486 106.5 477 c 128,-1,1
-94 206 m 0,12,13
 -30 206 -30 206 -30 129 c 0,14,15
 -30 10.48 -30 10.48 -196 -119 c 0,16,17
 -256.497 -165.093 -256.497 -165.093 -294.748 -177.046 c 128,-1,18
 -333 -189 -333 -189 -347 -189 c 128,-1,19
 -361 -189 -361 -189 -361 -177 c 0,20,21
 -361 -165.846 -361 -165.846 -337 -158.923 c 128,-1,22
 -313 -152 -313 -152 -283.5 -131.5 c 128,-1,23
 -254 -111 -254 -111 -229 -86.5 c 0,24,25
 -171 -29.66 -171 -29.66 -171 -5.33 c 0,26,27
 -171 31.5 -171 31.5 -178.5 54.25 c 0,28,29
 -190 89.1333 -190 89.1333 -190 109.067 c 128,-1,30
 -190 129 -190 129 -183 145 c 128,-1,31
 -176 161 -176 161 -163.5 174.5 c 0,32,33
 -134.333 206 -134.333 206 -94 206 c 0,12,13
EndSplineSet
EndChar

StartChar: exclam
Encoding: 33 33 75
Width: 807
Flags: HW
LayerCount: 2
Fore
SplineSet
886 1279 m 1,0,1
 929.154 1271.81 929.154 1271.81 963.077 1273.4 c 128,-1,2
 997 1275 997 1275 1005.5 1275 c 128,-1,3
 1014 1275 1014 1275 1024 1275.5 c 0,4,5
 1045.43 1276.57 1045.43 1276.57 1060 1279 c 1,6,7
 973 1182 973 1182 902 1094.5 c 1,8,9
 732.489 877.759 732.489 877.759 670.745 789.38 c 2,10,-1
 346 331 l 2,11,12
 334.8 315 334.8 315 324.4 315 c 128,-1,13
 314 315 314 315 314 323 c 0,14,15
 314 339.4 314 339.4 338.5 383.2 c 2,16,-1
 499.5 662.5 l 1,17,-1
 784 1125.5 l 1,18,-1
 886 1279 l 1,0,1
137 16 m 128,-1,20
 120 34 120 34 120 56.5 c 128,-1,21
 120 79 120 79 128 95.5 c 128,-1,22
 136 112 136 112 150 125 c 0,23,24
 181.231 154 181.231 154 215.615 154 c 0,25,26
 282 154 282 154 282 91 c 0,27,28
 282 34.4444 282 34.4444 218 6 c 0,29,30
 200 -2 200 -2 177 -2 c 128,-1,19
 154 -2 154 -2 137 16 c 128,-1,20
EndSplineSet
EndChar

StartChar: exclamdown
Encoding: 161 161 76
Width: 807
Flags: HW
LayerCount: 2
Fore
SplineSet
886 983 m 128,-1,1
 868 975 868 975 843 975 c 128,-1,2
 818 975 818 975 802 992 c 128,-1,3
 786 1009 786 1009 786 1032.5 c 128,-1,4
 786 1056 786 1056 794.5 1073 c 128,-1,5
 803 1090 803 1090 817.5 1102.5 c 0,6,7
 850.56 1131 850.56 1131 882.28 1131 c 128,-1,8
 914 1131 914 1131 931 1113 c 128,-1,9
 948 1095 948 1095 948 1072.5 c 128,-1,10
 948 1050 948 1050 940 1033.5 c 128,-1,11
 932 1017 932 1017 918 1004 c 128,-1,0
 904 991 904 991 886 983 c 128,-1,1
182 -150 m 1,12,13
 138.846 -142.808 138.846 -142.808 104.923 -144.404 c 128,-1,14
 71 -146 71 -146 62.5 -146 c 128,-1,15
 54 -146 54 -146 44 -146.5 c 0,16,17
 22.5714 -147.571 22.5714 -147.571 8 -150 c 1,18,19
 95 -53 95 -53 165.5 34.5 c 1,20,21
 331.946 248.138 331.946 248.138 395.473 337.569 c 2,22,-1
 722 798 l 2,23,24
 733.2 814 733.2 814 743.6 814 c 128,-1,25
 754 814 754 814 754 806 c 0,26,27
 754 789.6 754 789.6 729.5 745.8 c 2,28,-1
 568.5 466.5 l 1,29,-1
 284 3 l 2,30,31
 246 -57 246 -57 223 -90 c 2,32,-1
 182 -150 l 1,12,13
EndSplineSet
EndChar

StartChar: question
Encoding: 63 63 77
Width: 872
Flags: HW
LayerCount: 2
Fore
SplineSet
406.875 322 m 128,-1,1
 396.75 307 396.75 307 382.875 307 c 128,-1,2
 369 307 369 307 369 322 c 128,-1,3
 369 337 369 337 381 353 c 128,-1,4
 393 369 393 369 426 410 c 0,5,6
 528.107 535.446 528.107 535.446 567.554 580.223 c 1,7,8
 669.339 690.705 669.339 690.705 734.169 754.852 c 128,-1,9
 799 819 799 819 840 867 c 128,-1,10
 881 915 881 915 906.5 957.5 c 0,11,12
 955 1038.33 955 1038.33 955 1114.17 c 128,-1,13
 955 1190 955 1190 919.5 1225 c 128,-1,14
 884 1260 884 1260 840 1260 c 128,-1,15
 796 1260 796 1260 768 1252 c 128,-1,16
 740 1244 740 1244 716.5 1231 c 0,17,18
 672.752 1206.8 672.752 1206.8 648.376 1169.4 c 0,19,20
 617.187 1121.55 617.187 1121.55 614.593 1074.77 c 0,21,22
 609.616 985 609.616 985 543 985 c 0,23,24
 520 985 520 985 506 1001.5 c 128,-1,25
 492 1018 492 1018 492 1045 c 128,-1,26
 492 1072 492 1072 521.5 1114 c 128,-1,27
 551 1156 551 1156 600.5 1194 c 0,28,29
 719.039 1285 719.039 1285 850 1285 c 0,30,31
 937.25 1285 937.25 1285 1006 1235 c 0,32,33
 1080 1181.18 1080 1181.18 1080 1099 c 0,34,35
 1080 1026.67 1080 1026.67 1042 972.833 c 0,36,37
 972.677 874.626 972.677 874.626 783 724 c 1,38,39
 627.094 602.11 627.094 602.11 495 448 c 0,40,41
 426.231 367.769 426.231 367.769 421.615 352.385 c 128,-1,0
 417 337 417 337 406.875 322 c 128,-1,1
180.5 16 m 128,-1,43
 163 34 163 34 163 56.5 c 128,-1,44
 163 79 163 79 171 95.5 c 128,-1,45
 179 112 179 112 193 125 c 0,46,47
 224.231 154 224.231 154 259.115 154 c 0,48,49
 327 154 327 154 327 91 c 0,50,51
 327 34.8889 327 34.8889 262 6 c 0,52,53
 244 -2 244 -2 221 -2 c 128,-1,42
 198 -2 198 -2 180.5 16 c 128,-1,43
EndSplineSet
EndChar

StartChar: questiondown
Encoding: 191 191 78
Width: 1212
Flags: HW
LayerCount: 2
Fore
SplineSet
1034.5 990 m 128,-1,1
 1018 1007 1018 1007 1018 1030.5 c 128,-1,2
 1018 1054 1018 1054 1027 1071 c 128,-1,3
 1036 1088 1036 1088 1050.5 1100.5 c 0,4,5
 1083.56 1129 1083.56 1129 1115.28 1129 c 128,-1,6
 1147 1129 1147 1129 1164.5 1111 c 128,-1,7
 1182 1093 1182 1093 1182 1070.5 c 128,-1,8
 1182 1048 1182 1048 1174 1031.5 c 128,-1,9
 1166 1015 1166 1015 1152 1002 c 0,10,11
 1120.77 973 1120.77 973 1085.88 973 c 128,-1,0
 1051 973 1051 973 1034.5 990 c 128,-1,1
938.125 805 m 128,-1,13
 948.25 820 948.25 820 962.125 820 c 128,-1,14
 976 820 976 820 976 805 c 128,-1,15
 976 790 976 790 964 774 c 128,-1,16
 952 758 952 758 919 716.5 c 0,17,18
 822.244 597.628 822.244 597.628 780.122 549.814 c 1,19,20
 675.991 436.618 675.991 436.618 610.995 372.309 c 128,-1,21
 546 308 546 308 504.5 260 c 128,-1,22
 463 212 463 212 437.5 169.5 c 0,23,24
 390 90.3333 390 90.3333 390 13.6667 c 128,-1,25
 390 -63 390 -63 425.5 -98 c 128,-1,26
 461 -133 461 -133 505 -133 c 128,-1,27
 549 -133 549 -133 577 -125 c 128,-1,28
 605 -117 605 -117 628.5 -104 c 0,29,30
 720.422 -53.1497 720.422 -53.1497 729 45.5 c 0,31,32
 730 57 730 57 731.5 78 c 128,-1,33
 733 99 733 99 752 120.5 c 128,-1,34
 771 142 771 142 798 142 c 128,-1,35
 825 142 825 142 839 125.5 c 128,-1,36
 853 109 853 109 853 82 c 128,-1,37
 853 55 853 55 823.5 13 c 128,-1,38
 794 -29 794 -29 744.5 -67 c 0,39,40
 625.961 -158 625.961 -158 495 -158 c 0,41,42
 407.75 -158 407.75 -158 339 -108 c 0,43,44
 265 -54.1818 265 -54.1818 265 28 c 0,45,46
 265 100.333 265 100.333 303 154.167 c 0,47,48
 372.323 252.374 372.323 252.374 562 403 c 1,49,50
 717.905 524.89 717.905 524.89 850 679 c 0,51,52
 918.769 759.231 918.769 759.231 923.385 774.615 c 128,-1,12
 928 790 928 790 938.125 805 c 128,-1,13
EndSplineSet
EndChar

StartChar: quoteleft
Encoding: 8216 8216 79
Width: 980
Flags: HW
LayerCount: 2
Fore
SplineSet
899 1430 m 1,0,-1
 910 1355 l 1,1,2
 910 1324.36 910 1324.36 889 1301.68 c 0,3,4
 852.259 1262 852.259 1262 825.13 1262 c 128,-1,5
 798 1262 798 1262 782 1282 c 128,-1,6
 766 1302 766 1302 766 1332 c 128,-1,7
 766 1362 766 1362 773 1389 c 128,-1,8
 780 1416 780 1416 798.5 1446.5 c 0,9,10
 840.116 1515.11 840.116 1515.11 931 1586 c 0,11,12
 994 1634 994 1634 1031.5 1646.5 c 128,-1,13
 1069 1659 1069 1659 1078 1659 c 0,14,15
 1097 1659 1097 1659 1097 1645 c 0,16,17
 1097 1636.46 1097 1636.46 1069 1626.73 c 128,-1,18
 1041 1617 1041 1617 1009 1593 c 128,-1,19
 977 1569 977 1569 952.5 1540.5 c 0,20,21
 899 1478.27 899 1478.27 899 1430 c 1,0,-1
EndSplineSet
EndChar

StartChar: quoteright
Encoding: 8217 8217 80
Width: 844
Flags: HW
LayerCount: 2
Fore
SplineSet
1015 1477 m 1,0,-1
 1004 1552 l 1,1,2
 1004 1582.64 1004 1582.64 1025 1605.32 c 0,3,4
 1061.74 1645 1061.74 1645 1088.87 1645 c 0,5,6
 1148 1645 1148 1645 1148 1567 c 0,7,8
 1148 1449.7 1148 1449.7 983 1321 c 0,9,10
 923.111 1275.37 923.111 1275.37 883.556 1262.19 c 128,-1,11
 844 1249 844 1249 830.5 1249 c 128,-1,12
 817 1249 817 1249 817 1262 c 0,13,14
 817 1269.85 817 1269.85 845 1280.42 c 128,-1,15
 873 1291 873 1291 905 1314.5 c 128,-1,16
 937 1338 937 1338 961.5 1366.5 c 0,17,18
 1015 1428.73 1015 1428.73 1015 1477 c 1,0,-1
EndSplineSet
EndChar

StartChar: quotedblleft
Encoding: 8220 8220 81
Width: 1422
Flags: HW
LayerCount: 2
Fore
SplineSet
1183 1416 m 1,0,-1
 1194 1342 l 1,1,2
 1194 1312.36 1194 1312.36 1173 1289.68 c 0,3,4
 1135.33 1249 1135.33 1249 1108.67 1249 c 128,-1,5
 1082 1249 1082 1249 1066 1269.5 c 128,-1,6
 1050 1290 1050 1290 1050 1319 c 128,-1,7
 1050 1348 1050 1348 1057 1375 c 128,-1,8
 1064 1402 1064 1402 1082.5 1432.5 c 0,9,10
 1124.12 1501.11 1124.12 1501.11 1215 1572 c 0,11,12
 1277.22 1619.41 1277.22 1619.41 1315.61 1632.2 c 128,-1,13
 1354 1645 1354 1645 1363 1645 c 0,14,15
 1381 1645 1381 1645 1381 1631 c 0,16,17
 1381 1622.46 1381 1622.46 1353 1612.73 c 128,-1,18
 1325 1603 1325 1603 1293 1580 c 128,-1,19
 1261 1557 1261 1557 1236.5 1528.5 c 0,20,21
 1183 1466.27 1183 1466.27 1183 1416 c 1,0,-1
858 1416 m 1,22,-1
 869 1342 l 1,23,24
 869 1312.36 869 1312.36 848 1289.68 c 0,25,26
 810.333 1249 810.333 1249 783.667 1249 c 128,-1,27
 757 1249 757 1249 741 1269.5 c 128,-1,28
 725 1290 725 1290 725 1319 c 128,-1,29
 725 1348 725 1348 732 1375 c 128,-1,30
 739 1402 739 1402 757.5 1432.5 c 0,31,32
 799.116 1501.11 799.116 1501.11 890 1572 c 0,33,34
 953 1620 953 1620 990.5 1632.5 c 128,-1,35
 1028 1645 1028 1645 1037 1645 c 0,36,37
 1056 1645 1056 1645 1056 1631 c 0,38,39
 1056 1622.46 1056 1622.46 1028 1612.73 c 128,-1,40
 1000 1603 1000 1603 968 1580 c 128,-1,41
 936 1557 936 1557 911.5 1528.5 c 0,42,43
 858 1466.27 858 1466.27 858 1416 c 1,22,-1
EndSplineSet
EndChar

StartChar: quotedblright
Encoding: 8221 8221 82
Width: 848
Flags: HW
LayerCount: 2
Fore
SplineSet
1145.5 1249 m 128,-1,1
 1132 1249 1132 1249 1132 1262 c 0,2,3
 1132 1269.85 1132 1269.85 1160 1280.42 c 128,-1,4
 1188 1291 1188 1291 1219.5 1314.5 c 128,-1,5
 1251 1338 1251 1338 1275.5 1366.5 c 0,6,7
 1329 1428.73 1329 1428.73 1329 1477 c 1,8,9
 1319 1552 l 1,10,11
 1319 1582.64 1319 1582.64 1340 1605.32 c 0,12,13
 1376.74 1645 1376.74 1645 1403.87 1645 c 0,14,15
 1463 1645 1463 1645 1463 1567 c 0,16,17
 1463 1450.48 1463 1450.48 1297 1321 c 0,18,19
 1241.29 1276.43 1241.29 1276.43 1200.14 1262.71 c 128,-1,0
 1159 1249 1159 1249 1145.5 1249 c 128,-1,1
1015 1477 m 1,20,-1
 1004 1552 l 1,21,22
 1004 1582.64 1004 1582.64 1025 1605.32 c 0,23,24
 1061.74 1645 1061.74 1645 1088.87 1645 c 0,25,26
 1148 1645 1148 1645 1148 1567 c 0,27,28
 1148 1449.7 1148 1449.7 983 1321 c 0,29,30
 923.111 1275.37 923.111 1275.37 883.556 1262.19 c 128,-1,31
 844 1249 844 1249 830.5 1249 c 128,-1,32
 817 1249 817 1249 817 1262 c 0,33,34
 817 1269.85 817 1269.85 845 1280.42 c 128,-1,35
 873 1291 873 1291 905 1314.5 c 128,-1,36
 937 1338 937 1338 961.5 1366.5 c 0,37,38
 1015 1428.73 1015 1428.73 1015 1477 c 1,20,-1
EndSplineSet
EndChar

StartChar: quotesingle
Encoding: 39 39 83
Width: 1072
Flags: HW
LayerCount: 2
Fore
SplineSet
793 1175 m 256,0,1
 793 1181 793 1181 798.5 1192 c 2,2,-1
 936.5 1446.5 l 2,3,4
 943 1458 943 1458 948 1468.5 c 2,5,-1
 961 1495 l 1,6,7
 1009.06 1585.35 1009.06 1585.35 1036.03 1608.67 c 0,8,9
 1075.7 1642.99 1075.7 1642.99 1113.35 1644.49 c 128,-1,10
 1151 1646 1151 1646 1161 1634.5 c 128,-1,11
 1171 1623 1171 1623 1171 1607 c 128,-1,12
 1171 1591 1171 1591 1165.5 1577.5 c 128,-1,13
 1160 1564 1160 1564 1142 1540.5 c 128,-1,14
 1124 1517 1124 1517 1090.5 1478 c 2,15,-1
 898.5 1255 l 1,16,17
 817.25 1164 817.25 1164 805.125 1164 c 128,-1,18
 793 1164 793 1164 793 1175 c 256,0,1
EndSplineSet
EndChar

StartChar: quotesinglbase
Encoding: 8218 8218 84
Width: 544
Flags: HW
LayerCount: 2
Fore
SplineSet
-49 -192 m 1,0,-1
 -60 -117 l 1,1,2
 -60 -86.36 -60 -86.36 -39 -63.68 c 0,3,4
 -2.25926 -24 -2.25926 -24 24.8704 -24 c 128,-1,5
 52 -24 52 -24 68 -44 c 128,-1,6
 84 -64 84 -64 84 -94 c 128,-1,7
 84 -124 84 -124 77 -151 c 128,-1,8
 70 -178 70 -178 51.5 -208.5 c 0,9,10
 9.88363 -277.111 9.88363 -277.111 -81 -348 c 0,11,12
 -144 -396 -144 -396 -181.5 -408.5 c 128,-1,13
 -219 -421 -219 -421 -228 -421 c 0,14,15
 -247 -421 -247 -421 -247 -407 c 0,16,17
 -247 -398.462 -247 -398.462 -219 -388.731 c 128,-1,18
 -191 -379 -191 -379 -159 -355.5 c 128,-1,19
 -127 -332 -127 -332 -102.5 -303.5 c 0,20,21
 -49 -241.265 -49 -241.265 -49 -192 c 1,0,-1
EndSplineSet
EndChar

StartChar: quotedbl
Encoding: 34 34 85
Width: 1430
Flags: HW
LayerCount: 2
Fore
SplineSet
1150 1175 m 256,0,1
 1150 1184.3 1150 1184.3 1176 1230.65 c 2,2,-1
 1293.5 1446.5 l 2,3,4
 1300 1458 1300 1458 1305 1468.5 c 2,5,-1
 1318 1495 l 1,6,7
 1366.06 1585.35 1366.06 1585.35 1393.03 1608.67 c 0,8,9
 1432.7 1642.99 1432.7 1642.99 1470.35 1644.49 c 128,-1,10
 1508 1646 1508 1646 1518.5 1634.5 c 128,-1,11
 1529 1623 1529 1623 1529 1607 c 128,-1,12
 1529 1591 1529 1591 1523.5 1577.5 c 128,-1,13
 1518 1564 1518 1564 1500 1540.5 c 128,-1,14
 1482 1517 1482 1517 1448 1478 c 2,15,-1
 1255 1255 l 1,16,-1
 1197 1192.5 l 2,17,18
 1169.2 1164 1169.2 1164 1159.6 1164 c 128,-1,19
 1150 1164 1150 1164 1150 1175 c 256,0,1
793 1175 m 256,20,21
 793 1181 793 1181 798.5 1192 c 2,22,-1
 936.5 1446.5 l 2,23,24
 943 1458 943 1458 948 1468.5 c 2,25,-1
 961 1495 l 1,26,27
 1009.06 1585.35 1009.06 1585.35 1036.03 1608.67 c 0,28,29
 1075.7 1642.99 1075.7 1642.99 1113.35 1644.49 c 128,-1,30
 1151 1646 1151 1646 1161 1634.5 c 128,-1,31
 1171 1623 1171 1623 1171 1607 c 128,-1,32
 1171 1591 1171 1591 1165.5 1577.5 c 128,-1,33
 1160 1564 1160 1564 1142 1540.5 c 128,-1,34
 1124 1517 1124 1517 1090.5 1478 c 2,35,-1
 898.5 1255 l 1,36,37
 817.25 1164 817.25 1164 805.125 1164 c 128,-1,38
 793 1164 793 1164 793 1175 c 256,20,21
EndSplineSet
EndChar

StartChar: quotedblbase
Encoding: 8222 8222 86
Width: 838
Flags: HW
LayerCount: 2
Fore
SplineSet
246 -192 m 1,0,-1
 235 -117 l 1,1,2
 235 -86.36 235 -86.36 256 -63.68 c 0,3,4
 321.85 7.43778 321.85 7.43778 363 -44 c 0,5,6
 379 -64 379 -64 379 -94 c 128,-1,7
 379 -124 379 -124 372 -151 c 128,-1,8
 365 -178 365 -178 346.5 -208.5 c 0,9,10
 304.884 -277.111 304.884 -277.111 214 -348 c 0,11,12
 151 -396 151 -396 113.5 -408.5 c 128,-1,13
 76 -421 76 -421 67 -421 c 0,14,15
 48 -421 48 -421 48 -407 c 0,16,17
 48 -398.462 48 -398.462 76 -388.731 c 128,-1,18
 104 -379 104 -379 136 -355.5 c 128,-1,19
 168 -332 168 -332 192.5 -303.5 c 0,20,21
 246 -241.265 246 -241.265 246 -192 c 1,0,-1
-49 -192 m 1,22,-1
 -60 -117 l 1,23,24
 -60 -86.36 -60 -86.36 -39 -63.68 c 0,25,26
 -2.25926 -24 -2.25926 -24 24.8704 -24 c 128,-1,27
 52 -24 52 -24 68 -44 c 128,-1,28
 84 -64 84 -64 84 -94 c 128,-1,29
 84 -124 84 -124 77 -151 c 128,-1,30
 70 -178 70 -178 51.5 -208.5 c 0,31,32
 9.88363 -277.111 9.88363 -277.111 -81 -348 c 0,33,34
 -144 -396 -144 -396 -181.5 -408.5 c 128,-1,35
 -219 -421 -219 -421 -228 -421 c 0,36,37
 -247 -421 -247 -421 -247 -407 c 0,38,39
 -247 -398.462 -247 -398.462 -219 -388.731 c 128,-1,40
 -191 -379 -191 -379 -159 -355.5 c 128,-1,41
 -127 -332 -127 -332 -102.5 -303.5 c 0,42,43
 -49 -241.265 -49 -241.265 -49 -192 c 1,22,-1
EndSplineSet
EndChar

StartChar: guilsinglleft
Encoding: 8249 8249 87
Width: 1287
Flags: HW
LayerCount: 2
Fore
SplineSet
506.5 320.5 m 2,0,1
 489 346 489 346 473.5 364.5 c 128,-1,2
 458 383 458 383 458 391.5 c 0,3,4
 458 403.765 458 403.765 489 421.382 c 2,5,6
 558.5 462.5 l 2,7,8
 597 486 597 486 636 513.5 c 1,9,-1
 712.5 570 l 1,10,11
 750 599 750 599 771.5 620.5 c 0,12,13
 803 652 803 652 812.5 652 c 128,-1,14
 822 652 822 652 822 644 c 0,15,16
 822 631.5 822 631.5 804 610.75 c 2,17,-1
 709.5 502.5 l 1,18,19
 637.857 423.571 637.857 423.571 571 367 c 1,20,21
 592 313 592 313 607.5 267.5 c 2,22,-1
 634 188 l 1,23,24
 640 164 640 164 640 152.5 c 128,-1,25
 640 141 640 141 630 141 c 128,-1,26
 620 141 620 141 610 160.5 c 128,-1,27
 600 180 600 180 581.5 209 c 2,28,-1
 506.5 320.5 l 2,0,1
EndSplineSet
EndChar

StartChar: guilsinglright
Encoding: 8250 8250 88
Width: 1416
Flags: HW
LayerCount: 2
Fore
SplineSet
718 426 m 1,0,1
 650 600.857 650 600.857 650 626.929 c 128,-1,2
 650 653 650 653 657.5 653 c 0,3,4
 669.818 653 669.818 653 679.909 633 c 128,-1,5
 690 613 690 613 708 584.5 c 0,6,7
 783 469.5 783 469.5 807.5 439.75 c 128,-1,8
 832 410 832 410 832 399.5 c 128,-1,9
 832 389 832 389 800.5 372 c 128,-1,10
 769 355 769 355 731 331.5 c 128,-1,11
 693 308 693 308 654 280.5 c 0,12,13
 567.078 219.209 567.078 219.209 532.539 185.105 c 0,14,15
 487.873 141 487.873 141 478.436 141 c 128,-1,16
 469 141 469 141 469 149.5 c 0,17,18
 469 160.385 469 160.385 486.5 181.692 c 0,19,20
 546.563 253.194 546.563 253.194 578.782 288.097 c 2,21,-1
 645.5 358 l 2,22,23
 680 393 680 393 718 426 c 1,0,1
EndSplineSet
EndChar

StartChar: guillemotleft
Encoding: 171 171 89
Width: 1581
Flags: HW
LayerCount: 2
Fore
SplineSet
1006.5 570 m 1,0,1
 1044 599 1044 599 1070.14 625.5 c 128,-1,2
 1096.29 652 1096.29 652 1106.14 652 c 128,-1,3
 1116 652 1116 652 1116 644 c 0,4,5
 1116 632.077 1116 632.077 1098 611.038 c 0,6,7
 1032.83 534.819 1032.83 534.819 1003 502.5 c 2,8,-1
 938 434.5 l 2,9,10
 903 399 903 399 865 366 c 1,11,12
 886 312 886 312 901.5 267 c 2,13,-1
 928 188 l 1,14,15
 935 160.778 935 160.778 935 154 c 0,16,17
 935 141 935 141 927.5 141 c 0,18,19
 914.5 141 914.5 141 904.25 160.5 c 128,-1,20
 894 180 894 180 875.5 209 c 0,21,22
 800.059 324.676 800.059 324.676 781.029 348.338 c 0,23,24
 752 384.434 752 384.434 752 392.217 c 0,25,26
 752 403.765 752 403.765 783.5 421.382 c 128,-1,27
 815 439 815 439 853 462.5 c 128,-1,28
 891 486 891 486 930 513.5 c 1,29,-1
 1006.5 570 l 1,0,1
506.5 320.5 m 2,30,31
 489 346 489 346 473.5 364.5 c 128,-1,32
 458 383 458 383 458 391.5 c 0,33,34
 458 403.765 458 403.765 489 421.382 c 2,35,-1
 558.5 462.5 l 2,36,37
 597 486 597 486 636 513.5 c 1,38,-1
 712.5 570 l 1,39,40
 750 599 750 599 771.5 620.5 c 0,41,42
 803 652 803 652 812.5 652 c 128,-1,43
 822 652 822 652 822 644 c 0,44,45
 822 631.5 822 631.5 804 610.75 c 2,46,-1
 709.5 502.5 l 1,47,48
 637.857 423.571 637.857 423.571 571 367 c 1,49,50
 592 313 592 313 607.5 267.5 c 2,51,-1
 634 188 l 1,52,53
 640 164 640 164 640 152.5 c 128,-1,54
 640 141 640 141 630 141 c 128,-1,55
 620 141 620 141 610 160.5 c 128,-1,56
 600 180 600 180 581.5 209 c 2,57,-1
 506.5 320.5 l 2,30,31
EndSplineSet
EndChar

StartChar: guillemotright
Encoding: 187 187 90
Width: 1709
Flags: HW
LayerCount: 2
Fore
SplineSet
1012 427 m 1,0,1
 944 601.857 944 601.857 944 627.429 c 128,-1,2
 944 653 944 653 951.5 653 c 0,3,4
 964.455 653 964.455 653 971 635 c 1,5,6
 983 613 983 613 1001.5 584.5 c 2,7,-1
 1077 472.5 l 2,8,9
 1095 447 1095 447 1110 429 c 128,-1,10
 1125 411 1125 411 1125 402 c 0,11,12
 1125 388.412 1125 388.412 1093.5 371.706 c 128,-1,13
 1062 355 1062 355 1024 331.5 c 128,-1,14
 986 308 986 308 947 280.5 c 0,15,16
 860.078 219.209 860.078 219.209 825.539 185.105 c 0,17,18
 780.873 141 780.873 141 771.436 141 c 128,-1,19
 762 141 762 141 762 149.5 c 0,20,21
 762 160.385 762 160.385 779.5 181.692 c 0,22,23
 839.563 253.194 839.563 253.194 871.782 288.097 c 2,24,-1
 939 358.5 l 2,25,26
 974 394 974 394 1012 427 c 1,0,1
718 426 m 1,27,28
 650 600.857 650 600.857 650 626.929 c 128,-1,29
 650 653 650 653 657.5 653 c 0,30,31
 669.818 653 669.818 653 679.909 633 c 128,-1,32
 690 613 690 613 708 584.5 c 0,33,34
 783 469.5 783 469.5 807.5 439.75 c 128,-1,35
 832 410 832 410 832 399.5 c 128,-1,36
 832 389 832 389 800.5 372 c 128,-1,37
 769 355 769 355 731 331.5 c 128,-1,38
 693 308 693 308 654 280.5 c 0,39,40
 567.078 219.209 567.078 219.209 532.539 185.105 c 0,41,42
 487.873 141 487.873 141 478.436 141 c 128,-1,43
 469 141 469 141 469 149.5 c 0,44,45
 469 160.385 469 160.385 486.5 181.692 c 0,46,47
 546.563 253.194 546.563 253.194 578.782 288.097 c 2,48,-1
 645.5 358 l 2,49,50
 680 393 680 393 718 426 c 1,27,28
EndSplineSet
EndChar

StartChar: onesuperior
Encoding: 185 185 91
Width: 1118
Flags: HW
LayerCount: 2
Fore
SplineSet
1030.5 1354.75 m 128,-1,1
 999 1311 999 1311 951.5 1233 c 128,-1,2
 904 1155 904 1155 847.5 1052 c 1,3,4
 685.409 744.232 685.409 744.232 606 575 c 1,5,6
 601 575 601 575 592 576 c 128,-1,7
 583 577 583 577 572.5 577.5 c 2,8,-1
 552 578.5 l 2,9,10
 542 579 542 579 529.5 579 c 0,11,12
 486 579 486 579 465 572 c 1,13,-1
 867 1174 l 1,14,15
 751 1054 751 1054 673.5 990.5 c 0,16,17
 556.945 895 556.945 895 540.472 895 c 0,18,19
 514 895 514 895 514 911 c 128,-1,20
 514 927 514 927 527.5 933 c 2,21,-1
 550.5 943.5 l 2,22,23
 560 948 560 948 577.5 958.5 c 128,-1,24
 595 969 595 969 632.5 997.5 c 128,-1,25
 670 1026 670 1026 711.5 1062.5 c 1,26,-1
 796 1140 l 1,27,28
 931.965 1269.64 931.965 1269.64 1015 1391 c 1,29,30
 1037.84 1422 1037.84 1422 1049.92 1422 c 128,-1,31
 1062 1422 1062 1422 1062 1410.25 c 128,-1,0
 1062 1398.5 1062 1398.5 1030.5 1354.75 c 128,-1,1
EndSplineSet
EndChar

StartChar: twosuperior
Encoding: 178 178 92
Width: 1183
Flags: HW
LayerCount: 2
Fore
SplineSet
386 647 m 1,0,1
 506.457 709 506.457 709 605 709 c 256,2,3
 690.739 709 690.739 709 751 667 c 1,4,5
 807.389 632 807.389 632 838.194 632 c 128,-1,6
 869 632 869 632 893.5 642.5 c 128,-1,7
 918 653 918 653 937 670 c 0,8,9
 978.935 707.52 978.935 707.52 982.967 738.26 c 128,-1,10
 987 769 987 769 996 769 c 0,11,12
 1010 769 1010 769 1010 742.5 c 128,-1,13
 1010 716 1010 716 990 681.5 c 128,-1,14
 970 647 970 647 938 618 c 0,15,16
 864.069 551 864.069 551 784 551 c 0,17,18
 717.615 551 717.615 551 668.308 591.5 c 0,19,20
 590.998 655 590.998 655 516 655 c 0,21,22
 418.826 655 418.826 655 312 564 c 1,23,24
 294.667 551 294.667 551 284.833 551 c 128,-1,25
 275 551 275 551 275 564 c 128,-1,26
 275 577 275 577 292 599.5 c 128,-1,27
 309 622 309 622 349.5 654 c 0,28,29
 441.209 726.462 441.209 726.462 580.605 798.731 c 128,-1,30
 720 871 720 871 791.5 918.5 c 128,-1,31
 863 966 863 966 911.5 1018.5 c 0,32,33
 1011 1126.21 1011 1126.21 1011 1264 c 0,34,35
 1011 1318 1011 1318 985 1350 c 128,-1,36
 959 1382 959 1382 918.5 1382 c 128,-1,37
 878 1382 878 1382 839 1362.5 c 128,-1,38
 800 1343 800 1343 761.5 1311.5 c 128,-1,39
 723 1280 723 1280 688 1240 c 128,-1,40
 653 1200 653 1200 626.5 1159.5 c 0,41,42
 568 1070.09 568 1070.09 568 1015.55 c 128,-1,43
 568 961 568 961 617 961 c 0,44,45
 709.903 961 709.903 961 813 1097 c 1,46,47
 825 1109 825 1109 833.5 1109 c 128,-1,48
 842 1109 842 1109 842 1098.5 c 128,-1,49
 842 1088 842 1088 818.5 1057.5 c 128,-1,50
 795 1027 795 1027 757 996.5 c 0,51,52
 680.377 935 680.377 935 614 935 c 0,53,54
 532.294 935 532.294 935 512 1004 c 0,55,56
 507 1021 507 1021 507 1047 c 128,-1,57
 507 1073 507 1073 523.5 1115.5 c 128,-1,58
 540 1158 540 1158 569 1199.5 c 128,-1,59
 598 1241 598 1241 637.5 1279.5 c 128,-1,60
 677 1318 677 1318 722.5 1347 c 0,61,62
 821.345 1410 821.345 1410 917 1410 c 0,63,64
 1054.24 1410 1054.24 1410 1096.5 1303.5 c 0,65,66
 1109 1272 1109 1272 1109 1223 c 128,-1,67
 1109 1174 1109 1174 1078.5 1115.5 c 128,-1,68
 1048 1057 1048 1057 991 1001.5 c 0,69,70
 879.389 892.826 879.389 892.826 665 798 c 1,71,-1
 559.5 749.5 l 1,72,73
 447.301 696.625 447.301 696.625 386 647 c 1,0,1
EndSplineSet
EndChar

StartChar: threesuperior
Encoding: 179 179 93
Width: 1065
Flags: HW
LayerCount: 2
Fore
SplineSet
353 660 m 0,0,1
 353 645 353 645 349 631 c 1,2,3
 403 577 403 577 491 577 c 128,-1,4
 579 577 579 577 639.5 601 c 128,-1,5
 700 625 700 625 742.5 665 c 0,6,7
 830 747.353 830 747.353 830 866 c 0,8,9
 830 932.371 830 932.371 774.5 962.5 c 0,10,11
 757 972 757 972 735 972 c 128,-1,12
 713 972 713 972 694 966.5 c 128,-1,13
 675 961 675 961 657.5 951 c 128,-1,14
 640 941 640 941 623 927 c 2,15,-1
 587 897 l 1,16,17
 577 886 577 886 562 894 c 1,18,19
 551 902 551 902 561 915.5 c 128,-1,20
 571 929 571 929 584 940.5 c 128,-1,21
 597 952 597 952 615 963 c 128,-1,22
 633 974 633 974 656 985.5 c 2,23,-1
 711 1012 l 1,24,25
 952 1121.55 952 1121.55 952 1262 c 0,26,27
 952 1315 952 1315 921.5 1349 c 128,-1,28
 891 1383 891 1383 840 1383 c 128,-1,29
 789 1383 789 1383 743.5 1360 c 128,-1,30
 698 1337 698 1337 660 1301 c 0,31,32
 573 1218.58 573 1218.58 573 1132 c 0,33,34
 573 1088 573 1088 617 1088 c 0,35,36
 693.441 1088 693.441 1088 742 1183.5 c 0,37,38
 757 1213 757 1213 762 1235.5 c 128,-1,39
 767 1258 767 1258 769.5 1261 c 128,-1,40
 772 1264 772 1264 779.5 1264 c 128,-1,41
 787 1264 787 1264 787 1239 c 128,-1,42
 787 1214 787 1214 773.5 1180.5 c 128,-1,43
 760 1147 760 1147 736 1121 c 0,44,45
 681.538 1062 681.538 1062 612 1062 c 0,46,47
 574 1062 574 1062 547 1085.5 c 128,-1,48
 520 1109 520 1109 520 1153.5 c 128,-1,49
 520 1198 520 1198 548 1243 c 128,-1,50
 576 1288 576 1288 621.5 1325 c 0,51,52
 726.027 1410 726.027 1410 837.514 1410 c 128,-1,53
 949 1410 949 1410 999.5 1368 c 128,-1,54
 1050 1326 1050 1326 1050 1258.5 c 128,-1,55
 1050 1191 1050 1191 984.5 1122.5 c 128,-1,56
 919 1054 919 1054 781 999 c 1,57,58
 844.028 988.495 844.028 988.495 876.014 955.748 c 0,59,60
 934 896.381 934 896.381 934 836.69 c 128,-1,61
 934 777 934 777 898 725 c 128,-1,62
 862 673 862 673 802 634.5 c 0,63,64
 671.87 551 671.87 551 504 551 c 0,65,66
 410.086 551 410.086 551 339.5 591.5 c 0,67,68
 275 628.508 275 628.508 275 669 c 0,69,70
 275 684 275 684 285.5 696.5 c 128,-1,71
 296 709 296 709 315 709 c 0,72,73
 353 709 353 709 353 660 c 0,0,1
EndSplineSet
EndChar

StartChar: onequarter
Encoding: 188 188 94
Width: 2441
Flags: HW
LayerCount: 2
Fore
SplineSet
676 22 m 1,0,1
 666 24 666 24 653.5 24 c 0,2,3
 633 24 633 24 605 22 c 1,4,-1
 1570 1373 l 1,5,6
 1585 1368 1585 1368 1598 1368 c 0,7,8
 1629 1368 1629 1368 1638 1371 c 1,9,-1
 676 22 l 1,0,1
924.5 1173.75 m 128,-1,11
 893 1130 893 1130 845.5 1052 c 128,-1,12
 798 974 798 974 741.5 871 c 1,13,14
 579.409 563.232 579.409 563.232 500 394 c 1,15,16
 495 394 495 394 486 395 c 128,-1,17
 477 396 477 396 466.5 396.5 c 2,18,-1
 446 397.5 l 2,19,20
 436 398 436 398 423.5 398 c 0,21,22
 380 398 380 398 359 391 c 1,23,-1
 761 993 l 1,24,25
 645 873 645 873 567.5 809.5 c 0,26,27
 450.945 714 450.945 714 434.472 714 c 0,28,29
 408 714 408 714 408 730 c 128,-1,30
 408 746 408 746 421.5 752 c 2,31,-1
 444.5 762.5 l 2,32,33
 454 767 454 767 471.5 777.5 c 128,-1,34
 489 788 489 788 526.5 816.5 c 128,-1,35
 564 845 564 845 605.5 881.5 c 1,36,-1
 690 959 l 1,37,38
 825.965 1088.64 825.965 1088.64 909 1210 c 1,39,40
 931.842 1241 931.842 1241 943.921 1241 c 128,-1,41
 956 1241 956 1241 956 1229.25 c 128,-1,10
 956 1217.5 956 1217.5 924.5 1173.75 c 128,-1,11
1468 382 m 1,42,43
 1342 274 1342 274 1262 274 c 0,44,45
 1225 274 1225 274 1208.5 291.5 c 128,-1,46
 1192 309 1192 309 1192 331 c 128,-1,47
 1192 353 1192 353 1204 371 c 128,-1,48
 1216 389 1216 389 1238 403 c 0,49,50
 1288.29 435 1288.29 435 1341.29 435 c 128,-1,51
 1394.29 435 1394.29 435 1444 423 c 1,52,53
 1487 465 1487 465 1537 519.5 c 1,54,-1
 1636.5 632.5 l 1,55,56
 1736.8 751.033 1736.8 751.033 1806 857 c 1,57,58
 1833 860 1833 860 1857.5 862 c 2,59,-1
 1932 868 l 2,60,61
 1944 869 1944 869 1957 869 c 128,-1,62
 1970 869 1970 869 1970 863 c 128,-1,63
 1970 857 1970 857 1965 854.5 c 128,-1,64
 1960 852 1960 852 1943 841.5 c 0,65,66
 1896.88 813.016 1896.88 813.016 1845.94 758.008 c 1,67,68
 1658.83 561.352 1658.83 561.352 1607.42 511.176 c 2,69,-1
 1499 408 l 1,70,-1
 1624 370 l 2,71,72
 1639 365 1639 365 1654 361 c 2,73,-1
 1685 353 l 1,74,75
 1865.19 550.512 1865.19 550.512 2006 635 c 0,76,77
 2021.71 645 2021.71 645 2033.36 645 c 128,-1,78
 2045 645 2045 645 2045 638 c 0,79,80
 2045 627.2 2045 627.2 2024.5 613.6 c 128,-1,81
 2004 600 2004 600 1974 572 c 128,-1,82
 1944 544 1944 544 1909.5 507.5 c 1,83,84
 1808.82 396.409 1808.82 396.409 1761 336 c 1,85,86
 1827.86 323 1827.86 323 1872.43 323 c 0,87,88
 1965 323 1965 323 2020 356 c 1,89,90
 2042 366 2042 366 2048 369 c 128,-1,91
 2054 372 2054 372 2059 372 c 256,92,93
 2069 372 2069 372 2069 365.5 c 0,94,95
 2069 352.182 2069 352.182 2043 335.591 c 0,96,97
 1976.25 293 1976.25 293 1856 293 c 0,98,99
 1803 293 1803 293 1736 305 c 1,100,101
 1620.66 159.31 1620.66 159.31 1534 19 c 1,102,103
 1516.71 21.4706 1516.71 21.4706 1498.35 22.2353 c 2,104,-1
 1468.5 23.5 l 2,105,106
 1457 24 1457 24 1450 24 c 256,107,108
 1425.5 24 1425.5 24 1408 19 c 1,109,110
 1586.75 243.949 1586.75 243.949 1657 322 c 1,111,-1
 1601 338.5 l 2,112,113
 1572 347 1572 347 1540 358 c 2,114,-1
 1468 382 l 1,42,43
1417 397 m 1,115,116
 1371 409 1371 409 1349 409 c 128,-1,117
 1327 409 1327 409 1307 400.5 c 128,-1,118
 1287 392 1287 392 1270.5 379 c 0,119,120
 1232 348.667 1232 348.667 1232 323.833 c 128,-1,121
 1232 299 1232 299 1260 299 c 0,122,123
 1299.43 299 1299.43 299 1381 366 c 1,124,-1
 1417 397 l 1,115,116
EndSplineSet
EndChar

StartChar: onehalf
Encoding: 189 189 95
Width: 2440
Flags: HW
LayerCount: 2
Fore
SplineSet
676 22 m 1,0,1
 666 24 666 24 653.5 24 c 0,2,3
 633 24 633 24 605 22 c 1,4,-1
 1570 1373 l 1,5,6
 1585 1368 1585 1368 1598 1368 c 0,7,8
 1629 1368 1629 1368 1638 1371 c 1,9,-1
 676 22 l 1,0,1
924.5 1173.75 m 128,-1,11
 893 1130 893 1130 845.5 1052 c 128,-1,12
 798 974 798 974 741.5 871 c 1,13,14
 579.409 563.232 579.409 563.232 500 394 c 1,15,16
 495 394 495 394 486 395 c 128,-1,17
 477 396 477 396 466.5 396.5 c 2,18,-1
 446 397.5 l 2,19,20
 436 398 436 398 423.5 398 c 0,21,22
 380 398 380 398 359 391 c 1,23,-1
 761 993 l 1,24,25
 645 873 645 873 567.5 809.5 c 0,26,27
 450.945 714 450.945 714 434.472 714 c 0,28,29
 408 714 408 714 408 730 c 128,-1,30
 408 746 408 746 421.5 752 c 2,31,-1
 444.5 762.5 l 2,32,33
 454 767 454 767 471.5 777.5 c 128,-1,34
 489 788 489 788 526.5 816.5 c 128,-1,35
 564 845 564 845 605.5 881.5 c 1,36,-1
 690 959 l 1,37,38
 825.965 1088.64 825.965 1088.64 909 1210 c 1,39,40
 931.842 1241 931.842 1241 943.921 1241 c 128,-1,41
 956 1241 956 1241 956 1229.25 c 128,-1,10
 956 1217.5 956 1217.5 924.5 1173.75 c 128,-1,11
1315 151 m 1,42,43
 1431.91 213 1431.91 213 1532 213 c 0,44,45
 1616.91 213 1616.91 213 1679 171 c 0,46,47
 1732.05 135 1732.05 135 1764.03 135 c 128,-1,48
 1796 135 1796 135 1820.5 145.5 c 128,-1,49
 1845 156 1845 156 1864.5 173 c 0,50,51
 1905.72 208.934 1905.72 208.934 1909.86 241.467 c 128,-1,52
 1914 274 1914 274 1926 274 c 128,-1,53
 1938 274 1938 274 1938 247 c 128,-1,54
 1938 220 1938 220 1918 185 c 128,-1,55
 1898 150 1898 150 1866 121 c 0,56,57
 1792.07 54 1792.07 54 1712 54 c 0,58,59
 1647.88 54 1647.88 54 1596.94 95 c 0,60,61
 1516.18 160 1516.18 160 1444 160 c 0,62,63
 1348 160 1348 160 1240 68 c 0,64,65
 1224 54 1224 54 1213 54 c 256,66,67
 1202 54 1202 54 1202 67 c 256,68,69
 1202 116.822 1202 116.822 1385.5 231 c 0,70,71
 1453 273 1453 273 1550.5 323.5 c 128,-1,72
 1648 374 1648 374 1719.5 421.5 c 128,-1,73
 1791 469 1791 469 1839.5 521.5 c 0,74,75
 1939 629.206 1939 629.206 1939 767 c 0,76,77
 1939 821 1939 821 1912 853 c 128,-1,78
 1885 885 1885 885 1845 885 c 128,-1,79
 1805 885 1805 885 1766.5 865.5 c 128,-1,80
 1728 846 1728 846 1689.5 814.5 c 128,-1,81
 1651 783 1651 783 1616 743 c 128,-1,82
 1581 703 1581 703 1554.5 662.5 c 0,83,84
 1496 573.094 1496 573.094 1496 521 c 256,85,86
 1496 464 1496 464 1545 464 c 0,87,88
 1637.15 464 1637.15 464 1741 601 c 1,89,90
 1752 613 1752 613 1760.5 613 c 128,-1,91
 1769 613 1769 613 1769 602.5 c 128,-1,92
 1769 592 1769 592 1745.5 560.5 c 128,-1,93
 1722 529 1722 529 1677 492 c 1,94,95
 1607.87 439 1607.87 439 1541 439 c 0,96,97
 1485.8 439 1485.8 439 1457 475 c 0,98,99
 1435 502.5 1435 502.5 1435 539.75 c 128,-1,100
 1435 577 1435 577 1451.5 619.5 c 128,-1,101
 1468 662 1468 662 1497 703.5 c 128,-1,102
 1526 745 1526 745 1565.5 783 c 128,-1,103
 1605 821 1605 821 1650.5 850 c 0,104,105
 1749.34 913 1749.34 913 1845 913 c 0,106,107
 1982.09 913 1982.09 913 2023.5 807 c 0,108,109
 2036 775 2036 775 2036 726 c 128,-1,110
 2036 677 2036 677 2005.5 618.5 c 128,-1,111
 1975 560 1975 560 1917.5 504.5 c 0,112,113
 1804.5 395.435 1804.5 395.435 1591 301 c 0,114,115
 1423.04 226.656 1423.04 226.656 1379.52 197.328 c 128,-1,116
 1336 168 1336 168 1315 151 c 1,42,43
EndSplineSet
EndChar

